<svg width="68" height="68" fill="none" xmlns="http://www.w3.org/2000/svg"><g clip-path="url(#clip0_1_697)"><path d="M23.001 20.474l-2.177-3.77-2.179-.162-.803 1.884 2.178 3.773c1.565.287 2.727-.32 2.981-1.725zm21.997 0l2.177-3.77 2.18-.162.803 1.884-2.179 3.773c-1.565.287-2.727-.32-2.981-1.725z" fill="#B9C1CB"/><path d="M35.769 14.594a6.436 6.436 0 004.64-6.162 6.417 6.417 0 00-6.41-6.41 6.417 6.417 0 00-6.409 6.41 6.436 6.436 0 004.64 6.162l.277 2.137c-4.034-.721-6.939-4.273-6.939-8.3 0-4.648 3.782-8.43 8.431-8.43 4.65 0 8.432 3.782 8.432 8.43 0 4.02-2.896 7.568-6.921 8.297l.259-2.134z" fill="#DAE4EA"/><path d="M34 18.488c.689 0 1.372.032 2.047.095v-8.416h-4.096v8.416A21.942 21.942 0 0134 18.488z" fill="#B9C1CB"/><path d="M34 68c13.825 0 25.033-11.207 25.033-25.032 0-13.826-11.208-25.034-25.033-25.034-13.826 0-25.033 11.208-25.033 25.034C8.967 56.793 20.174 68 34 68zm3.033-61.869h-6.068a.545.545 0 00-.545.545v3.511c0 .302.244.546.545.546h6.068a.545.545 0 00.545-.546v-3.51a.545.545 0 00-.545-.546zM21.135 16.524l-3.603 2.08a.283.283 0 01-.387-.103l-2.693-4.663a.283.283 0 01.104-.387l3.603-2.08a.283.283 0 01.387.103l2.693 4.663a.283.283 0 01-.104.387zm25.729 0l3.604 2.08a.283.283 0 00.387-.103l2.692-4.663a.283.283 0 00-.103-.387l-3.604-2.08a.283.283 0 00-.387.103l-2.692 4.663a.283.283 0 00.103.387z" fill="#DAE4EA"/><path d="M34 63.45c11.311 0 20.481-9.17 20.481-20.482S45.311 22.486 34 22.486c-11.311 0-20.481 9.17-20.481 20.482S22.689 63.45 34 63.45z" fill="#F6F9F9"/><path d="M51.112 42.968c0-9.388-7.598-17.034-16.967-17.112A.145.145 0 0034 26v16.968H17.033a.144.144 0 00-.144.145C16.967 52.483 24.613 60.08 34 60.08h.115c9.383-.062 16.997-7.715 16.997-17.112z" fill="#FFC954"/><path d="M38.816 26.545c4.188 3.123 6.905 8.113 6.905 13.727 0 9.398-7.615 17.05-16.998 17.112h-.114a17.02 17.02 0 01-4.816-.69 17.022 17.022 0 0010.322 3.386c9.383-.062 16.997-7.715 16.997-17.112 0-7.765-5.197-14.338-12.296-16.423z" fill="#E1A729"/></g><defs><clipPath id="clip0_1_697"><path fill="#fff" d="M0 0h68v68H0z"/></clipPath></defs></svg>