<svg width="503" height="745" fill="none" xmlns="http://www.w3.org/2000/svg"><path d="M29.059 188.148l2.554-.684-6.412-23.929-2.554.684a1.997 1.997 0 00-1.412 2.446l5.378 20.071a1.996 1.996 0 002.446 1.412zm15.49 57.809l2.554-.684-9.396-35.065-2.554.684a1.996 1.996 0 00-1.412 2.445l8.363 31.213a1.995 1.995 0 002.445 1.407zm10.015 37.373l2.554-.684-9.396-35.066-2.553.685a1.996 1.996 0 00-1.412 2.445l8.363 31.212a1.995 1.995 0 002.444 1.408zm298.179-176.684l-2.554.684 17.503 65.322 2.554-.684a1.996 1.996 0 001.412-2.446l-16.469-61.464a1.996 1.996 0 00-2.446-1.412z" fill="#010101"/><path d="M219.5 732.379l238.57-63.924c22.814-6.113 36.354-29.564 30.24-52.379L334.503 42.06c-6.113-22.815-29.564-36.354-52.378-30.24L43.555 75.743c-22.814 6.113-36.354 29.563-30.24 52.378L167.12 702.134c6.11 22.82 29.56 36.36 52.379 30.245z" fill="#414141"/><path opacity=".3" d="M190.858 727.589c-3.204-1.336-6.203-3.194-8.896-5.422-2.691-2.239-5.031-4.878-7.05-7.73a39.848 39.848 0 01-4.852-9.281l-.449-1.235-.384-1.256a62.249 62.249 0 01-.71-2.51l-1.36-5.006-5.44-20.022-5.414-20.028-10.771-40.073-10.7-40.091-21.361-80.198c-3.545-13.37-7.147-26.724-10.749-40.079L91.93 414.591 70.357 334.45l-21.423-80.181-21.428-80.181-10.678-40.097-1.334-5.014-.33-1.251-.305-1.278c-.096-.428-.213-.849-.291-1.281l-.229-1.294c-.178-.858-.243-1.733-.357-2.599-.1-.87-.127-1.745-.196-2.619-.004-.876-.04-1.749-.01-2.626.05-.872.05-1.75.157-2.619.327-3.481 1.059-6.934 2.255-10.218 1.203-3.281 2.872-6.405 5.052-9.118l.132.088c-1.68 3.027-3.161 6.114-4.313 9.339-1.157 3.218-1.863 6.592-2.165 9.991-.103.849-.1 1.707-.14 2.558-.027.852.014 1.71.02 2.562.068.851.099 1.706.198 2.553.119.846.186 1.696.36 2.537l.228 1.26c.075.419.195.831.288 1.249l.304 1.24.34 1.25 1.351 5.009 10.801 40.064 21.534 80.152 21.537 80.151 21.388 80.191 10.687 40.095c3.558 13.366 7.116 26.732 10.731 40.083l21.599 80.134 10.779 40.07 10.709 40.089 5.326 20.053 5.299 20.059 1.326 5.016c.219.838.439 1.676.685 2.488l.362 1.229.428 1.207a38.8 38.8 0 004.671 9.084 41.064 41.064 0 006.823 7.621c2.58 2.249 5.401 4.216 8.394 5.944l-.064.149zm289.403-77.668c1.733-2.994 3.186-6.111 4.297-9.345a41.034 41.034 0 002.095-10.01c.291-3.405.11-6.844-.497-10.203l-.234-1.258-.3-1.246c-.189-.827-.422-1.662-.651-2.497l-1.36-5.007-5.44-20.021-5.414-20.029-10.771-40.073-10.7-40.091-21.361-80.198c-3.545-13.37-7.147-26.724-10.749-40.078l-10.792-40.067-21.573-80.142-21.423-80.181-21.428-80.18-10.678-40.098-1.334-5.013-.33-1.252-.363-1.23c-.128-.408-.229-.82-.375-1.225l-.432-1.206c-.265-.811-.637-1.585-.958-2.377-.333-.783-.738-1.539-1.105-2.309-.42-.741-.812-1.5-1.263-2.229-.465-.715-.891-1.46-1.4-2.145-1.966-2.791-4.259-5.362-6.871-7.57-2.609-2.217-5.435-4.15-8.405-5.932l.071-.141c3.245 1.259 6.252 3.129 8.934 5.37 2.683 2.245 5.042 4.869 7.067 7.72.527.699.966 1.459 1.445 2.19.464.744.869 1.518 1.305 2.279.377.791.796 1.561 1.139 2.366.334.807.711 1.598.991 2.43l.448 1.234c.149.413.258.837.388 1.255l.376 1.259.339 1.25 1.352 5.008 10.801 40.064 21.533 80.153 21.538 80.15 21.388 80.191 10.687 40.095c3.558 13.366 7.115 26.733 10.73 40.083l21.6 80.135 10.779 40.07 10.709 40.089 5.326 20.052 5.299 20.06 1.325 5.016c.223.832.447 1.668.64 2.528l.296 1.28.228 1.293c.599 3.45.761 6.98.439 10.464-.323 3.48-1.034 6.937-2.241 10.219-1.213 3.275-2.881 6.384-4.992 9.144l-.125-.094z" fill="#fff"/><path d="M218.274 727.795c-20.252 5.427-41.145-6.636-46.572-26.888L17.896 126.895c-5.426-20.252 6.636-41.145 26.888-46.572L283.354 16.4c20.251-5.427 41.145 6.636 46.571 26.888L483.731 617.3c5.427 20.252-6.636 41.145-26.888 46.572l-238.569 63.924z" fill="#010101"/><path d="M218 726.778c-19.692 5.277-40.005-6.451-45.281-26.143L18.913 126.622c-5.277-19.692 6.45-40.005 26.143-45.281l238.57-63.925c19.692-5.276 40.005 6.451 45.281 26.144l153.806 574.012c5.277 19.693-6.45 40.005-26.143 45.282L218 726.778z" fill="#1C1C1C"/><path d="M215.548 717.619c-14.642 3.923-29.74-4.798-33.662-19.435L28.078 124.167c-3.922-14.637 4.798-29.74 19.435-33.663l238.57-63.924c14.637-3.922 29.74 4.798 33.663 19.435l153.806 574.012c3.922 14.638-4.798 29.741-19.435 33.663l-238.57 63.924.001.005z" fill="#010101"/><path d="M286.213 27.092L47.648 91.016c-14.382 3.853-22.918 18.638-19.065 33.02L182.39 698.048c3.853 14.382 18.638 22.918 33.02 19.065l238.57-63.925c14.382-3.853 22.918-18.638 19.064-33.02L319.237 46.151c-3.858-14.38-18.642-22.912-33.024-19.059z"/></svg>