<svg width="16" height="17" fill="none" xmlns="http://www.w3.org/2000/svg"><g clip-path="url(#clip0_1_509)" fill="#18063C"><path fill-rule="evenodd" clip-rule="evenodd" d="M7.772 0c1.039.04 2.115.04 3.154.079.928.04 1.781.197 2.598.71 1.039.672 1.67 1.658 1.892 2.922.111.75.148 1.539.185 2.29.038 1.657 0 3.315 0 4.973 0 .868-.037 1.737-.296 2.566-.52 1.618-1.596 2.605-3.155 2.92-.705.159-1.447.159-2.152.198-1.558.04-3.08 0-4.638 0-.816 0-1.633-.04-2.412-.316-1.521-.552-2.45-1.697-2.746-3.355-.148-.75-.148-1.54-.186-2.29-.037-1.657 0-3.315 0-4.973 0-.869.038-1.737.297-2.566C.833 1.539 1.91.553 3.467.237 4.172.079 4.915.079 5.62.039 6.325 0 7.03 0 7.772 0zm6.419 8.171c-.038 0 0 0 0 0-.038-.67-.038-1.302-.038-1.974 0-.631-.037-1.263-.11-1.894-.15-1.421-.928-2.369-2.227-2.645-.668-.158-1.41-.158-2.078-.158a66.582 66.582 0 00-3.97 0c-.669 0-1.337.04-1.967.158-1.114.197-1.893.868-2.227 2.053-.111.394-.148.79-.185 1.184-.037 1.5-.037 3-.037 4.5 0 .947.037 1.934.11 2.882.112 1.42.929 2.407 2.264 2.644a11.94 11.94 0 002.078.158c1.3.04 2.598 0 3.934 0 .594 0 1.187-.04 1.78-.118a2.508 2.508 0 001.522-.632c.742-.632 1.002-1.46 1.04-2.408.073-1.184.073-2.447.11-3.75z"/><path fill-rule="evenodd" clip-rule="evenodd" d="M11.78 8.33c0 2.368-1.78 4.263-4.007 4.263-2.226 0-4.007-1.895-4.007-4.303 0-2.329 1.818-4.224 4.044-4.224 2.19 0 3.97 1.895 3.97 4.264zm-4.006 2.763c1.41 0 2.598-1.263 2.598-2.763S9.184 5.566 7.774 5.566c-1.447 0-2.597 1.264-2.597 2.764-.037 1.5 1.15 2.763 2.597 2.763z"/><path d="M12.854 3.637c0 .52-.409.964-.928.964-.52 0-.965-.445-.928-.964 0-.52.408-.928.928-.928s.928.408.928.928z"/></g><defs><clipPath id="clip0_1_509"><path fill="#fff" d="M0 0h15.618v16.676H0z"/></clipPath></defs></svg>