<svg width="48" height="48" fill="none" xmlns="http://www.w3.org/2000/svg"><path d="M45.238 9.603L26.615 8.087 2.764 9.603v37.222c0 .649.526 1.175 1.174 1.175h40.125c.649 0 1.175-.526 1.175-1.175V9.603z" fill="#F6F9F9"/><path d="M45.238 9.603L41.375 7.67v29.442a8.955 8.955 0 01-8.956 8.955H2.764v.757c0 .649.526 1.175 1.174 1.175h40.125c.649 0 1.175-.526 1.175-1.175V9.603z" fill="#E7ECF1"/><path d="M44.063 2.74H3.938c-.648 0-1.174.526-1.174 1.175v5.688h42.474V3.915c0-.65-.526-1.175-1.175-1.175z" fill="#61A2F9"/><path d="M44.063 2.74h-2.688v6.863h3.863V3.915c0-.65-.526-1.175-1.175-1.175z" fill="#5490F9"/><path d="M8.768 6.466h-.66a1.17 1.17 0 01-1.17-1.17V1.17c0-.646.524-1.17 1.17-1.17h.66c.646 0 1.17.524 1.17 1.17v4.125a1.17 1.17 0 01-1.17 1.17zm7.782 0h-.66a1.17 1.17 0 01-1.171-1.17V1.17c0-.646.524-1.17 1.17-1.17h.66c.647 0 1.17.524 1.17 1.17v4.125a1.17 1.17 0 01-1.17 1.17zm7.782 0h-.66a1.17 1.17 0 01-1.17-1.17V1.17c0-.646.524-1.17 1.17-1.17h.66c.647 0 1.17.524 1.17 1.17v4.125a1.17 1.17 0 01-1.17 1.17zm7.782 0h-.66a1.17 1.17 0 01-1.17-1.17V1.17c0-.646.523-1.17 1.17-1.17h.66c.646 0 1.17.524 1.17 1.17v4.125a1.17 1.17 0 01-1.17 1.17zm7.781 0h-.66a1.17 1.17 0 01-1.17-1.17V1.17c0-.646.523-1.17 1.17-1.17h.66c.646 0 1.17.524 1.17 1.17v4.125a1.17 1.17 0 01-1.17 1.17z" fill="#DAE4EA"/><path d="M36.147 22.846l-3.04-3.04a.627.627 0 00-.888 0l-10.5 10.5a.087.087 0 01-.123 0l-5.797-5.797a.627.627 0 00-.887 0l-3.058 3.059a.627.627 0 000 .887l9.342 9.342a.627.627 0 00.887 0l14.064-14.064a.627.627 0 000-.887z" fill="#80E29D"/></svg>