<svg width="48" height="42" fill="none" xmlns="http://www.w3.org/2000/svg"><path d="M45.087 7.319L19.162 5.85 0 7.319v28.916c0 .505.409.913.912.913h43.263a.912.912 0 00.912-.912V7.319z" fill="#F6F9F9"/><path d="M.912 37.148h43.263a.912.912 0 00.913-.912V7.319l-3.864-.197v15.123a2.91 2.91 0 01-3.316 2.882 7.328 7.328 0 00-1.132-.072c-3.907.055-7.1 3.251-7.15 7.158l-.001.082a2.916 2.916 0 01-2.91 2.922H0v1.019c0 .504.409.912.912.912z" fill="#E7ECF1"/><path d="M40.778 25.255v2.592c0 .1-.081.181-.181.181h-3.681a.181.181 0 01-.182-.18v-2.593c0-.1.082-.181.182-.181h3.68c.1 0 .182.08.182.181zm0-4.316c0-.1-.081-.181-.181-.181h-3.681c-.1 0-.182.081-.182.181v2.592c0 .1.082.182.182.182h3.68c.1 0 .182-.081.182-.182V20.94zm0-4.315c0-.1-.081-.182-.181-.182h-3.681c-.1 0-.182.082-.182.182v2.592c0 .1.082.181.182.181h3.68c.1 0 .182-.081.182-.181v-2.592zm0-4.316c0-.1-.081-.181-.181-.181h-3.681c-.1 0-.182.081-.182.181V14.9c0 .1.082.181.182.181h3.68c.1 0 .182-.08.182-.18v-2.593z" fill="#DA4A54"/><path d="M36.916 28.028h3.68c.1 0 .182-.08.182-.181v-2.592c0-.1-.081-.181-.181-.181h-1.592a2.898 2.898 0 01-1.098.052 7.244 7.244 0 00-.494-.053h-.497c-.1 0-.182.082-.182.182v2.592c0 .1.082.181.182.181z" fill="#D82E3D"/><path d="M29.97 19.216c0 .1-.082.181-.182.181h-3.68a.181.181 0 01-.182-.181v-2.592c0-.1.081-.182.181-.182h3.681c.1 0 .181.082.181.182v2.592zm0-6.908c0-.1-.082-.181-.182-.181h-3.68c-.1 0-.182.081-.182.181V14.9c0 .1.081.182.181.182h3.681c.1 0 .181-.082.181-.182v-2.592zm-.182 12.766h-3.68c-.1 0-.182.08-.182.181v2.592c0 .1.081.181.182.181h3.68c.1 0 .182-.08.182-.18v-2.593c0-.1-.082-.181-.182-.181zM9.877 15.082h3.698c.1 0 .182-.082.182-.182v-2.592c0-.1-.082-.181-.182-.181H9.877c-.1 0-.182.081-.182.181V14.9c0 .1.082.182.182.182zm-.182 4.134c0 .1.082.181.182.181h3.698c.1 0 .182-.081.182-.181v-2.592c0-.1-.082-.182-.182-.182H9.877c-.1 0-.182.082-.182.182v2.592zm20.274 1.723c0-.1-.08-.18-.181-.18h-3.68c-.1 0-.182.08-.182.18v2.593c0 .1.081.18.181.18h3.681c.1 0 .181-.08.181-.18v-2.593zM9.695 23.532c0 .1.082.18.182.18h3.698c.1 0 .182-.08.182-.18v-2.593c0-.1-.082-.18-.182-.18H9.877c-.1 0-.182.08-.182.18v2.593zm25.497 1.542h-3.68c-.1 0-.182.08-.182.181v2.592c0 .1.082.181.182.181h3.68c.1 0 .182-.08.182-.18v-2.593c0-.1-.081-.181-.182-.181zm.182-4.135a.18.18 0 00-.182-.18h-3.68c-.1 0-.182.08-.182.18v2.593c0 .1.082.18.182.18h3.68c.1 0 .182-.08.182-.18v-2.593zm0-4.315c0-.1-.081-.182-.182-.182h-3.68c-.1 0-.182.082-.182.182v2.592c0 .1.082.181.182.181h3.68c.1 0 .182-.081.182-.181v-2.592zm0-4.316c0-.1-.081-.181-.182-.181h-3.68c-.1 0-.182.081-.182.181V14.9c0 .1.082.182.182.182h3.68c.1 0 .182-.082.182-.182v-2.592zM9.695 32.158c0 .1.082.182.182.182h3.698c.1 0 .182-.081.182-.182v-2.587c0-.1-.082-.182-.182-.182H9.877c-.1 0-.182.082-.182.182v2.587zm10.827-4.31c0 .1.081.18.181.18h3.68a.18.18 0 00.182-.18v-2.593c0-.1-.081-.181-.181-.181h-3.68a.181.181 0 00-.182.181v2.592zm.181-8.45h3.68a.182.182 0 00.182-.182v-2.592c0-.1-.081-.182-.181-.182h-3.68a.182.182 0 00-.182.182v2.592c0 .1.081.181.181.181zm-.181 4.134c0 .1.081.18.181.18h3.68a.18.18 0 00.182-.18v-2.593a.18.18 0 00-.181-.18h-3.68a.18.18 0 00-.182.18v2.593zm0 8.626c0 .1.081.182.181.182h3.68a.181.181 0 00.182-.182v-2.587c0-.1-.081-.182-.181-.182h-3.68a.182.182 0 00-.182.182v2.587zm3.862-20.031h-3.68a.181.181 0 00-.182.181V14.9c0 .1.081.181.181.181h3.68a.18.18 0 00.182-.18v-2.593c0-.1-.081-.181-.181-.181zM9.695 27.847c0 .1.082.181.182.181h3.698c.1 0 .182-.08.182-.18v-2.593c0-.1-.082-.181-.182-.181H9.877c-.1 0-.182.081-.182.181v2.592zm5.422 4.311c0 .1.082.182.182.182h3.68c.1 0 .182-.081.182-.182v-2.587c0-.1-.081-.182-.181-.182h-3.681c-.1 0-.181.082-.181.182v2.587zm0-12.942c0 .1.082.181.182.181h3.68c.1 0 .182-.081.182-.181v-2.592c0-.1-.081-.182-.181-.182h-3.681c-.1 0-.181.082-.181.182v2.592zm.182-4.134h3.68c.1 0 .182-.082.182-.182v-2.592c0-.1-.081-.181-.181-.181h-3.681c-.1 0-.181.081-.181.181V14.9c0 .1.08.182.18.182zm-.181 8.45c0 .1.08.18.18.18h3.682c.1 0 .181-.08.181-.18v-2.593a.18.18 0 00-.181-.18h-3.681a.18.18 0 00-.181.18v2.593zm0 4.315c0 .1.08.181.18.181h3.682c.1 0 .181-.08.181-.18v-2.593c0-.1-.081-.181-.181-.181h-3.681c-.1 0-.181.081-.181.181v2.592z" fill="#DAE4EA"/><path d="M31.33 27.847c0 .1.081.181.182.181h3.68c.1 0 .182-.08.182-.181v-2.592a.18.18 0 00-.005-.041 7.287 7.287 0 00-4.039 2.438v.195z" fill="#C6D0DA"/><path d="M44.175 1.987H.913A.913.913 0 000 2.899v4.42h45.087v-4.42a.913.913 0 00-.912-.912z" fill="#61A2F9"/><path d="M4.309 19.216v-2.592c0-.1.08-.182.181-.182h3.663c.1 0 .181.082.181.182v2.592c0 .1-.081.181-.181.181H4.49a.181.181 0 01-.181-.181zm0 4.316c0 .1.08.18.181.18h3.663c.1 0 .181-.08.181-.18v-2.593a.18.18 0 00-.181-.18H4.49a.18.18 0 00-.181.18v2.593zm0 8.626c0 .1.08.182.181.182h3.663c.1 0 .181-.081.181-.182v-2.587c0-.1-.081-.182-.181-.182H4.49c-.1 0-.181.082-.181.182v2.587zm0-4.31c0 .1.08.18.181.18h3.663c.1 0 .181-.08.181-.18v-2.593c0-.1-.081-.181-.181-.181H4.49a.18.18 0 00-.181.181v2.592z" fill="#DA4A54"/><path d="M5.028 4.881H3.88a.91.91 0 01-.91-.909V.91A.91.91 0 013.88 0h1.148a.91.91 0 01.91.91v3.062a.91.91 0 01-.91.91zm5.954 0H9.925a.91.91 0 01-.91-.909V.91A.91.91 0 019.926 0h1.057a.91.91 0 01.91.91v3.062a.91.91 0 01-.91.91zm6.045 0H15.97a.91.91 0 01-.91-.909V.91a.91.91 0 01.91-.91h1.057a.91.91 0 01.91.91v3.062a.91.91 0 01-.91.91zm6.047 0h-1.057a.91.91 0 01-.91-.909V.91a.91.91 0 01.91-.909h1.057a.91.91 0 01.909.91v3.062a.91.91 0 01-.91.91zm6.045 0h-1.057a.91.91 0 01-.91-.909V.91a.91.91 0 01.91-.909h1.057a.91.91 0 01.909.91v3.062a.91.91 0 01-.91.91zm6.045 0h-1.058a.91.91 0 01-.909-.909V.91a.91.91 0 01.91-.909h1.057a.91.91 0 01.909.91v3.062a.91.91 0 01-.91.91z" fill="#fff"/><path d="M44.175 1.987h-2.057l-.545 1.44c0 .497-.348 1.454-.348 1.454V7.32h3.863V2.9a.913.913 0 00-.913-.912z" fill="#5490F9"/><path d="M41.209 4.881H40.15a.91.91 0 01-.909-.909V.91a.91.91 0 01.91-.909h1.056a.91.91 0 01.91.91v3.062a.91.91 0 01-.91.91z" fill="#fff"/><path d="M40.744 41.497a7.256 7.256 0 100-14.511 7.256 7.256 0 000 14.511z" fill="#80E29D"/><path d="M41.91 27.079a7.256 7.256 0 01-6.193 12.393A7.256 7.256 0 1041.91 27.08z" fill="#78D090"/><path d="M44.862 32.683l-1.371-1.371a.37.37 0 00-.522 0l-2.653 2.652a.369.369 0 01-.521 0l-1.274-1.273a.369.369 0 00-.522 0l-1.371 1.37a.369.369 0 000 .523l3.167 3.166a.369.369 0 00.521 0l4.546-4.545a.369.369 0 000-.522z" fill="#F6F9F9"/><path d="M44.128 31.95a7.269 7.269 0 01-.232 2.22l.966-.965a.369.369 0 000-.522l-.734-.733z" fill="#E7ECF1"/></svg>