<svg width="18" height="17" fill="none" xmlns="http://www.w3.org/2000/svg"><path fill-rule="evenodd" clip-rule="evenodd" d="M17.346 10.148v6.406h-3.74v-5.985c0-1.497-.514-2.525-1.87-2.525-1.03 0-1.637.701-1.918 1.356-.093.233-.14.56-.14.888v6.266h-3.74s.046-10.147 0-11.176h3.74v1.59s0 .047-.047.047h.047v-.047c.514-.748 1.356-1.87 3.367-1.87 2.431 0 4.301 1.636 4.301 5.05zM2.104 0C.842.001 0 .843 0 1.918c0 1.076.795 1.917 2.057 1.917h.047c1.31 0 2.104-.841 2.104-1.917C4.161.843 3.367.001 2.104.001zM.187 16.554h3.694V5.378H.188v11.176z" fill="#18063C"/></svg>