<svg width="40" height="40" fill="none" xmlns="http://www.w3.org/2000/svg"><g clip-path="url(#clip0_407_10372)"><path d="M39.402 24.837C36.73 35.557 25.868 42.073 15.164 39.4 4.444 36.729-2.073 25.868.599 15.164 3.271 4.444 14.117-2.073 24.837.599c10.705 2.657 17.237 13.518 14.565 24.238z" fill="url(#paint0_linear_407_10372)"/><path d="M29.523 17.508c.39-2.656-1.625-4.094-4.407-5.047l.907-3.61-2.188-.546-.875 3.515a58.516 58.516 0 00-1.766-.406l.875-3.531-2.187-.547-.89 3.594c-.485-.11-.954-.22-1.407-.328v-.016l-3.031-.75-.578 2.344s1.625.375 1.593.39c.891.22 1.047.813 1.016 1.282l-1.031 4.109c.062.016.14.031.234.078-.078-.016-.156-.031-.234-.062l-1.438 5.75c-.11.265-.39.671-1 .515.016.031-1.593-.39-1.593-.39l-1.094 2.515 2.86.719c.53.14 1.046.266 1.562.406l-.907 3.64 2.188.548.906-3.61c.594.157 1.188.313 1.75.453l-.89 3.594 2.187.547.906-3.64c3.75.703 6.563.421 7.735-2.97.953-2.718-.047-4.296-2.016-5.327 1.453-.329 2.531-1.282 2.813-3.22zm-5.016 7.031c-.672 2.719-5.266 1.25-6.75.875l1.203-4.828c1.484.375 6.266 1.11 5.547 3.953zm.687-7.078c-.625 2.484-4.437 1.219-5.671.906l1.093-4.375c1.235.313 5.219.89 4.578 3.469z" fill="#fff"/></g><defs><linearGradient id="paint0_linear_407_10372" x1="19.989" y1="-.009" x2="19.989" y2="39.996" gradientUnits="userSpaceOnUse"><stop stop-color="#F9AA4B"/><stop offset="1" stop-color="#F7931A"/></linearGradient><clipPath id="clip0_407_10372"><path fill="#fff" d="M0 0h40v40H0z"/></clipPath></defs></svg>