<svg width="20" height="20" fill="none" xmlns="http://www.w3.org/2000/svg"><g clip-path="url(#clip0_751_7867)"><path d="M16.931 3.743c-1.275-.575-2.641-1-4.07-1.242a.063.063 0 00-.066.03c-.175.308-.37.709-.507 1.025a15.472 15.472 0 00-4.573 0 10.3 10.3 0 00-.514-1.025.064.064 0 00-.066-.031 16.65 16.65 0 00-4.07 1.242.058.058 0 00-.027.023C.445 7.577-.266 11.295.083 14.967a.067.067 0 00.026.046 16.69 16.69 0 004.994 2.484.066.066 0 00.07-.022 11.53 11.53 0 001.022-1.636.062.062 0 00.002-.051.06.06 0 00-.037-.036 10.998 10.998 0 01-1.56-.731.063.063 0 01-.025-.08.062.062 0 01.019-.025c.105-.077.21-.158.31-.239a.063.063 0 01.065-.008c3.272 1.47 6.816 1.47 10.05 0a.062.062 0 01.066.008c.1.081.205.162.31.24a.064.064 0 01.026.053.062.062 0 01-.03.05c-.499.287-1.017.53-1.561.732a.062.062 0 00-.035.087c.3.572.644 1.117 1.021 1.635a.065.065 0 00.07.023 16.635 16.635 0 005.002-2.484.062.062 0 00.027-.045c.416-4.245-.699-7.933-2.958-11.202a.05.05 0 00-.026-.023zM6.684 12.732c-.985 0-1.798-.891-1.798-1.984s.797-1.983 1.798-1.983c1.008 0 1.813.897 1.797 1.983 0 1.094-.796 1.984-1.797 1.984zm6.646 0c-.986 0-1.798-.891-1.798-1.984s.796-1.983 1.798-1.983c1.008 0 1.813.897 1.797 1.983 0 1.094-.788 1.984-1.797 1.984z" fill="#C8C8D0"/></g><defs><clipPath id="clip0_751_7867"><path fill="#fff" d="M0 0h20v20H0z"/></clipPath></defs></svg>