<svg width="16" height="16" fill="none" xmlns="http://www.w3.org/2000/svg"><circle cx="8" cy="8" r="8" fill="#DAF727"/><g clip-path="url(#clip0_751_12499)"><path d="M10.112 9.146c0-1.192-.84-1.534-1.75-1.727l-.482-.098c-.713-.14-.768-.346-.768-.623 0-.36.324-.574.866-.574.642 0 .807.323.875.565l.006.02a.518.518 0 00.503.337c.06 0 .115-.01.156-.017.25-.05.426-.25.426-.487a.49.49 0 00-.032-.174c-.129-.414-.49-1.065-1.493-1.214v-.71c0-.592-.926-.592-.926 0v.714c-1.077.169-1.473.901-1.473 1.54 0 1.161.809 1.485 1.599 1.648l.521.11c.743.152.874.346.874.696 0 .429-.363.684-.97.684-.789 0-.95-.355-1.057-.753a.508.508 0 00-.508-.363.827.827 0 00-.149.016l-.015.003c-.255.06-.425.26-.425.498 0 .045.008.083.014.114l.008.036c.115.387.367 1.23 1.626 1.42v.742c0 .296.233.451.463.451s.464-.155.464-.45v-.73c1-.131 1.648-.77 1.648-1.674" fill="#5235E8"/></g><defs><clipPath id="clip0_751_12499"><path fill="#fff" transform="translate(4 4)" d="M0 0h8v8H0z"/></clipPath></defs></svg>