<svg width="20" height="20" fill="none" xmlns="http://www.w3.org/2000/svg"><g clip-path="url(#clip0_751_7858)"><path d="M20 10.062C20 4.504 15.523-.002 10-.002 4.477 0-.002 4.504-.002 10.063c0 5.021 3.658 9.184 8.438 9.938v-7.03H5.898v-2.908h2.54V7.844c0-2.521 1.494-3.914 3.777-3.914 1.095 0 2.24.197 2.24.197v2.475h-1.262c-1.241 0-1.629.776-1.629 1.572v1.888h2.773l-.443 2.907h-2.331V20c4.78-.755 8.437-4.917 8.437-9.938z" fill="#C8C8D0"/></g><defs><clipPath id="clip0_751_7858"><path fill="#fff" d="M0 0h20v20H0z"/></clipPath></defs></svg>