<svg width="24" height="24" fill="none" xmlns="http://www.w3.org/2000/svg"><path d="M21 12c0 5.4-3.951 9-8.825 9-3.962 0-7.159-2.102-8.275-5.4M3 12c0-5.4 3.951-9 8.825-9 3.963 0 7.159 2.101 8.275 5.4" stroke="#DAF727" stroke-width="2" stroke-linecap="round" stroke-linejoin="round"/><path d="M7.5 16.5l-3.6-.9-.9 3.6M16.5 7.5l3.6.9.9-3.6" stroke="#DAF727" stroke-width="2" stroke-linecap="round" stroke-linejoin="round"/><path d="M21 12c0 5.4-3.95 9-8.825 9-3.962 0-7.159-2.102-8.275-5.4" stroke="#D6D1FA" stroke-width="2" stroke-linecap="round" stroke-linejoin="round"/><path d="M7.5 16.5l-3.6-.9-.9 3.6" stroke="#D6D1FA" stroke-width="2" stroke-linecap="round" stroke-linejoin="round"/><circle cx="12" cy="12" r="5.833" fill="#DAF727"/><circle cx="12" cy="12" r="4.75" fill="#5235E8" stroke="#fff" stroke-width=".5"/><path d="M12.35 13.605h-.71a.557.557 0 01-.556-.557h-.864c0 .768.595 1.383 1.344 1.42v.73h.863v-.73a1.429 1.429 0 001.344-1.42 1.45 1.45 0 00-1.44-1.44h-.71a.557.557 0 010-1.114h.71c.308 0 .557.25.557.557h.864c0-.768-.595-1.382-1.344-1.42V8.9h-.864v.73a1.429 1.429 0 00-1.344 1.42c0 .787.653 1.44 1.44 1.44h.71a.557.557 0 010 1.114z" fill="#fff"/></svg>