<svg width="164" height="40" fill="none" xmlns="http://www.w3.org/2000/svg"><path d="M50 26.176h10.401v-2.832h-6.966V9.928H50v16.248zm17.448.238c3.697 0 5.998-2.53 5.998-6.283 0-3.777-2.301-6.3-5.998-6.3s-5.998 2.523-5.998 6.3c0 3.753 2.3 6.283 5.998 6.283zm.016-2.618c-1.706 0-2.579-1.563-2.579-3.689 0-2.126.873-3.697 2.579-3.697 1.674 0 2.546 1.57 2.546 3.697 0 2.126-.872 3.69-2.546 3.69zM80.463 31c3.483 0 5.958-1.587 5.958-4.705V13.99h-3.356v2.047h-.127c-.452-.992-1.444-2.205-3.483-2.205-2.673 0-4.934 2.078-4.934 6.227 0 4.054 2.197 5.943 4.942 5.943 1.944 0 3.03-.976 3.475-1.984h.143v2.23c0 1.674-1.071 2.324-2.539 2.324-1.492 0-2.245-.65-2.523-1.388l-3.126.42c.405 1.92 2.285 3.396 5.57 3.396zm.071-7.537c-1.658 0-2.562-1.317-2.562-3.42 0-2.07.888-3.522 2.562-3.522 1.642 0 2.563 1.388 2.563 3.523 0 2.15-.936 3.419-2.563 3.419zm13.412 2.951c3.697 0 5.998-2.53 5.998-6.283 0-3.777-2.3-6.3-5.998-6.3-3.697 0-5.998 2.523-5.998 6.3 0 3.753 2.301 6.283 5.998 6.283zm.016-2.618c-1.706 0-2.579-1.563-2.579-3.689 0-2.126.873-3.697 2.579-3.697 1.674 0 2.547 1.57 2.547 3.697 0 2.126-.873 3.69-2.547 3.69zm7.51 2.38h3.379V13.99h-3.379v12.186zm1.698-13.757c1.007 0 1.832-.77 1.832-1.713 0-.936-.825-1.706-1.832-1.706-1 0-1.825.77-1.825 1.706 0 .944.825 1.713 1.825 1.713zm3.719 18.327h3.379v-6.521h.103c.468 1.015 1.491 2.15 3.459 2.15 2.777 0 4.943-2.198 4.943-6.276 0-4.189-2.262-6.268-4.935-6.268-2.039 0-3.014 1.214-3.467 2.206h-.151V13.99h-3.331v16.756zm3.307-10.663c0-2.174.92-3.562 2.563-3.562 1.675 0 2.563 1.452 2.563 3.562 0 2.127-.905 3.602-2.563 3.602-1.626 0-2.563-1.428-2.563-3.602zm20.3-2.618c-.302-2.245-2.111-3.633-5.189-3.633-3.118 0-5.172 1.443-5.165 3.792-.007 1.825 1.142 3.007 3.523 3.483l2.11.42c1.063.214 1.548.603 1.563 1.214-.015.722-.801 1.238-1.983 1.238-1.207 0-2.007-.516-2.213-1.508l-3.325.175c.318 2.332 2.3 3.768 5.53 3.768 3.157 0 5.418-1.61 5.426-4.014-.008-1.761-1.159-2.816-3.522-3.3l-2.206-.445c-1.134-.246-1.555-.635-1.546-1.222-.009-.73.817-1.206 1.863-1.206 1.175 0 1.873.643 2.039 1.428l3.095-.19zm9.55 3.523c.008 1.634-1.111 2.49-2.325 2.49-1.277 0-2.102-.896-2.11-2.332V13.99h-3.38v7.76c.007 2.848 1.674 4.585 4.125 4.585 1.833 0 3.15-.944 3.698-2.372h.126v2.213h3.245V13.99h-3.379v6.998zm5.412 5.188h3.38v-7.314c0-1.35.857-2.246 1.983-2.246 1.111 0 1.857.762 1.857 1.96v7.6h3.277v-7.441c0-1.262.722-2.119 1.951-2.119 1.079 0 1.888.675 1.888 2.031v7.53h3.372V17.98c0-2.642-1.57-4.15-3.84-4.15-1.785 0-3.173.913-3.673 2.31h-.126c-.389-1.413-1.636-2.31-3.309-2.31-1.643 0-2.888.873-3.396 2.31h-.143v-2.15h-3.221v12.185zM15.46 4h8.01l-3.215 9.584c-5.659 1.06-9.987 6.9-9.987 13.945 0 3.179.881 6.112 2.367 8.471H2l9.723-28.983C12.334 5.195 13.814 4 15.46 4z" fill="#9C9CAB"/><path d="M23.47 4l-2.259 6.735L20.531 4h2.94z" fill="#9C9CAB"/><path d="M28.54 4h-8.01l3.202 9.543c5.771.944 10.217 6.846 10.217 13.986 0 3.179-.88 6.112-2.367 8.471H42L32.278 7.017C31.666 5.195 30.186 4 28.54 4z" fill="#9C9CAB"/><path d="M14.033 35.078c-1.37-2.08-2.185-4.7-2.185-7.549 0-6.757 4.594-12.235 10.261-12.235 5.667 0 10.261 5.478 10.261 12.235 0 2.849-.816 5.47-2.184 7.549-2.247-1.785-5.045-2.843-8.077-2.843s-5.83 1.058-8.076 2.843z" fill="#9C9CAB"/></svg>