<svg width="30" height="22" fill="none" xmlns="http://www.w3.org/2000/svg"><path d="M2.8 19.32c1.28 1.76 3.04 2.64 5.2 2.64 1.76 0 3.28-.48 4.4-1.52 1.12-1.04 1.68-2.32 1.68-3.92s-.48-2.88-1.36-3.76c-.88-.88-2-1.36-3.36-1.36-1.12 0-2 .32-2.64.8-.08-.16-.08-.56-.08-1.04 0-1.6.56-2.96 1.76-4.16 1.12-1.12 2.88-1.76 5.28-1.84V.52c-4 .08-7.2 1.2-9.44 3.28C1.92 5.96.8 8.92.8 12.76c0 2.64.64 4.8 2 6.56zm15.36 0c1.28 1.76 3.04 2.64 5.2 2.64 1.76 0 3.28-.48 4.4-1.52 1.12-1.04 1.68-2.32 1.68-3.92s-.48-2.88-1.36-3.76c-.88-.88-2-1.36-3.36-1.36-1.12 0-2 .32-2.64.8-.08-.16-.08-.56-.08-1.04 0-1.6.56-2.96 1.76-4.16 1.12-1.12 2.88-1.76 5.28-1.84V.52c-4 .08-7.2 1.2-9.44 3.28-2.32 2.16-3.44 5.12-3.44 8.96 0 2.64.64 4.8 2 6.56z" fill="#5235E8"/></svg>