<svg width="148" height="20" fill="none" xmlns="http://www.w3.org/2000/svg"><path d="M10.434 2.096h0l1.296 4.161h0c.124.4.368.752.702 1.006l.453-.598-.453.598a1.93 1.93 0 001.163.393h4.192c.204 0 .366.124.435.347.07.225.01.452-.177.594 0 0 0 0 0 0l-3.389 2.57s0 0 0 0a2.013 2.013 0 00-.703 1.007 2.068 2.068 0 000 1.227h0l1.295 4.161h0a.52.52 0 01-.177.593.402.402 0 01-.518 0s0 0 0 0l-3.39-2.57v-.001a1.926 1.926 0 00-1.164-.393c-.422 0-.83.139-1.165.393h0l-3.39 2.571h0a.4.4 0 01-.516 0 .523.523 0 01-.177-.593l1.295-4.16V13.4a2.07 2.07 0 000-1.227 2.013 2.013 0 00-.704-1.006s0 0 0 0l-3.387-2.57s0 0 0 0a.524.524 0 01-.177-.594c.07-.223.231-.346.435-.346h4.19s0 0 0 0c.421 0 .829-.14 1.164-.393l-.453-.598.453.598c.334-.254.578-.607.703-1.006h0l1.295-4.162.013-.041c.165-.422.718-.406.856.04zm32 0h0l1.296 4.161h0c.125.4.368.752.702 1.006l.453-.598-.453.598a1.93 1.93 0 001.163.393h4.192c.204 0 .366.124.435.347.07.225.01.452-.177.594 0 0 0 0 0 0l-3.389 2.57s0 0 0 0a2.013 2.013 0 00-.703 1.007 2.068 2.068 0 000 1.227h0l1.295 4.161h0a.52.52 0 01-.177.593.402.402 0 01-.518 0s0 0 0 0l-3.39-2.57v-.001a1.926 1.926 0 00-1.164-.393c-.422 0-.83.139-1.165.393h0l-3.39 2.571h0a.4.4 0 01-.516 0 .522.522 0 01-.177-.593l1.295-4.16V13.4a2.07 2.07 0 000-1.227 2.013 2.013 0 00-.704-1.007l-3.387-2.569s0 0 0 0a.524.524 0 01-.177-.594c.07-.223.231-.346.434-.346h4.19s0 0 0 0c.422 0 .83-.14 1.165-.393l-.453-.598.453.598c.334-.254.578-.607.703-1.006h0l1.295-4.162.013-.041c.165-.422.718-.406.856.04zm32 0h0l1.296 4.161h0c.124.4.368.752.702 1.006l.453-.598-.453.598a1.93 1.93 0 001.163.393h4.192c.204 0 .366.124.435.347.07.225.01.452-.177.594 0 0 0 0 0 0l-3.389 2.57s0 0 0 0a2.013 2.013 0 00-.703 1.007 2.068 2.068 0 000 1.227h0l1.295 4.161h0a.52.52 0 01-.177.593.402.402 0 01-.518 0s0 0 0 0l-3.39-2.57v-.001a1.926 1.926 0 00-1.164-.393c-.422 0-.83.139-1.165.393h0l-3.39 2.571h0a.4.4 0 01-.516 0 .522.522 0 01-.177-.593l1.295-4.16V13.4a2.07 2.07 0 000-1.227 2.013 2.013 0 00-.704-1.006s0 0 0 0l-3.388-2.57s0 0 0 0a.524.524 0 01-.176-.594c.07-.223.231-.346.434-.346h4.19s0 0 0 0c.422 0 .83-.14 1.165-.393l-.453-.598.453.598c.334-.254.578-.607.703-1.006h0l1.295-4.162.013-.041c.165-.422.718-.406.856.04zm32 0h0l1.296 4.161h0c.124.4.368.752.702 1.006l.453-.598-.453.598a1.93 1.93 0 001.163.393h4.192c.204 0 .366.124.435.347a.524.524 0 01-.177.594s0 0 0 0l-3.389 2.57s0 0 0 0a2.007 2.007 0 00-.703 1.007 2.07 2.07 0 00-.001 1.227h.001l1.295 4.161h0a.52.52 0 01-.177.593.401.401 0 01-.518 0s0 0 0 0l-3.39-2.57v-.001a1.927 1.927 0 00-1.164-.393c-.422 0-.83.139-1.165.393h0l-3.39 2.571h0a.4.4 0 01-.516 0 .521.521 0 01-.177-.593l1.295-4.16V13.4c.124-.4.124-.828-.001-1.227a2.007 2.007 0 00-.703-1.006s0 0 0 0l-3.388-2.57s0 0 0 0a.524.524 0 01-.176-.594c.07-.223.231-.346.434-.346h4.19s0 0 0 0c.422 0 .83-.14 1.165-.393l-.453-.598.453.598c.334-.254.578-.607.703-1.006h0l1.295-4.162.013-.041c.165-.422.718-.406.856.04zm32 0h0l1.296 4.161h0c.124.4.368.752.702 1.006l.453-.598-.453.598a1.93 1.93 0 001.163.393h4.192c.204 0 .366.124.435.347a.524.524 0 01-.177.594s0 0 0 0l-3.389 2.57s0 0 0 0a2.007 2.007 0 00-.703 1.007 2.07 2.07 0 00-.001 1.227h.001l1.295 4.161h0a.52.52 0 01-.177.593.401.401 0 01-.518 0s0 0 0 0l-3.39-2.57v-.001a1.927 1.927 0 00-1.164-.393c-.422 0-.83.139-1.165.393h0l-3.39 2.571h0a.4.4 0 01-.516 0 .521.521 0 01-.177-.593l1.295-4.16V13.4c.124-.4.124-.828-.001-1.227a2.007 2.007 0 00-.703-1.006s0 0 0 0l-3.387-2.57h-.001a.524.524 0 01-.176-.594c.069-.223.231-.346.435-.346h4.189s0 0 0 0c.422 0 .83-.14 1.165-.393l-.453-.598.453.598c.334-.254.578-.607.703-1.006h0l1.295-4.162.013-.041c.165-.422.718-.406.856.04z" fill="#5235E8" stroke="#5235E8" stroke-width="1.5"/></svg>