<svg width="24" height="24" fill="none" xmlns="http://www.w3.org/2000/svg"><g clip-path="url(#clip0_631_10129)" stroke-width="2" stroke-linecap="round" stroke-linejoin="round"><path d="M18 19c0 .796-.632 1.559-1.757 2.121C15.117 21.684 13.59 22 12 22" stroke="#DAF727"/><path d="M8 15a2 2 0 10-4 0v2a2 2 0 104 0v-2zm12 0a2 2 0 10-4 0v2a2 2 0 104 0v-2z" fill="#D6D1FA" stroke="#5235E8"/><path d="M4 15v-3a8 8 0 1116 0v3" stroke="#5235E8"/></g><defs><clipPath id="clip0_631_10129"><path fill="#fff" d="M0 0h24v24H0z"/></clipPath></defs></svg>