<svg width="40" height="40" fill="none" xmlns="http://www.w3.org/2000/svg"><g clip-path="url(#clip0_407_10388)"><path d="M20 40c11.046 0 20-8.954 20-20S31.046 0 20 0 0 8.954 0 20s8.954 20 20 20z" fill="#767DFF"/><path fill-rule="evenodd" clip-rule="evenodd" d="M17.212 8.125h5.575a1.088 1.088 0 01.949.555l8.632 15.399a1.087 1.087 0 010 1.062l-2.762 4.928a1.088 1.088 0 01-.948.556H11.341a1.087 1.087 0 01-.949-.556L7.631 25.14a1.088 1.088 0 010-1.062L16.263 8.68a1.087 1.087 0 01.949-.555zM20 14.251L14.183 24.61h11.633L20 14.251z" fill="#fff"/></g><defs><clipPath id="clip0_407_10388"><path fill="#fff" d="M0 0h40v40H0z"/></clipPath></defs></svg>