<svg width="225" height="50" fill="none" xmlns="http://www.w3.org/2000/svg"><circle cx="200" cy="25" r="24" fill="#00DCFA" stroke="#0E0637" stroke-width="2"/><path fill-rule="evenodd" clip-rule="evenodd" d="M193.873 18.872c.624-5.78 5.584-10.272 11.424-10.272 6.352.004 11.499 5.152 11.503 11.504 0 5.839-4.491 10.799-10.274 11.424-.604 5.781-5.584 10.272-11.424 10.272-6.352-.004-11.499-5.152-11.502-11.504 0-5.838 4.489-10.799 10.273-11.424zm12.731 10.02a8.948 8.948 0 007.5-7.5h-7.5v7.5zm-20.309.117l.003-.02h7.497v-7.5a8.95 8.95 0 00-7.497 7.5h-.003v.02zm17.615 2.597v-.001.001zm0 0a8.896 8.896 0 01-8.808 7.597 8.895 8.895 0 01-8.807-7.597h17.615zm.099-10.215v7.598h-7.618v-7.598h7.618zm-7.52-2.595h17.615v-.002a8.895 8.895 0 00-8.807-7.597 8.896 8.896 0 00-8.808 7.599z" fill="#fff"/><g clip-path="url(#clip0_407_11208)"><path d="M179 25c0 12.703-10.297 23-23 23s-23-10.297-23-23 10.297-23 23-23 23 10.297 23 23z" fill="#767DFF" stroke="#0E0637" stroke-width="2"/><path fill-rule="evenodd" clip-rule="evenodd" d="M152.655 10.75h6.69a1.305 1.305 0 011.139.666l10.359 18.479a1.305 1.305 0 010 1.274l-3.315 5.914a1.308 1.308 0 01-1.137.667H145.61a1.305 1.305 0 01-1.139-.667l-3.313-5.913a1.296 1.296 0 010-1.276l10.359-18.478a1.3 1.3 0 011.138-.666zM156 18.102l-6.979 12.43h13.959L156 18.102z" fill="#fff"/></g><g clip-path="url(#clip1_407_11208)"><path d="M112 2c12.703 0 23 10.297 23 23s-10.297 23-23 23-23-10.297-23-23S99.297 2 112 2z" fill="#1A82FF" stroke="#0E0637" stroke-width="2"/><path d="M120.774 34.882c-2.078 2.546-5 3.818-8.766 3.818-3.767 0-6.689-1.272-8.768-3.818-2.079-2.546-3.118-5.838-3.117-9.875.001-4.037 1.04-7.329 3.116-9.875 2.078-2.546 5-3.82 8.767-3.819 3.768 0 6.69 1.274 8.767 3.82 2.077 2.545 3.116 5.836 3.117 9.874 0 4.037-1.038 7.33-3.116 9.875z" fill="#fff"/><path d="M111.965 33.378c.991 0 1.834-.27 2.528-.81.695-.54 1.198-1.273 1.509-2.199.311-.925.53-1.813.658-2.662s.192-1.749.191-2.7c0-1.171-.071-2.22-.213-3.145l-8.542 8.902c.79 1.742 2.079 2.613 3.869 2.614zm.084-16.742c-.991 0-1.834.27-2.528.81-.695.54-1.198 1.273-1.509 2.199a15.38 15.38 0 00-.658 2.662 17.987 17.987 0 00-.191 2.7c0 .627.02 1.218.06 1.774l8.148-8.489c-.791-1.104-1.898-1.656-3.322-1.656z" fill="#1A82FF"/><path d="M100.787 33.493l-1.049-1.006 7.956-8.293 1.049 1.006-7.956 8.293zm14.99-8.653l-1.049-1.007 7.956-8.293 1.049 1.007-7.956 8.293z" fill="#1A82FF"/></g><path opacity=".2" d="M68 49c13.255 0 24-10.745 24-24S81.255 1 68 1 44 11.745 44 25s10.745 24 24 24z" fill="#E2BD23"/><path d="M68 49c13.255 0 24-10.745 24-24S81.255 1 68 1 44 11.745 44 25s10.745 24 24 24z" fill="#F0C30B" stroke="#0E0637" stroke-width="2"/><mask id="a" style="mask-type:alpha" maskUnits="userSpaceOnUse" x="44" y="1" width="48" height="48"><path d="M68 49c13.255 0 24-10.745 24-24S81.255 1 68 1 44 11.745 44 25s10.745 24 24 24z" fill="#fff"/></mask><g mask="url(#a)"><path fill-rule="evenodd" clip-rule="evenodd" d="M68.397 15.373h-6.553v8.704h-3.998v2.9h3.998v8.704h6.553c3.458 0 4.204-.362 5.694-1.087l.363-.175c1.753-.841 3.116-2.026 4.088-3.554.972-1.527 1.457-3.307 1.457-5.338 0-2.03-.485-3.81-1.457-5.338-.972-1.528-2.335-2.712-4.088-3.553-1.754-.842-3.773-1.262-6.057-1.262zm-1.684 11.605v4.845h1.443c2.104 0 3.783-.566 5.035-1.697 1.252-1.132 1.879-2.665 1.879-4.599 0-1.934-.626-3.466-1.879-4.598-1.252-1.131-2.93-1.697-5.035-1.697h-1.443v4.845h4.66v2.9h-4.66z" fill="#fff"/></g><g clip-path="url(#clip2_407_11208)"><path d="M18.439 47.31h0C6.11 44.239-1.385 31.749 1.688 19.439h0C4.762 7.11 17.234-.384 29.562 2.689h.002c12.308 3.055 19.821 15.544 16.748 27.873l.97.242-.97-.242C43.239 42.89 30.749 50.384 18.439 47.311z" fill="url(#paint0_linear_407_11208)" stroke="#0E0637" stroke-width="2"/><path d="M35.427 22.01c.469-3.188-1.95-4.913-5.287-6.057l1.087-4.331-2.625-.656-1.05 4.219a69.91 69.91 0 00-2.119-.488l1.05-4.237-2.625-.657-1.068 4.313a117.76 117.76 0 01-1.688-.394v-.019l-3.637-.9-.694 2.813s1.95.45 1.912.468c1.07.263 1.257.976 1.22 1.538l-1.238 4.931c.075.019.168.038.28.094-.093-.019-.187-.037-.28-.075l-1.725 6.9c-.132.319-.47.806-1.2.619.018.037-1.913-.469-1.913-.469l-1.312 3.019 3.43.862c.638.169 1.257.319 1.876.488l-1.088 4.368 2.625.657 1.088-4.331c.712.187 1.425.374 2.1.543l-1.069 4.313 2.625.656 1.088-4.369c4.5.844 7.875.506 9.28-3.562 1.145-3.263-.055-5.156-2.418-6.394 1.744-.394 3.038-1.538 3.375-3.863zm-6.019 8.437c-.806 3.262-6.318 1.5-8.1 1.05l1.444-5.794c1.781.45 7.519 1.332 6.656 4.744zm.825-8.494c-.75 2.982-5.325 1.463-6.806 1.088l1.313-5.25c1.48.375 6.262 1.069 5.493 4.162z" fill="#fff"/></g><defs><clipPath id="clip0_407_11208"><path fill="#fff" transform="translate(132 1)" d="M0 0h48v48H0z"/></clipPath><clipPath id="clip1_407_11208"><path fill="#fff" transform="translate(88 1)" d="M0 0h48v48H0z"/></clipPath><clipPath id="clip2_407_11208"><path fill="#fff" transform="translate(0 1)" d="M0 0h48v48H0z"/></clipPath><linearGradient id="paint0_linear_407_11208" x1="23.987" y1=".988" x2="23.987" y2="48.995" gradientUnits="userSpaceOnUse"><stop stop-color="#F9AA4B"/><stop offset="1" stop-color="#F7931A"/></linearGradient></defs></svg>