<svg width="24" height="24" fill="none" xmlns="http://www.w3.org/2000/svg"><rect x="4" y="4" width="14" height="16" rx="2" fill="#5235E8"/><g clip-path="url(#clip0_631_10108)" stroke-width="1.5" stroke-linecap="round" stroke-linejoin="round"><path d="M7 8h8m-8 3h7" stroke="#D6D1FA"/><path d="M7 14h4" stroke="#DAF727"/></g><g clip-path="url(#clip1_631_10108)"><path d="M21.244 10.756a.875.875 0 00-1.238 0l-.385.386 1.237 1.237.386-.385a.875.875 0 000-1.238zm-.74 1.977l-1.237-1.237-4.05 4.05a1.75 1.75 0 00-.44.738l-.267.895a.25.25 0 00.311.31l.895-.266a1.75 1.75 0 00.738-.44l4.05-4.05z" fill="#DAF727"/></g><defs><clipPath id="clip0_631_10108"><path fill="#fff" transform="translate(6 6)" d="M0 0h10v10H0z"/></clipPath><clipPath id="clip1_631_10108"><path fill="#fff" transform="translate(14 10)" d="M0 0h8v8H0z"/></clipPath></defs></svg>