<svg width="160" height="32" fill="none" xmlns="http://www.w3.org/2000/svg"><path d="M16 4c4.347 0 8.256 1.009 11.06 2.613 2.823 1.614 4.419 3.758 4.419 6s-1.596 4.386-4.418 6c-2.805 1.604-6.714 2.613-11.061 2.613-4.347 0-8.256-1.009-11.06-2.613-2.824-1.613-4.42-3.758-4.42-6s1.596-4.386 4.418-6C7.744 5.009 11.653 4 16 4z" fill="url(#paint0_linear_631_12076)" stroke="url(#paint1_linear_631_12076)"/><path fill-rule="evenodd" clip-rule="evenodd" d="M.003 15.664H0v2.99c0 1.228.414 2.443 1.218 3.577s1.983 2.164 3.468 3.032c1.486.867 3.25 1.556 5.191 2.026A26.2 26.2 0 0016 28a26.2 26.2 0 006.123-.711c1.941-.47 3.705-1.159 5.19-2.026 1.486-.868 2.665-1.898 3.47-3.032.803-1.134 1.217-2.35 1.217-3.577v-2.99h-.003C31.827 20.739 24.73 24.42 16 24.42S.174 20.739.003 15.664z" fill="#DAF727"/><g opacity=".8" filter="url(#filter0_f_631_12076)"><path d="M14.886 17.145l.423.91c.046.101.17.166.276.146l.77-.148a.151.151 0 00.111-.079.16.16 0 00-.003-.14l-.423-.91.385-.073.422.91c.047.1.171.166.277.145l.77-.147a.151.151 0 00.111-.08.16.16 0 00-.003-.139l-.422-.91.064-.012c1.533-.294 2.28-1.255 1.676-2.557a2.48 2.48 0 00-2.507-1.455l-.03-.065c.665-.319.966-.957.555-1.842-.517-1.116-1.716-1.624-3.067-1.366l-.07.014-.423-.91a.262.262 0 00-.116-.119.25.25 0 00-.16-.027l-.77.147a.152.152 0 00-.112.08.16.16 0 00.004.139l.422.91-.44.085-.423-.91a.262.262 0 00-.116-.119.25.25 0 00-.161-.027l-.713.136a.151.151 0 00-.112.08.16.16 0 00.004.14l.422.91-1.534.302a.151.151 0 00-.111.079.16.16 0 00.003.14l.335.72c.046.1.169.166.275.146l.58-.115a.753.753 0 01.48.083.79.79 0 01.346.353l1.86 4.01a.48.48 0 01.01.418.455.455 0 01-.334.238l-.572.119a.151.151 0 00-.11.079.16.16 0 00.003.14l.338.728c.046.1.17.165.276.145l1.534-.302zm-1.778-6.41l1.322-.253c.698-.134 1.275.15 1.55.744.295.634.018 1.076-.984 1.268l-.985.188-.903-1.947zm1.368 2.95l1.416-.27c.875-.168 1.548.164 1.867.851.322.694.008 1.148-1.17 1.374l-1.107.211-1.005-2.165z" fill="#5235E8" fill-opacity=".64"/></g><path d="M11.382 10.253h0l.58-.115a.642.642 0 01.408.071.67.67 0 01.295.301l1.86 4.01a.41.41 0 01.009.356.387.387 0 01-.284.203h-.002l-.57.118s0 0 0 0a.219.219 0 00-.161.115.232.232 0 00.005.201l.338.728c.067.146.246.24.4.21h0l1.448-.285.385.83a.387.387 0 00.4.209l.77-.147a.219.219 0 00.16-.115.232.232 0 00-.005-.201l-.385-.83.214-.04.385.829c.067.145.246.24.4.21l.77-.148a.219.219 0 00.16-.114.232.232 0 00-.005-.202l-.385-.83c.77-.15 1.351-.47 1.664-.923.316-.46.352-1.052.04-1.726a2.61 2.61 0 00-1.14-1.223 2.633 2.633 0 00-1.238-.31c.25-.16.434-.375.526-.64.114-.33.083-.73-.13-1.19a2.501 2.501 0 00-1.281-1.254c-.556-.244-1.21-.306-1.895-.178l-.385-.83a.377.377 0 00-.167-.17.362.362 0 00-.233-.04l-.77.147a.219.219 0 00-.16.115.232.232 0 00.005.202l.385.83-.27.05-.385-.829a.377.377 0 00-.168-.17.362.362 0 00-.232-.04l-.713.137a.22.22 0 00-.161.114.232.232 0 00.005.202l.385.83-1.448.285.037.081-.038-.08h0a.219.219 0 00-.16.114.232.232 0 00.005.201l.334.72c.066.144.244.24.398.21zm3.547 1.255L14.1 9.723l1.238-.237c.333-.064.627-.026.865.09.237.114.433.311.562.59.138.297.138.538-.002.729-.144.194-.442.347-.935.441l-.9.172zm.54 1.165l1.33-.254c.425-.081.787-.04 1.076.095.287.134.517.366.668.692.152.327.15.584-.017.789-.17.21-.522.376-1.106.487l-1.02.195-.93-2.004z" fill="#fff" stroke="#8D79F1" stroke-width=".25"/><path d="M49.678 26c1.388 0 2.628-.234 3.72-.702 1.11-.468 2.047-1.084 2.81-1.847.764-.78 1.31-1.63 1.64-2.549l-3.175-1.482a5.438 5.438 0 01-1.873 2.419c-.85.624-1.89.936-3.122.936-1.214 0-2.28-.286-3.2-.858-.919-.572-1.639-1.361-2.16-2.367-.52-1.023-.78-2.21-.78-3.563 0-1.352.26-2.531.78-3.537.521-1.023 1.241-1.812 2.16-2.367.92-.572 1.986-.858 3.2-.858 1.232 0 2.272.32 3.122.962a5.275 5.275 0 011.873 2.393l3.174-1.482c-.33-.92-.875-1.76-1.639-2.523-.763-.78-1.7-1.405-2.81-1.873C52.307 6.234 51.067 6 49.679 6c-1.387 0-2.67.251-3.85.754a8.92 8.92 0 00-3.07 2.08c-.867.885-1.544 1.943-2.03 3.174-.485 1.214-.728 2.54-.728 3.979s.243 2.774.728 4.005a9.75 9.75 0 002.03 3.173 9.235 9.235 0 003.07 2.107c1.18.485 2.463.728 3.85.728zm16.817 0c1.37 0 2.62-.312 3.747-.936a7.415 7.415 0 002.706-2.627c.676-1.127 1.014-2.401 1.014-3.823 0-1.422-.338-2.688-1.014-3.797a7.214 7.214 0 00-2.68-2.627c-1.128-.642-2.385-.962-3.773-.962-1.404 0-2.67.32-3.798.962a7.413 7.413 0 00-2.706 2.627c-.659 1.11-.989 2.375-.989 3.797 0 1.422.33 2.687.99 3.797a7.414 7.414 0 002.705 2.627c1.145.641 2.41.962 3.798.962zm0-3.12c-.763 0-1.448-.183-2.055-.547a3.93 3.93 0 01-1.405-1.509c-.33-.658-.494-1.395-.494-2.21s.165-1.543.494-2.185a3.93 3.93 0 011.405-1.508c.607-.382 1.292-.572 2.055-.572.763 0 1.431.19 2.004.572.59.364 1.049.867 1.379 1.508.346.642.52 1.37.52 2.185s-.174 1.552-.52 2.21a3.742 3.742 0 01-1.38 1.509c-.572.364-1.24.546-2.003.546zm9.447-12.927h3.408v-3.64h-3.408v3.64zm0 15.735h3.408V11.54h-3.408v14.148zm5.95 0H85.3V17.39c0-.918.26-1.655.78-2.21.538-.555 1.232-.832 2.082-.832.85 0 1.535.277 2.055.832.538.537.807 1.274.807 2.21v8.297h3.408v-9.103c0-1.058-.226-1.985-.677-2.783a4.764 4.764 0 00-1.899-1.898c-.798-.451-1.717-.676-2.758-.676-.884 0-1.682.173-2.393.52a3.725 3.725 0 00-1.613 1.534V11.54h-3.2v14.148zm22.544.312c1.37 0 2.593-.32 3.668-.962a7.206 7.206 0 002.55-2.653c.624-1.127.936-2.384.936-3.771s-.312-2.636-.936-3.745a6.953 6.953 0 00-2.55-2.653c-1.075-.659-2.289-.988-3.642-.988-1.839 0-3.287.58-4.345 1.742V6h-3.408v19.688h3.2V24.1a5.182 5.182 0 001.951 1.405 6.67 6.67 0 002.576.494zm-.391-3.12a3.87 3.87 0 01-2.029-.547 3.928 3.928 0 01-1.405-1.509c-.329-.641-.494-1.378-.494-2.21 0-.832.165-1.57.494-2.21a3.928 3.928 0 011.405-1.51 3.87 3.87 0 012.029-.546c.781 0 1.466.191 2.056.573a3.868 3.868 0 011.431 1.508c.347.642.52 1.37.52 2.185s-.173 1.552-.52 2.21a3.867 3.867 0 01-1.431 1.509c-.59.364-1.275.546-2.056.546zM117.876 26c1.839 0 3.313-.607 4.423-1.82v1.508h3.226v-9.415c0-.988-.251-1.864-.754-2.627-.503-.763-1.197-1.352-2.082-1.768-.867-.434-1.881-.65-3.043-.65-1.423 0-2.689.338-3.799 1.014-1.11.676-1.873 1.569-2.289 2.679l2.783 1.352a3.347 3.347 0 011.223-1.534c.555-.4 1.206-.599 1.951-.599.781 0 1.405.208 1.874.625.485.398.728.901.728 1.508v.468l-4.215.676c-1.665.278-2.896.807-3.694 1.587-.798.78-1.197 1.76-1.197 2.939 0 1.248.443 2.236 1.327 2.965.885.728 2.064 1.092 3.538 1.092zm-1.327-4.187c0-.989.668-1.613 2.004-1.873l3.564-.598v.572c0 .971-.338 1.795-1.015 2.47-.659.677-1.526 1.015-2.601 1.015-.573 0-1.041-.138-1.405-.416-.364-.295-.547-.685-.547-1.17zm11.521 3.875h3.409V17.39c0-.918.26-1.655.78-2.21.538-.555 1.232-.832 2.081-.832.85 0 1.535.277 2.056.832.537.537.806 1.274.806 2.21v8.297h3.408v-9.103c0-1.058-.225-1.985-.676-2.783a4.765 4.765 0 00-1.899-1.898c-.798-.451-1.717-.676-2.758-.676-.885 0-1.682.173-2.394.52a3.732 3.732 0 00-1.613 1.534V11.54h-3.2v14.148zm14.817 0h3.409V21.37l1.821-1.977 3.98 6.294H156l-5.334-8.453 5.23-5.695h-4.241l-5.359 5.617V6h-3.409v19.688z" fill="#0E0637"/><defs><linearGradient id="paint0_linear_631_12076" x1="32.466" y1="4.651" x2="-.36" y2="16.264" gradientUnits="userSpaceOnUse"><stop stop-color="#5235E8"/><stop offset="1" stop-color="#816CEF"/></linearGradient><linearGradient id="paint1_linear_631_12076" x1="7.156" y1="3.462" x2="27.547" y2="18.089" gradientUnits="userSpaceOnUse"><stop stop-color="#B0A3F5"/><stop offset="1" stop-color="#917FF1"/></linearGradient><filter id="filter0_f_631_12076" x="5.848" y="4.287" width="17.682" height="17.917" filterUnits="userSpaceOnUse" color-interpolation-filters="sRGB"><feFlood flood-opacity="0" result="BackgroundImageFix"/><feBlend in="SourceGraphic" in2="BackgroundImageFix" result="shape"/><feGaussianBlur stdDeviation="2" result="effect1_foregroundBlur_631_12076"/></filter></defs></svg>