<svg width="320" height="336" fill="none" xmlns="http://www.w3.org/2000/svg"><g clip-path="url(#clip0_751_7603)"><rect width="320" height="692.907" rx="40" fill="#fff"/><rect x="-459" y="27" width="904" height="382" rx="8" fill="#fff"/><path d="M51.208 67.096a14.71 14.71 0 00-2.808-.768c-1.08-.192-1.896-.36-2.472-.528-.576-.144-1.056-.384-1.392-.72-.336-.312-.504-.744-.504-1.296 0-.768.288-1.344.864-1.776.576-.432 1.368-.648 2.352-.648 1.008 0 1.824.264 2.496.792.648.528 1.032 1.224 1.128 2.088h2.712c-.072-1.296-.552-2.424-1.44-3.336-.888-.912-2.064-1.512-3.504-1.752v-2.544h-2.328v2.472c-1.536.192-2.76.72-3.672 1.608-.912.888-1.368 1.992-1.368 3.288 0 1.056.24 1.896.72 2.52.48.648 1.128 1.128 1.896 1.44.768.312 1.704.552 2.808.744 1.056.192 1.896.384 2.496.552.576.192 1.056.432 1.392.768.336.336.528.768.528 1.32 0 .792-.336 1.416-.96 1.848-.624.432-1.464.648-2.472.648-1.176 0-2.136-.288-2.856-.888-.72-.6-1.128-1.392-1.2-2.4l-2.712-.048c.024 1.488.528 2.712 1.488 3.72s2.28 1.632 3.912 1.848v2.52h2.328v-2.472c1.008-.096 1.92-.384 2.712-.864.792-.48 1.416-1.08 1.848-1.8.432-.72.672-1.536.672-2.448 0-1.008-.264-1.848-.744-2.472-.504-.624-1.152-1.08-1.92-1.416zm4.686 3.768c.24.984.576 1.848 1.056 2.568a5.801 5.801 0 002.16 2.016c.864.48 1.872.696 3.024.696s2.208-.24 3.12-.72c.912-.48 1.632-1.152 2.136-2.016.504-.864.768-1.824.768-2.928 0-1.104-.24-2.088-.72-2.952a4.973 4.973 0 00-1.992-1.992c-.864-.48-1.848-.72-2.952-.72-1.008 0-1.872.216-2.64.648a4.187 4.187 0 00-1.704 1.776.978.978 0 00-.144.264c-.024.072-.048.12-.048.144V67c0-1.752.336-3.144 1.056-4.176.696-1.032 1.68-1.56 2.952-1.56.864 0 1.584.24 2.16.672.576.456.936 1.08 1.128 1.872h2.64c-.216-1.464-.84-2.616-1.872-3.48-1.032-.84-2.328-1.272-3.864-1.272-1.392 0-2.568.36-3.552 1.032-1.008.696-1.752 1.68-2.28 2.976-.528 1.296-.792 2.856-.792 4.656 0 1.128.12 2.184.36 3.144zm8.712-2.88c.6.648.912 1.488.912 2.496 0 1.032-.312 1.872-.936 2.52-.624.648-1.464.96-2.472.96s-1.824-.312-2.448-.96c-.624-.624-.936-1.464-.936-2.496s.312-1.872.96-2.52c.624-.648 1.464-.984 2.496-.984 1.008 0 1.8.336 2.424.984zm11.624.384l-6.456 5.496V76h11.904v-2.328h-8.112l4.464-3.72c1.176-.984 2.064-1.896 2.664-2.76.576-.864.888-1.848.888-3 0-1.56-.528-2.808-1.56-3.744-1.056-.936-2.496-1.416-4.368-1.416-1.176 0-2.208.24-3.072.72a5.264 5.264 0 00-2.064 1.968c-.48.84-.72 1.776-.72 2.832v.456h2.664v-.312c0-1.008.288-1.824.864-2.448.576-.624 1.368-.936 2.328-.936.984 0 1.776.264 2.352.792.576.528.864 1.272.864 2.208 0 .744-.24 1.416-.672 2.04-.432.624-1.104 1.296-1.968 2.016zm6.252-9.168v2.328h9.144L83.802 76h2.88l7.872-15.024V59.2H82.482zm24.537 9.456c-.696-.72-1.584-1.176-2.64-1.392a4.095 4.095 0 002.28-1.32c.6-.672.912-1.488.912-2.448 0-.864-.24-1.656-.696-2.328-.48-.672-1.152-1.176-2.016-1.56-.864-.384-1.896-.576-3.048-.576-1.176 0-2.208.192-3.072.576-.864.384-1.536.888-1.992 1.56-.48.672-.696 1.464-.696 2.328 0 .984.288 1.8.888 2.472.576.672 1.32 1.104 2.232 1.296-1.056.24-1.92.696-2.592 1.416-.672.72-1.008 1.656-1.008 2.784 0 .912.24 1.728.744 2.448.48.72 1.2 1.272 2.136 1.656.936.384 2.064.576 3.36.576 1.296 0 2.4-.192 3.336-.576.936-.384 1.656-.936 2.16-1.656.48-.72.744-1.536.744-2.448 0-1.152-.36-2.088-1.032-2.808zm-7.488-6.888c.576-.48 1.344-.72 2.28-.72.912 0 1.68.24 2.256.72.576.48.888 1.08.888 1.8 0 .744-.312 1.344-.888 1.824-.576.48-1.344.696-2.256.696-.936 0-1.704-.216-2.28-.696-.6-.456-.888-1.056-.888-1.824 0-.72.288-1.32.888-1.8zm4.848 11.592c-.672.528-1.536.792-2.568.792-1.056 0-1.92-.264-2.592-.792-.672-.528-1.008-1.2-1.008-2.04 0-.816.336-1.488 1.008-2.04.672-.552 1.536-.84 2.592-.84 1.008 0 1.872.288 2.544.84.672.552 1.032 1.224 1.032 2.04 0 .84-.336 1.512-1.008 2.04zm5.472-.024c-.312.312-.456.696-.456 1.176s.144.888.456 1.176c.312.312.72.456 1.2.456s.864-.144 1.2-.456c.312-.288.48-.696.48-1.176s-.168-.864-.48-1.176a1.774 1.774 0 00-1.2-.456c-.48 0-.888.168-1.2.456zm8.645-14.136h-2.592v1.848c0 .48-.12.84-.312 1.128-.216.288-.528.432-.912.432h-2.64v2.256h2.76c.456 0 .816-.072 1.056-.216V76h2.64V59.2zm13.866 9.456c-.696-.672-1.56-1.128-2.592-1.344.984-.216 1.776-.648 2.352-1.296.576-.648.888-1.488.888-2.496 0-.864-.24-1.656-.72-2.328-.48-.672-1.152-1.2-2.04-1.584-.888-.36-1.944-.552-3.144-.552-1.776 0-3.168.456-4.224 1.344-1.056.912-1.608 2.136-1.608 3.672h2.616c0-.864.312-1.536.936-2.04.624-.504 1.416-.768 2.376-.768.912 0 1.656.24 2.232.672.576.432.864 1.032.864 1.776 0 .816-.312 1.44-.888 1.92-.576.48-1.416.72-2.52.72h-1.368v2.208h1.536c1.152 0 2.064.24 2.688.696.624.456.96 1.08.96 1.872 0 .864-.336 1.536-.984 2.04-.648.528-1.464.768-2.448.768-1.128 0-2.04-.288-2.712-.888-.696-.576-1.056-1.392-1.056-2.424h-2.664c0 1.728.552 3.072 1.68 4.056s2.664 1.464 4.584 1.464c1.248 0 2.352-.192 3.312-.6.96-.384 1.68-.96 2.208-1.68.528-.72.792-1.584.792-2.544 0-1.104-.36-1.992-1.056-2.664z" fill="#131316"/><path d="M41.088 103h6.496v-1.28H42.48V91.8h-1.392V103zm15.332-1.2h-.4c-.367 0-.544-.192-.544-.592v-3.52c0-.944-.288-1.664-.864-2.176-.576-.512-1.376-.768-2.416-.768-.991 0-1.791.224-2.4.672-.608.448-.96 1.072-1.056 1.872h1.313c.08-.416.303-.736.672-.992.367-.256.831-.384 1.407-.384.64 0 1.137.16 1.489.448.351.304.543.72.543 1.248v.56h-2.4c-1.072 0-1.888.224-2.448.656-.56.448-.832 1.072-.832 1.888 0 .736.273 1.328.816 1.744.544.432 1.28.64 2.193.64 1.183 0 2.096-.448 2.735-1.36 0 .416.128.736.352.944.224.224.593.32 1.12.32h.72v-1.2zm-2.256-2.528v.4c0 .704-.24 1.264-.688 1.68-.463.416-1.087.624-1.887.624-.544 0-.977-.112-1.297-.368a1.15 1.15 0 01-.48-.976c0-.896.608-1.36 1.825-1.36h2.527zm4.37 1.04H57.22c0 .88.336 1.568.976 2.048.64.496 1.504.736 2.576.736.592 0 1.136-.096 1.632-.304.48-.192.88-.48 1.168-.864.288-.368.432-.8.432-1.296 0-.56-.144-1.008-.432-1.344a2.612 2.612 0 00-1.12-.72c-.464-.144-1.056-.256-1.76-.352-.512-.064-.896-.112-1.152-.176a1.102 1.102 0 01-.608-.304c-.16-.144-.24-.352-.24-.64 0-.368.16-.672.512-.896.336-.224.784-.352 1.344-.352.544 0 .992.144 1.36.416.352.288.56.64.624 1.056h1.312c-.064-.832-.4-1.472-1.008-1.92-.608-.448-1.376-.672-2.336-.672-.592 0-1.12.112-1.584.32-.48.208-.848.496-1.12.864-.272.384-.4.8-.4 1.28 0 .544.128.96.416 1.264.272.304.64.528 1.088.656.448.144 1.024.256 1.728.336.496.064.88.128 1.152.192.272.064.496.192.672.352.16.176.256.416.256.736 0 .384-.192.688-.544.912-.352.224-.816.336-1.392.336-.656 0-1.184-.144-1.6-.464a1.474 1.474 0 01-.64-1.2zm7.584-4.272v4.832c0 .736.16 1.28.48 1.616.32.352.88.512 1.648.512h1.504v-1.2h-1.424c-.336 0-.576-.064-.704-.208-.129-.144-.192-.384-.192-.736V96.04h2.063v-1.2H67.43v-2.288h-1.313v2.288h-1.472v1.2h1.473zm15.04-.8a4.18 4.18 0 00-2.016-.496c-1.184 0-2.128.48-2.8 1.408l-.176-1.312H75.03v11.36h1.312v-4.448c.256.416.624.752 1.104.992.464.24 1.024.352 1.696.352.736 0 1.408-.176 2.016-.528a3.635 3.635 0 001.392-1.472c.336-.624.512-1.344.512-2.176 0-.864-.176-1.6-.512-2.24a3.552 3.552 0 00-1.392-1.44zm-.192 5.856c-.496.56-1.152.832-1.952.832-.528 0-.992-.128-1.408-.384a2.468 2.468 0 01-.944-1.072c-.224-.464-.336-.992-.336-1.584 0-.576.112-1.088.336-1.536.224-.448.528-.8.944-1.056.416-.256.88-.384 1.408-.384.8 0 1.456.288 1.952.848s.752 1.28.752 2.16c0 .896-.256 1.616-.752 2.176zm7.82-6.256h-.368c-.672 0-1.184.112-1.552.336a2.576 2.576 0 00-.912.896l-.176-1.232h-1.136V103h1.312v-4.16c0-.768.16-1.408.496-1.936.336-.512.896-.784 1.68-.784h.656v-1.28zm2.543-2.912a.832.832 0 00-.608-.24.807.807 0 00-.608.24.832.832 0 00-.24.608c0 .256.08.448.24.608.16.16.352.24.608.24.24 0 .448-.08.608-.24.16-.16.24-.352.24-.608 0-.24-.08-.448-.24-.608zm-1.264 2.912V103h1.312v-8.16h-1.312zm9.27 7.488c.624-.512 1.024-1.232 1.2-2.144h-1.312c-.128.544-.384.976-.784 1.28-.416.32-.912.464-1.504.464-.784 0-1.424-.272-1.904-.832-.48-.56-.72-1.296-.72-2.192 0-.88.24-1.6.72-2.16.48-.544 1.12-.832 1.904-.832.576 0 1.056.16 1.472.464.4.32.672.736.8 1.248h1.328c-.16-.896-.56-1.6-1.184-2.112-.624-.512-1.408-.768-2.368-.768-.8 0-1.488.176-2.096.528a3.667 3.667 0 00-1.424 1.456c-.336.64-.496 1.36-.496 2.176 0 .832.16 1.552.496 2.192.32.64.784 1.12 1.392 1.472.592.352 1.28.528 2.08.528.96 0 1.76-.256 2.4-.768zm2.817-5.6c-.32.64-.48 1.36-.48 2.192 0 .832.16 1.552.496 2.192.336.64.816 1.12 1.424 1.472.608.352 1.312.512 2.128.512.928 0 1.712-.256 2.352-.784a3.414 3.414 0 001.2-2.048h-1.328c-.144.528-.416.944-.832 1.232-.416.288-.912.432-1.488.432-.768 0-1.376-.24-1.84-.72-.48-.48-.72-1.12-.736-1.92v-.112h6.336c.016-.256.032-.432.032-.56-.032-.784-.208-1.472-.528-2.064a3.54 3.54 0 00-1.36-1.344c-.576-.304-1.248-.464-1.984-.464-.768 0-1.44.176-2.016.528a3.551 3.551 0 00-1.376 1.456zm5.904 1.36h-4.928c.064-.64.32-1.168.8-1.584a2.428 2.428 0 011.632-.608c.688 0 1.264.192 1.712.576.448.384.72.928.784 1.616z" fill="#717184"/><path d="M182.456 68.656c-.696-.672-1.56-1.128-2.592-1.344.984-.216 1.776-.648 2.352-1.296.576-.648.888-1.488.888-2.496 0-.864-.24-1.656-.72-2.328-.48-.672-1.152-1.2-2.04-1.584-.888-.36-1.944-.552-3.144-.552-1.776 0-3.168.456-4.224 1.344-1.056.912-1.608 2.136-1.608 3.672h2.616c0-.864.312-1.536.936-2.04.624-.504 1.416-.768 2.376-.768.912 0 1.656.24 2.232.672.576.432.864 1.032.864 1.776 0 .816-.312 1.44-.888 1.92-.576.48-1.416.72-2.52.72h-1.368v2.208h1.536c1.152 0 2.064.24 2.688.696.624.456.96 1.08.96 1.872 0 .864-.336 1.536-.984 2.04-.648.528-1.464.768-2.448.768-1.128 0-2.04-.288-2.712-.888-.696-.576-1.056-1.392-1.056-2.424h-2.664c0 1.728.552 3.072 1.68 4.056s2.664 1.464 4.584 1.464c1.248 0 2.352-.192 3.312-.6.96-.384 1.68-.96 2.208-1.68.528-.72.792-1.584.792-2.544 0-1.104-.36-1.992-1.056-2.664zm14.291 0c-.696-.72-1.584-1.176-2.64-1.392a4.095 4.095 0 002.28-1.32c.6-.672.912-1.488.912-2.448 0-.864-.24-1.656-.696-2.328-.48-.672-1.152-1.176-2.016-1.56-.864-.384-1.896-.576-3.048-.576-1.176 0-2.208.192-3.072.576-.864.384-1.536.888-1.992 1.56-.48.672-.696 1.464-.696 2.328 0 .984.288 1.8.888 2.472.576.672 1.32 1.104 2.232 1.296-1.056.24-1.92.696-2.592 1.416-.672.72-1.008 1.656-1.008 2.784 0 .912.24 1.728.744 2.448.48.72 1.2 1.272 2.136 1.656.936.384 2.064.576 3.36.576 1.296 0 2.4-.192 3.336-.576.936-.384 1.656-.936 2.16-1.656.48-.72.744-1.536.744-2.448 0-1.152-.36-2.088-1.032-2.808zm-7.488-6.888c.576-.48 1.344-.72 2.28-.72.912 0 1.68.24 2.256.72.576.48.888 1.08.888 1.8 0 .744-.312 1.344-.888 1.824-.576.48-1.344.696-2.256.696-.936 0-1.704-.216-2.28-.696-.6-.456-.888-1.056-.888-1.824 0-.72.288-1.32.888-1.8zm4.848 11.592c-.672.528-1.536.792-2.568.792-1.056 0-1.92-.264-2.592-.792-.672-.528-1.008-1.2-1.008-2.04 0-.816.336-1.488 1.008-2.04.672-.552 1.536-.84 2.592-.84 1.008 0 1.872.288 2.544.84.672.552 1.032 1.224 1.032 2.04 0 .84-.336 1.512-1.008 2.04zm5.471-.024c-.312.312-.456.696-.456 1.176s.144.888.456 1.176c.312.312.72.456 1.2.456s.864-.144 1.2-.456c.312-.288.48-.696.48-1.176s-.168-.864-.48-1.176a1.774 1.774 0 00-1.2-.456c-.48 0-.888.168-1.2.456zm10.935-4.968l-6.456 5.496V76h11.904v-2.328h-8.112l4.464-3.72c1.176-.984 2.064-1.896 2.664-2.76.576-.864.888-1.848.888-3 0-1.56-.528-2.808-1.56-3.744-1.056-.936-2.496-1.416-4.368-1.416-1.176 0-2.208.24-3.072.72a5.264 5.264 0 00-2.064 1.968c-.48.84-.72 1.776-.72 2.832v.456h2.664v-.312c0-1.008.288-1.824.864-2.448.576-.624 1.368-.936 2.328-.936.984 0 1.776.264 2.352.792.576.528.864 1.272.864 2.208 0 .744-.24 1.416-.672 2.04-.432.624-1.104 1.296-1.968 2.016zm16.832-2.976c-.84-.48-1.776-.72-2.832-.72-.744 0-1.44.144-2.112.384a4.218 4.218 0 00-1.728 1.152l.312-4.68h8.016V59.2h-10.464l-.504 9.672 2.568.048c.264-.768.72-1.296 1.392-1.608.648-.288 1.32-.456 1.992-.456 1.008 0 1.824.336 2.448.984.624.672.936 1.512.936 2.52 0 .768-.168 1.392-.48 1.92-.336.528-.744.936-1.272 1.2a3.385 3.385 0 01-1.656.408c-1.008 0-1.824-.288-2.472-.912-.672-.6-1.032-1.368-1.128-2.28h-2.64c.048 1.008.336 1.944.864 2.76.504.816 1.224 1.464 2.136 1.944.912.48 1.992.72 3.24.72 1.104 0 2.136-.216 3.072-.672a5.294 5.294 0 002.208-1.968c.528-.864.816-1.896.816-3.12 0-1.104-.24-2.088-.72-2.952a5.189 5.189 0 00-1.992-2.016zm16.888-6.192h-6.168V76h6.384c1.992 0 3.528-.408 4.608-1.248 1.08-.816 1.632-1.968 1.632-3.432 0-2.208-1.272-3.528-3.768-3.96 1.008-.216 1.776-.648 2.304-1.296.528-.648.816-1.488.816-2.496 0-1.368-.528-2.448-1.536-3.216-1.008-.768-2.448-1.152-4.272-1.152zm-3.408 7.128v-4.824h3.48c.936 0 1.656.216 2.184.648.528.432.792 1.008.792 1.752 0 .768-.264 1.344-.792 1.776-.528.432-1.248.648-2.184.648h-3.48zm0 7.344v-5.064h3.648c1.056 0 1.896.24 2.496.672.576.456.888 1.08.888 1.896 0 .792-.312 1.416-.888 1.848-.576.432-1.416.648-2.496.648h-3.648zm9.962-14.472v2.448h5.184V76h2.76V61.648h5.184V59.2h-13.128zm14.087 3.936c-.672 1.296-.984 2.784-.984 4.464 0 1.728.312 3.216.984 4.512.672 1.296 1.608 2.28 2.832 2.976 1.224.72 2.664 1.056 4.296 1.056 1.272 0 2.424-.24 3.432-.72s1.824-1.152 2.448-2.04c.624-.864 1.032-1.896 1.224-3.096h-2.76c-.288 1.08-.816 1.92-1.584 2.52-.768.624-1.728.912-2.88.912-1.056 0-1.968-.24-2.736-.768-.792-.528-1.392-1.248-1.8-2.184-.432-.912-.624-1.968-.624-3.168 0-1.2.192-2.256.624-3.168.408-.912 1.008-1.632 1.8-2.16.768-.528 1.68-.792 2.736-.792 1.152 0 2.112.312 2.904.912.768.624 1.296 1.464 1.584 2.52h2.76c-.192-1.152-.6-2.184-1.224-3.072a6.532 6.532 0 00-2.496-2.064c-1.008-.48-2.16-.72-3.408-.72-1.632 0-3.072.36-4.296 1.08a7.27 7.27 0 00-2.832 3z" fill="#131316"/><path d="M170.144 91.8l4.032 11.2h1.68l4.032-11.2h-1.44l-3.408 9.552-3.424-9.552h-1.472zm11.636 10.768c.608.352 1.312.528 2.112.528.784 0 1.488-.176 2.096-.528a3.749 3.749 0 001.44-1.472c.336-.624.512-1.344.512-2.176 0-.816-.176-1.536-.512-2.176a3.857 3.857 0 00-1.44-1.472c-.608-.352-1.312-.528-2.096-.528-.8 0-1.504.176-2.112.528a3.707 3.707 0 00-1.424 1.472c-.352.64-.512 1.36-.512 2.176 0 .832.16 1.552.512 2.176.336.64.816 1.12 1.424 1.472zm3.52-1.024c-.416.256-.88.384-1.408.384a2.635 2.635 0 01-1.424-.384 2.468 2.468 0 01-.944-1.072c-.224-.448-.336-.976-.336-1.552 0-.576.112-1.088.336-1.552.224-.448.528-.816.944-1.072.416-.256.88-.384 1.424-.384.528 0 .992.128 1.408.384.416.256.736.624.96 1.072.224.464.336.976.336 1.552 0 .576-.112 1.104-.336 1.552a2.502 2.502 0 01-.96 1.072zm4.225-9.744V103h1.312V91.8h-1.312zm10.213 3.04h-1.312v4.08c0 .928-.224 1.648-.64 2.176-.416.544-1.008.8-1.744.8-.688 0-1.216-.208-1.584-.656-.368-.448-.544-1.088-.544-1.936V94.84h-1.312v4.544c0 1.28.288 2.224.88 2.816.576.608 1.36.896 2.336.896 1.12 0 1.984-.384 2.608-1.184l.176 1.088h1.136v-8.16zm13.197.768c-.576-.576-1.312-.864-2.224-.864-1.312 0-2.256.528-2.832 1.552a2.409 2.409 0 00-1.024-1.152 3.11 3.11 0 00-1.552-.4c-1.008 0-1.808.416-2.384 1.216l-.176-1.12h-1.136V103h1.312v-4.304c0-.816.192-1.472.576-1.984.384-.512.912-.768 1.584-.768.624 0 1.104.208 1.456.624.336.416.512 1.024.512 1.808V103h1.312v-4.368c0-.832.192-1.488.576-1.968.384-.48.928-.72 1.616-.72.608 0 1.088.208 1.424.624.336.416.512 1.024.512 1.808V103h1.312v-4.704c0-1.216-.288-2.112-.864-2.688zm2.819 1.12c-.32.64-.48 1.36-.48 2.192 0 .832.16 1.552.496 2.192.336.64.816 1.12 1.424 1.472.608.352 1.312.512 2.128.512.928 0 1.712-.256 2.352-.784a3.414 3.414 0 001.2-2.048h-1.328c-.144.528-.416.944-.832 1.232-.416.288-.912.432-1.488.432-.768 0-1.376-.24-1.84-.72-.48-.48-.72-1.12-.736-1.92v-.112h6.336c.016-.256.032-.432.032-.56-.032-.784-.208-1.472-.528-2.064a3.54 3.54 0 00-1.36-1.344c-.576-.304-1.248-.464-1.984-.464-.768 0-1.44.176-2.016.528a3.551 3.551 0 00-1.376 1.456zm5.904 1.36h-4.928c.064-.64.32-1.168.8-1.584a2.428 2.428 0 011.632-.608c.688 0 1.264.192 1.712.576.448.384.72.928.784 1.616zm11.108-6.288h-1.376c-.896 1.232-1.552 2.4-1.952 3.52-.4 1.12-.592 2.336-.592 3.68 0 1.344.192 2.576.592 3.696.4 1.12 1.056 2.288 1.952 3.504h1.376c-.96-1.328-1.648-2.528-2.032-3.584-.4-1.056-.592-2.272-.592-3.616 0-1.344.192-2.56.592-3.616.384-1.056 1.072-2.256 2.032-3.584zm5.053 6.288l-4.352 3.776V103h7.712v-1.232h-5.856l3.36-2.848c.528-.448.96-.864 1.296-1.216.32-.352.592-.752.8-1.2a3.3 3.3 0 00.32-1.456c0-1.024-.352-1.84-1.024-2.448-.672-.608-1.616-.912-2.8-.912-.736 0-1.392.16-1.968.464-.576.32-1.008.736-1.312 1.28-.32.544-.464 1.168-.464 1.872v.288h1.344v-.208c0-.768.208-1.376.656-1.824.432-.448 1.008-.672 1.744-.672s1.328.208 1.776.592c.448.4.672.944.672 1.632 0 .56-.16 1.056-.48 1.504-.32.448-.8.928-1.424 1.472zm4.269.976v1.2h5.872V103h1.344v-2.736h1.808v-1.232h-1.808V91.8h-1.6l-5.616 7.264zm1.44-.032l4.432-5.728v5.728h-4.432zm15.334-3.392c-.608-.592-1.408-.896-2.4-.896-.64 0-1.184.144-1.632.4-.448.272-.8.624-1.056 1.04V91.8h-1.312V103h1.312v-4.08c0-.912.208-1.632.656-2.176.448-.528 1.04-.8 1.808-.8.704 0 1.264.224 1.648.672.384.448.576 1.088.576 1.92V103h1.312v-4.544c0-1.28-.304-2.208-.912-2.816zm5.16-.32c-.4-1.12-1.04-2.288-1.936-3.52h-1.376c.96 1.328 1.632 2.528 2.032 3.584.384 1.056.592 2.272.592 3.616 0 1.344-.208 2.56-.592 3.616-.4 1.056-1.072 2.256-2.032 3.584h1.376c.896-1.216 1.536-2.384 1.936-3.504.4-1.12.608-2.352.608-3.696 0-1.344-.208-2.56-.608-3.68z" fill="#717184"/><path fill="#F9F9FA" d="M80.5 115H82v240h-1.5zm101.5 0h1.5v240H182zm101.5 0h1.5v240h-1.5z"/><path fill="#F9F9FA" d="M417.962 115v1.5h-843V115zm0 47.5v1.5h-843v-1.5zm0 47.5v1.5h-843V210zm0 47.5v1.5h-843v-1.5zm0 47.5v1.5h-843V305z"/><rect x="167" y="200" width="8" height="54" rx="4" fill="#FB3766"/><rect x="170" y="192" width="2" height="80" rx="1" fill="#FB3766"/><rect x="119" y="181" width="8" height="54" rx="4" fill="#11CF8B"/><rect x="122" y="173" width="2" height="80" rx="1" fill="#11CF8B"/><rect x="143" y="166" width="8" height="54" rx="4" fill="#11CF8B"/><rect x="146" y="158" width="2" height="124" rx="1" fill="#11CF8B"/><rect x="47" y="202" width="8" height="54" rx="4" fill="#FB3766"/><rect x="50" y="194" width="2" height="103" rx="1" fill="#FB3766"/><rect x="311" y="221" width="8" height="54" rx="4" fill="#11CF8B"/><rect x="314" y="213" width="2" height="80" rx="1" fill="#11CF8B"/><rect x="287" y="229" width="8" height="27" rx="4" fill="#11CF8B"/><rect x="290" y="225" width="2" height="55" rx="1" fill="#11CF8B"/><rect x="95" y="229" width="8" height="27" rx="4" fill="#FB3766"/><rect x="98" y="208" width="2" height="55" rx="1" fill="#FB3766"/><rect x="191" y="213" width="8" height="20" rx="4" fill="#11CF8B"/><rect x="194" y="206" width="2" height="46" rx="1" fill="#11CF8B"/><rect x="263" y="241" width="8" height="16" rx="4" fill="#FB3766"/><rect x="266" y="235" width="2" height="55" rx="1" fill="#FB3766"/><rect x="239" y="252" width="8" height="16" rx="4" fill="#FB3766"/><rect x="242" y="243" width="2" height="70" rx="1" fill="#FB3766"/><rect x="23" y="241" width="8" height="16" rx="4" fill="#11CF8B"/><rect x="26" y="219" width="2" height="98" rx="1" fill="#11CF8B"/><rect x="71" y="207" width="8" height="16" rx="4" fill="#11CF8B"/><rect x="74" y="201" width="2" height="40" rx="1" fill="#11CF8B"/><rect x="215" y="258" width="8" height="16" rx="4" fill="#11CF8B"/><rect x="218" y="252" width="2" height="40" rx="1" fill="#11CF8B"/></g><rect x="4" y="4" width="312" height="684.907" rx="36" stroke="#0E0637" stroke-width="8"/><defs><clipPath id="clip0_751_7603"><rect width="320" height="692.907" rx="40" fill="#fff"/></clipPath></defs></svg>