<svg width="140" height="140" fill="none" xmlns="http://www.w3.org/2000/svg"><rect width="140" height="140" rx="24" fill="url(#paint0_linear_751_7758)"/><rect x="8.518" y="8.517" width="122.966" height="122.966" rx="16" fill="#fff"/><g clip-path="url(#clip0_751_7758)" fill="#131316"><path d="M27.68 27.681v28.28h28.28V27.68H27.68zm21.626 21.626H34.335V34.335h14.971v14.972z"/><path d="M45.147 38.494h-6.654v6.654h6.654v-6.654zm39.425-10.813v28.28h28.28V27.68h-28.28zm21.626 21.626H91.226V34.335h14.972v14.972z"/><path d="M102.039 38.494h-6.654v6.654h6.654v-6.654zM27.68 84.573v28.279h28.28v-28.28H27.68zm21.626 21.625H34.335V91.227h14.971v14.971z"/><path d="M45.147 95.386h-6.654v6.654h6.654v-6.654zm-4.158-34.934h-6.654v6.654h6.654v-6.654zm6.653 13.308v-6.654h-6.654v6.654h6.488v6.654h6.654V73.76h-6.488zm33.271-33.27h-6.654v6.654h6.654V40.49zm-13.309-6.155H60.95v12.809h6.654V34.335zm6.654-6.654h-6.653v6.654h6.653v-6.654zm-6.654 19.463v6.654H60.95v6.654h13.308V47.144h-6.654zm6.654 39.591v-6.487h-6.654V67.106H60.95v13.308h6.654v6.488h6.654v6.487h13.308v-6.654H74.258z"/><path d="M80.913 60.452h-6.654V73.76h6.654V60.452zm25.285 6.488v-6.488H94.054v6.654h-6.488v6.654h6.654v6.488h18.632V66.94h-6.654zm0 6.654H94.22v-6.488h11.978v6.488zm6.654 13.141h-6.654v13.308h6.654V86.735zM87.566 73.76h-6.654v6.654h6.654V73.76zm6.654 19.63h-6.654v6.653h6.654v-6.654zm6.655-6.655h-6.654v6.654h6.654v-6.654zm-6.655 13.308v12.809h6.655v-6.155h5.323v-6.654H94.221zM67.604 86.902H60.95v12.642h6.654V86.902zm13.308 19.296v-6.654H67.605v13.308h6.654v-6.654h6.488v6.654H87.4v-6.654h-6.488zM60.95 60.452H47.644v6.654H60.95v-6.654zm-26.615 6.654H27.68v13.308h6.654V67.106z"/></g><defs><linearGradient id="paint0_linear_751_7758" x1="34.601" y1="34.601" x2="140" y2="140" gradientUnits="userSpaceOnUse"><stop stop-color="#DAF727"/><stop offset="1" stop-color="#725AEC"/></linearGradient><clipPath id="clip0_751_7758"><path fill="#fff" transform="translate(27.68 27.681)" d="M0 0h85.171v85.171H0z"/></clipPath></defs></svg>