<svg width="24" height="24" fill="none" xmlns="http://www.w3.org/2000/svg"><rect x="6" y="3" width="12" height="18" rx="2" fill="#5235E8"/><path d="M3 17h18a4 4 0 01-4 4H7a4 4 0 01-4-4z" fill="#DAF727"/><path d="M3 7a4 4 0 014-4h10a4 4 0 014 4H3z" fill="#D6D1FA"/><path d="M9.942 10.34a.177.177 0 00.18.185h.62c.103 0 .185-.085.199-.188.067-.492.405-.85 1.006-.85.515 0 .986.257.986.876 0 .476-.28.695-.724 1.028-.505.367-.905.795-.876 1.49l.002.163a.188.188 0 00.188.184h.608a.188.188 0 00.187-.187v-.079c0-.538.205-.695.758-1.114.457-.348.933-.733.933-1.542 0-1.133-.957-1.681-2.005-1.681-.95 0-1.991.443-2.062 1.714zm1.167 4.322c0 .4.32.695.758.695.457 0 .77-.295.77-.695 0-.414-.314-.705-.77-.705-.439 0-.758.29-.758.705z" fill="#fff"/></svg>