<svg width="24" height="24" fill="none" xmlns="http://www.w3.org/2000/svg"><path d="M3.5 14.2h2.8v6H3.5v-6z" fill="#5235E8" stroke="#fff"/><path d="M10 14.3c-1.118 0-3.5.8-3.5.8v4.4s1.522.207 3 .5c2.017.4 4.735.883 5.5.5 2-1 5-3.5 5-3.5s1.053-.595.6-1.5c-.453-.905-1.6-.5-1.6-.5l-4.039 1.204c-.28-.495-1.396-.88-2.461-1.204-1.1-.334-1.995-.7-2.5-.7z" fill="#5235E8"/><path d="M10 16.6s.84.18 1.834.385c2.846.587 2.882.41 3.166-.385a.457.457 0 00-.039-.396m0 0c-.28-.495-1.396-.88-2.461-1.204-1.1-.334-1.995-.7-2.5-.7-1.118 0-3.5.8-3.5.8v4.4s1.522.207 3 .5c2.017.4 4.735.883 5.5.5 2-1 5-3.5 5-3.5s1.053-.595.6-1.5c-.453-.905-1.6-.5-1.6-.5l-4.039 1.204z" stroke="#fff"/><path d="M15.461 13.06a5.035 5.035 0 005.03-5.03A5.035 5.035 0 0015.461 3a5.035 5.035 0 00-5.03 5.03 5.023 5.023 0 005.03 5.03zm0-9.062a4.052 4.052 0 014.051 4.052 4.064 4.064 0 01-4.05 4.05 4.052 4.052 0 010-8.102z" fill="#000"/><circle cx="15" cy="8" r="5.833" fill="#DAF727"/><circle cx="15" cy="8" r="4.75" fill="#5235E8" stroke="#fff" stroke-width=".5"/><path d="M15.35 9.605h-.71a.557.557 0 01-.556-.557h-.864c0 .768.595 1.383 1.344 1.42v.73h.863v-.73a1.429 1.429 0 001.344-1.42 1.45 1.45 0 00-1.44-1.44h-.71a.557.557 0 010-1.114h.71c.308 0 .557.25.557.557h.864c0-.768-.595-1.382-1.344-1.42V4.9h-.864v.73A1.429 1.429 0 0013.2 7.05c0 .787.653 1.44 1.44 1.44h.71a.557.557 0 010 1.114z" fill="#fff"/></svg>