<svg width="25" height="24" fill="none" xmlns="http://www.w3.org/2000/svg"><path d="M24.489 12.224c0-.983-.082-1.7-.259-2.445H12.74v4.438h6.744c-.136 1.103-.87 2.764-2.502 3.88l-.023.149 3.634 2.75.251.024c2.312-2.086 3.645-5.155 3.645-8.796z" fill="#4285F4"/><path d="M12.74 23.918c3.304 0 6.078-1.063 8.104-2.897l-3.862-2.923c-1.033.704-2.42 1.196-4.243 1.196a7.352 7.352 0 01-6.962-4.97l-.144.012-3.778 2.857-.05.134c2.013 3.907 6.147 6.59 10.934 6.59z" fill="#34A853"/><path d="M5.776 14.324a7.21 7.21 0 01-.408-2.365c0-.824.15-1.621.395-2.366l-.007-.158L1.93 6.532l-.126.058A11.747 11.747 0 00.5 11.96c0 1.926.476 3.747 1.305 5.368l3.971-3.003z" fill="#FBBC05"/><path d="M12.74 4.624c2.297 0 3.848.97 4.732 1.78l3.454-3.295C18.804 1.183 16.044 0 12.739 0 7.952 0 3.82 2.684 1.806 6.59l3.957 3.004a7.383 7.383 0 016.976-4.97z" fill="#EB4335"/></svg>