<svg width="42" height="40" fill="none" xmlns="http://www.w3.org/2000/svg"><path d="M21 4c5.705 0 10.837 1.345 14.517 3.484 3.705 2.152 5.799 5.01 5.799 8s-2.094 5.848-5.799 8c-3.68 2.14-8.812 3.484-14.517 3.484s-10.836-1.345-14.517-3.483c-3.705-2.153-5.798-5.011-5.798-8 0-2.99 2.093-5.85 5.798-8.001C10.163 5.345 15.295 4 21 4z" fill="url(#paint0_linear_751_7839)" stroke="url(#paint1_linear_751_7839)"/><path fill-rule="evenodd" clip-rule="evenodd" d="M.004 19.551H0v3.988c0 1.636.543 3.256 1.599 4.768C2.654 29.82 4.2 31.194 6.15 32.35c1.95 1.157 4.265 2.075 6.813 2.701C15.51 35.678 18.242 36 21 36s5.488-.322 8.036-.949c2.548-.626 4.863-1.544 6.813-2.7 1.95-1.158 3.497-2.532 4.553-4.043C41.456 26.796 42 25.175 42 23.538v-3.987h-.004C41.772 26.318 32.458 31.227 21 31.227 9.542 31.227.228 26.318.004 19.55z" fill="#DAF727"/><g opacity=".8" filter="url(#filter0_f_751_7839)"><path d="M19.539 21.527l.554 1.213a.35.35 0 00.364.194l1.01-.196a.2.2 0 00.146-.106.217.217 0 00-.005-.186l-.554-1.214.505-.098.554 1.214a.35.35 0 00.364.194l1.01-.196a.199.199 0 00.146-.106.218.218 0 00-.005-.186l-.554-1.214.085-.017c2.012-.39 2.992-1.673 2.2-3.408-.667-1.459-2.048-2.059-3.29-1.94l-.04-.086c.872-.426 1.268-1.276.729-2.457-.68-1.488-2.254-2.165-4.026-1.821l-.093.018-.555-1.214a.346.346 0 00-.152-.157.325.325 0 00-.211-.037l-1.01.196a.2.2 0 00-.146.106.217.217 0 00.004.186l.555 1.214-.579.113-.554-1.214a.346.346 0 00-.153-.158.324.324 0 00-.21-.036l-.937.182a.2.2 0 00-.146.106.218.218 0 00.004.186l.555 1.213-2.013.403a.2.2 0 00-.146.106.217.217 0 00.004.186l.439.96c.06.133.222.222.361.195l.76-.153a.97.97 0 01.63.111c.204.11.368.278.455.47l2.442 5.347a.652.652 0 01.013.558.598.598 0 01-.438.317l-.75.158a.2.2 0 00-.147.105.217.217 0 00.005.186l.443.971a.35.35 0 00.364.194l2.013-.402zm-2.335-8.547l1.737-.338c.915-.177 1.673.202 2.034.992.386.846.023 1.436-1.292 1.691l-1.293.251-1.186-2.596zm1.797 3.933l1.859-.36c1.148-.224 2.03.218 2.449 1.135.423.925.01 1.53-1.536 1.832l-1.453.282-1.318-2.887v-.002z" fill="#5235E8" fill-opacity=".64"/></g><path d="M14.94 12.337h0l.76-.153a.831.831 0 01.536.095.885.885 0 01.387.401l2.442 5.346c.075.165.08.336.011.476a.509.509 0 01-.373.27H18.7l-.749.157s0 0 0 0a.287.287 0 00-.21.153.314.314 0 00.006.269l.443.971a.505.505 0 00.525.28h0l1.901-.38.505 1.105a.504.504 0 00.525.28l1.01-.196a.287.287 0 00.211-.153.314.314 0 00-.006-.269l-.505-1.106.28-.054.505 1.105c.088.194.324.32.525.28l1.01-.196a.287.287 0 00.21-.153.314.314 0 00-.006-.268l-.505-1.106c1.01-.202 1.774-.627 2.183-1.232.416-.613.463-1.402.052-2.302a3.457 3.457 0 00-1.495-1.63 3.413 3.413 0 00-1.625-.413c.328-.213.57-.5.69-.854.15-.439.11-.973-.17-1.585a3.308 3.308 0 00-1.681-1.673c-.73-.325-1.59-.41-2.487-.238l-.505-1.106a.5.5 0 00-.22-.227.469.469 0 00-.305-.053l-1.01.196a.288.288 0 00-.211.153.314.314 0 00.006.269l.505 1.106-.354.069-.505-1.106a.5.5 0 00-.22-.228.469.469 0 00-.305-.052l-.936.182a.288.288 0 00-.211.152.314.314 0 00.006.27l.506 1.106-1.902.38.05.108-.05-.108h0a.288.288 0 00-.21.153.314.314 0 00.006.269l.439.96c.087.191.32.32.522.28zm4.655 1.674l-1.088-2.38 1.624-.316c.438-.085.824-.034 1.136.12.31.152.567.415.737.786.181.397.181.718-.003.972-.188.26-.58.463-1.226.589l-1.18.23zm.709 1.553l1.746-.339c.556-.108 1.032-.052 1.412.128.376.178.678.488.876.921.2.437.196.78-.022 1.053-.224.28-.686.5-1.452.65l-1.34.26-1.22-2.673z" fill="#fff" stroke="#8D79F1" stroke-width=".25"/><defs><linearGradient id="paint0_linear_751_7839" x1="42.611" y1="4.868" x2="-.621" y2="19.924" gradientUnits="userSpaceOnUse"><stop stop-color="#5235E8"/><stop offset="1" stop-color="#816CEF"/></linearGradient><linearGradient id="paint1_linear_751_7839" x1="9.393" y1="3.282" x2="36.441" y2="22.382" gradientUnits="userSpaceOnUse"><stop stop-color="#B0A3F5"/><stop offset="1" stop-color="#917FF1"/></linearGradient><filter id="filter0_f_751_7839" x="8.926" y="5.716" width="20.707" height="21.223" filterUnits="userSpaceOnUse" color-interpolation-filters="sRGB"><feFlood flood-opacity="0" result="BackgroundImageFix"/><feBlend in="SourceGraphic" in2="BackgroundImageFix" result="shape"/><feGaussianBlur stdDeviation="2" result="effect1_foregroundBlur_751_7839"/></filter></defs></svg>