<svg width="174" height="32" fill="none" xmlns="http://www.w3.org/2000/svg"><g clip-path="url(#clip0_663_7491)" fill="#9C9CAB"><path d="M97.66 23.62h3.721V9.547h-3.722V23.62zm0-16.266h3.721V4.008h-3.722v3.346zm6.12 20.873h3.722v-6.199h.054c.794 1.207 2.08 2.003 4.05 2.003 3.613 0 6.076-2.88 6.076-7.434 0-4.388-2.381-7.433-6.103-7.433-1.915 0-3.229.905-4.132 2.14h-.082V9.548h-3.585v18.68zm7.033-7.296c-2.217 0-3.393-1.673-3.393-4.224 0-2.523.93-4.526 3.256-4.526 2.299 0 3.229 1.866 3.229 4.526 0 2.66-1.204 4.224-3.092 4.224zm14.292 3.099c3.504 0 5.912-1.7 5.912-4.525 0-3.292-2.6-3.95-4.954-4.444-1.998-.411-3.858-.52-3.858-1.728 0-1.014.958-1.563 2.408-1.563 1.587 0 2.545.549 2.709 2.057h3.366c-.273-2.825-2.326-4.663-6.02-4.663-3.202 0-5.72 1.454-5.72 4.498 0 3.072 2.463 3.758 4.981 4.252 1.915.384 3.694.521 3.694 1.865 0 .988-.93 1.618-2.572 1.618-1.67 0-2.819-.713-3.065-2.331h-3.448c.219 2.99 2.49 4.965 6.567 4.965zm20.042-.411V9.549h-3.722v8.118c0 1.865-1.067 3.182-2.819 3.182-1.587 0-2.325-.905-2.325-2.551v-8.75h-3.695v9.38c0 3.073 1.751 5.075 4.871 5.075 1.971 0 3.065-.74 4.023-2.03h.082v1.646h3.585zm2.407.001h3.722v-8.175c0-1.865 1.012-3.072 2.518-3.072 1.368 0 2.161.823 2.161 2.414v8.832h3.722v-8.174c0-1.865.958-3.072 2.517-3.072 1.369 0 2.163.823 2.163 2.414v8.832h3.722v-9.463c0-3.072-1.67-4.992-4.626-4.992-1.778 0-3.256.933-4.214 2.469h-.054c-.684-1.481-2.108-2.469-3.887-2.469-1.942 0-3.31.988-4.077 2.277h-.082V9.548h-3.585V23.62zm-146.896 0H4.38V4.007H.658v19.611zm12.822.41c4.35 0 7.334-3.236 7.334-7.433 0-4.196-2.983-7.433-7.335-7.433-4.35 0-7.333 3.237-7.333 7.433 0 4.197 2.982 7.433 7.333 7.433zm0-2.852c-2.3 0-3.558-1.838-3.558-4.58 0-2.743 1.259-4.609 3.557-4.609 2.272 0 3.558 1.865 3.558 4.608 0 2.743-1.286 4.58-3.557 4.58zm15.248 7.242c2.08 0 3.886-.495 5.063-1.592 1.04-.96 1.67-2.304 1.67-4.279v-13h-3.586v1.48h-.055c-.848-1.18-2.134-1.865-3.886-1.865-3.557 0-6.075 2.688-6.075 6.885 0 4.251 3.065 6.72 6.185 6.72 1.779 0 2.846-.713 3.667-1.646h.082v1.536c0 1.92-1.012 2.935-3.12 2.935-1.724 0-2.517-.686-2.818-1.564H22.16c.384 2.743 2.737 4.39 6.568 4.39zm-.055-8.64c-1.915 0-3.174-1.4-3.174-3.786 0-2.359 1.259-3.84 3.147-3.84 2.244 0 3.339 1.755 3.339 3.813 0 2.084-.958 3.812-3.312 3.812zm15.834 4.25c4.351 0 7.334-3.236 7.334-7.433 0-4.196-2.983-7.433-7.334-7.433-4.351 0-7.334 3.237-7.334 7.433 0 4.197 2.983 7.433 7.334 7.433zm0-2.852c-2.299 0-3.558-1.838-3.558-4.58 0-2.743 1.26-4.609 3.558-4.609 2.271 0 3.558 1.865 3.558 4.608 0 2.743-1.287 4.58-3.558 4.58zm124.924-13.94c0-.631.51-1.143 1.14-1.143h2.281a1.142 1.142 0 010 2.286h-2.281c-.63 0-1.14-.512-1.14-1.143z"/><path fill-rule="evenodd" clip-rule="evenodd" d="M74.412 0c8.816 0 15.963 7.163 15.963 16s-7.147 16-15.963 16c-8.817 0-15.964-7.163-15.964-16S65.595 0 74.412 0zm-.578 1.197c-1.82.257-3.555 1.724-4.9 4.177a16.502 16.502 0 00-1.05 2.346 26.65 26.65 0 015.95-.774V1.197zm-7.3 6.908a18.503 18.503 0 011.388-3.288c.667-1.217 1.46-2.267 2.352-3.073a14.858 14.858 0 00-10.086 10.109c.805-.895 1.852-1.688 3.066-2.357.98-.54 2.082-1.009 3.28-1.391zm-.383 1.352a26.82 26.82 0 00-.773 5.965h-5.735c.256-1.826 1.72-3.564 4.167-4.913.71-.391 1.494-.744 2.34-1.052zm.381 5.965c.048-2.308.38-4.475.928-6.39 1.91-.55 4.072-.882 6.375-.93v2.499a8.502 8.502 0 01-4.811 4.82h-2.492zm-1.154 1.156h-5.735c.256 1.826 1.72 3.564 4.167 4.913.71.391 1.494.744 2.34 1.052a26.82 26.82 0 01-.772-5.965zm2.082 6.39c-.549-1.915-.88-4.082-.928-6.39h2.492a8.502 8.502 0 014.81 4.821v2.499c-2.302-.048-4.464-.38-6.374-.93zm-.926.927c-1.198-.382-2.3-.85-3.28-1.39-1.214-.67-2.261-1.463-3.066-2.358a14.858 14.858 0 0010.085 10.11c-.892-.807-1.684-1.858-2.35-3.074a18.501 18.501 0 01-1.389-3.288zm7.3 6.908c-1.82-.257-3.555-1.724-4.9-4.177a16.667 16.667 0 01-1.05-2.346c1.83.46 3.84.732 5.95.774v5.749zm4.715-.547c.893-.806 1.685-1.857 2.352-3.073a18.494 18.494 0 001.388-3.288c1.198-.382 2.3-.85 3.28-1.39 1.213-.67 2.261-1.463 3.066-2.358a14.859 14.859 0 01-10.086 10.11zm2.391-5.976a16.73 16.73 0 01-1.05 2.346c-1.346 2.453-3.08 3.92-4.901 4.177v-5.748a26.66 26.66 0 005.951-.775zm1.732-1.737a16.58 16.58 0 002.341-1.052c2.448-1.35 3.911-3.087 4.167-4.913h-5.735a26.861 26.861 0 01-.773 5.965zm-.38-5.965c-.049 2.308-.38 4.475-.929 6.39-1.91.55-4.072.882-6.374.93V21.4a8.503 8.503 0 014.81-4.823h2.492zm1.153-1.156h5.735c-.256-1.826-1.719-3.564-4.167-4.913a16.587 16.587 0 00-2.341-1.052c.46 1.834.731 3.85.773 5.965zm-2.082-6.39c.55 1.915.88 4.082.928 6.39H79.8a8.503 8.503 0 01-4.811-4.823V8.102c2.302.048 4.464.38 6.374.93zm.926-.927c1.198.382 2.3.85 3.28 1.39 1.213.67 2.261 1.463 3.066 2.358A14.858 14.858 0 0078.55 1.743c.893.807 1.685 1.857 2.352 3.074a18.496 18.496 0 011.388 3.288zm-7.3-6.908c1.82.257 3.555 1.724 4.9 4.177.39.711.744 1.498 1.051 2.346a26.656 26.656 0 00-5.951-.774V1.197z"/></g><defs><clipPath id="clip0_663_7491"><path fill="#fff" d="M0 0h174v32H0z"/></clipPath></defs></svg>