<svg width="164" height="36" fill="none" xmlns="http://www.w3.org/2000/svg"><path d="M48.039 24.026c0 .786-.163 1.39-.487 1.812-.316.422-.844.633-1.585.633-.699 0-1.194-.211-1.485-.633-.283-.422-.424-1.026-.424-1.812V10.911c0-.786.141-1.39.424-1.812.291-.422.786-.633 1.485-.633.74 0 1.269.211 1.585.633.324.422.487 1.026.487 1.812v13.115zm1.208-3.809c0-.877.142-1.704.424-2.482a5.787 5.787 0 011.298-2.06c.583-.587 1.306-1.054 2.172-1.402.873-.347 1.897-.52 3.07-.52 1.123 0 2.117.16 2.983.483.865.323 1.593.774 2.183 1.353a5.636 5.636 0 011.348 2.047c.308.786.462 1.646.462 2.581 0 .869-.146 1.692-.437 2.47a5.75 5.75 0 01-1.31 2.034c-.583.58-1.31 1.042-2.184 1.39-.874.339-1.889.508-3.045.508-1.14 0-2.147-.16-3.02-.483-.866-.331-1.594-.782-2.184-1.353a5.748 5.748 0 01-1.323-2.035 7.225 7.225 0 01-.437-2.531zm4.156 0c0 .546.05 1.067.15 1.563.1.488.258.918.474 1.29.224.373.516.67.873.894.358.215.795.323 1.31.323.475 0 .887-.1 1.236-.298a2.39 2.39 0 00.874-.831c.233-.356.407-.782.524-1.278a7.393 7.393 0 00.175-1.663 7.1 7.1 0 00-.163-1.551c-.1-.496-.262-.93-.486-1.303a2.506 2.506 0 00-.874-.893c-.35-.224-.778-.335-1.285-.335-.508 0-.94.107-1.298.322a2.539 2.539 0 00-.874.881 4.046 4.046 0 00-.486 1.303c-.1.496-.15 1.022-.15 1.576zm20.027 3.859a3.89 3.89 0 01-.823 1.055c-.316.289-.67.529-1.06.72a5.42 5.42 0 01-1.236.409 7.097 7.097 0 01-1.336.124 5.234 5.234 0 01-2.096-.41 4.619 4.619 0 01-1.635-1.178c-.45-.522-.799-1.159-1.048-1.911-.25-.753-.375-1.613-.375-2.581 0-.91.117-1.762.35-2.556.233-.794.57-1.485 1.01-2.072a4.92 4.92 0 011.648-1.39c.649-.34 1.39-.509 2.221-.509.949 0 1.79.182 2.521.546.74.364 1.377.96 1.91 1.787v-.323c0-.595.162-1.042.486-1.34.333-.306.79-.459 1.373-.459.35 0 .645.058.886.174.241.107.433.273.574.496.142.215.242.484.3.807.066.314.1.674.1 1.08v8.313c0 1.009-.13 1.91-.387 2.704-.25.795-.64 1.465-1.173 2.01-.533.547-1.215.96-2.047 1.242-.832.289-1.822.434-2.97.434a18.3 18.3 0 01-2.147-.112 8.4 8.4 0 01-1.597-.31c-.45-.157-.79-.331-1.023-.521a.93.93 0 01-.337-.745c0-.173.024-.339.074-.496a1.29 1.29 0 01.225-.422c.108-.116.246-.21.412-.285.175-.066.387-.1.636-.1.267 0 .533.017.8.05l.848.1c.3.04.611.078.936.11.332.034.69.05 1.073.05.458 0 .865-.045 1.223-.136a2.06 2.06 0 00.911-.484c.25-.231.44-.542.574-.93.133-.381.2-.869.2-1.465v-1.476zm0-3.859a9.14 9.14 0 00-.137-1.65c-.083-.497-.228-.919-.436-1.266a2.143 2.143 0 00-.837-.819c-.349-.198-.786-.298-1.31-.298-.516 0-.944.104-1.285.31a2.27 2.27 0 00-.799.857c-.2.364-.341.79-.424 1.278a10.295 10.295 0 00-.113 1.563c0 1.266.225 2.217.674 2.854.45.637 1.103.955 1.96.955.399-.008.76-.082 1.085-.223.333-.149.62-.376.861-.682.242-.306.429-.695.562-1.167.133-.471.2-1.042.2-1.712zm4.916 0c0-.877.141-1.704.424-2.482a5.787 5.787 0 011.298-2.06c.582-.587 1.306-1.054 2.171-1.402.874-.347 1.897-.52 3.07-.52 1.124 0 2.118.16 2.983.483.865.323 1.593.774 2.184 1.353a5.64 5.64 0 011.348 2.047c.308.786.462 1.646.462 2.581 0 .869-.146 1.692-.437 2.47a5.753 5.753 0 01-1.31 2.034c-.583.58-1.311 1.042-2.185 1.39-.873.339-1.888.508-3.045.508-1.14 0-2.146-.16-3.02-.483-.865-.331-1.593-.782-2.184-1.353a5.75 5.75 0 01-1.323-2.035 7.23 7.23 0 01-.436-2.531zm4.155 0c0 .546.05 1.067.15 1.563.1.488.258.918.474 1.29.225.373.516.67.874.894.358.215.795.323 1.31.323.475 0 .886-.1 1.236-.298.358-.198.649-.476.873-.831.233-.356.408-.782.525-1.278a7.393 7.393 0 00.174-1.663c0-.546-.054-1.063-.162-1.551-.1-.496-.262-.93-.487-1.303a2.508 2.508 0 00-.873-.893c-.35-.224-.778-.335-1.286-.335-.507 0-.94.107-1.297.322a2.538 2.538 0 00-.874.881 4.046 4.046 0 00-.487 1.303c-.1.496-.15 1.022-.15 1.576zM97.638 9.57c0 .274-.063.518-.187.733-.125.207-.287.38-.487.521-.2.14-.433.248-.699.322a3.198 3.198 0 01-1.635-.012 2.276 2.276 0 01-.686-.322 1.705 1.705 0 01-.474-.534 1.417 1.417 0 01-.175-.707c0-.24.054-.46.162-.658.117-.207.27-.385.462-.533.191-.15.42-.265.686-.348a2.93 2.93 0 01.874-.124c.274 0 .54.037.799.112.266.074.499.182.698.322.2.141.358.315.475.521.124.207.187.443.187.708zm-.187 14.456c0 .786-.163 1.39-.487 1.812-.316.422-.845.633-1.585.633-.699 0-1.194-.211-1.485-.633-.283-.422-.424-1.026-.424-1.812v-7.594c0-.785.141-1.39.424-1.811.291-.422.786-.633 1.485-.633.74 0 1.269.211 1.585.633.324.422.487 1.025.487 1.811v7.594zm5.738-3.834c0 .554.041 1.071.125 1.551.091.48.241.902.449 1.266.216.355.499.637.848.843.358.207.799.31 1.323.31.483 0 .886-.098 1.211-.297.332-.207.599-.488.799-.844.199-.364.341-.79.424-1.278a8.674 8.674 0 00.137-1.588c0-.455-.033-.918-.1-1.39a4.474 4.474 0 00-.374-1.303 2.54 2.54 0 00-.761-.955c-.325-.248-.749-.372-1.273-.372-.524 0-.97.082-1.336.248a2.078 2.078 0 00-.873.757c-.217.339-.37.765-.462 1.278a10.112 10.112 0 00-.137 1.774zm-.013-3.76a4.21 4.21 0 01.799-1.153 4.897 4.897 0 012.296-1.328 4.952 4.952 0 011.285-.174c.766 0 1.457.17 2.073.509a4.83 4.83 0 011.571 1.39c.441.579.779 1.265 1.012 2.06a8.9 8.9 0 01.349 2.53c0 .935-.125 1.791-.374 2.569-.241.778-.587 1.448-1.037 2.01-.44.554-.973.989-1.597 1.303-.616.314-1.301.471-2.059.471-.931 0-1.763-.215-2.496-.645-.732-.43-1.339-1.034-1.822-1.811v4.467c0 .785-.162 1.39-.486 1.811-.317.422-.845.633-1.585.633-.699 0-1.194-.211-1.485-.633-.283-.422-.425-1.026-.425-1.811V16.432c0-.785.142-1.39.425-1.811.29-.422.786-.633 1.485-.633.74 0 1.268.211 1.585.633.324.422.486 1.026.486 1.811zm13.776.882c0 .322.142.574.424.756.283.174.674.319 1.174.435.474.107.96.21 1.46.31.499.1.986.215 1.46.347.474.124.919.273 1.335.447.415.174.782.393 1.098.657.316.257.566.571.749.944.183.363.274.802.274 1.315 0 .645-.133 1.22-.399 1.725a3.658 3.658 0 01-1.135 1.265c-.483.348-1.061.616-1.735.807-.674.19-1.418.29-2.234.297-.773 0-1.519-.05-2.234-.148a9.163 9.163 0 01-1.91-.435c-.548-.198-.989-.442-1.322-.732-.333-.298-.499-.645-.499-1.042 0-.348.112-.616.337-.807.224-.19.511-.285.861-.285.133 0 .291.025.474.074.183.05.382.112.599.187.216.074.445.157.687.248.249.083.506.157.773.223.333.091.674.166 1.023.223.358.05.724.075 1.099.075.232 0 .461-.02.686-.062.225-.05.425-.12.599-.211.184-.1.333-.223.45-.372.116-.15.186-.331.212-.546.024-.05.046-.1.062-.15a.537.537 0 00.025-.173c0-.232-.109-.438-.325-.62-.207-.182-.503-.327-.886-.435-.641-.148-1.252-.285-1.835-.409a26.246 26.246 0 01-1.622-.397c-.49-.14-.94-.302-1.348-.484a3.777 3.777 0 01-1.023-.67 2.873 2.873 0 01-.649-.955c-.15-.373-.224-.824-.224-1.353 0-.57.128-1.08.386-1.526a3.325 3.325 0 011.136-1.142c.491-.306 1.086-.537 1.785-.694.699-.166 1.489-.249 2.371-.249 1.58 0 2.783.19 3.607.571.832.372 1.248.86 1.248 1.464 0 .34-.113.6-.338.782-.224.174-.495.26-.81.26-.167 0-.342-.028-.525-.086a9.708 9.708 0 00-.636-.211 6.025 6.025 0 00-.899-.211c-.34-.066-.765-.1-1.272-.1-.384 0-.733.017-1.049.05a3.35 3.35 0 00-.799.174 1.274 1.274 0 00-.511.335.806.806 0 00-.175.534zm13.039 4.553c0 .389.051.728.151 1.018.107.29.253.533.436.732.183.19.395.335.636.434.25.091.517.137.799.137.333 0 .654-.05.961-.15a2.24 2.24 0 00.812-.459c.241-.206.432-.467.574-.781.14-.314.212-.683.212-1.104v-5.262c0-.785.141-1.39.424-1.811.291-.422.787-.633 1.485-.633.74 0 1.269.211 1.585.633.325.422.486 1.026.486 1.811v7.594c0 .786-.161 1.39-.486 1.812-.316.422-.845.633-1.585.633-.698 0-1.194-.211-1.485-.633-.283-.422-.424-1.026-.424-1.812-.175.38-.404.728-.687 1.043a4.265 4.265 0 01-.973.818 4.791 4.791 0 01-1.223.522 5.29 5.29 0 01-1.436.186 4.626 4.626 0 01-1.61-.286 4.01 4.01 0 01-1.347-.868 4.281 4.281 0 01-.936-1.44c-.233-.57-.349-1.236-.349-1.997v-5.572c0-.785.141-1.39.424-1.811.291-.422.786-.633 1.485-.633.74 0 1.269.211 1.585.633.325.422.486 1.026.486 1.811v5.435zm10.368-5.435c0-.785.142-1.39.425-1.811.291-.422.786-.633 1.485-.633.741 0 1.269.211 1.585.633.324.422.487 1.026.487 1.811.166-.397.391-.756.674-1.08.291-.33.62-.611.985-.843.375-.231.779-.41 1.211-.533a4.72 4.72 0 012.621-.025c.424.107.816.285 1.174.533.365.24.685.546.96.919.275.372.487.818.637 1.34a5.472 5.472 0 01.91-1.402c.35-.381.729-.687 1.136-.919a4.626 4.626 0 011.273-.496c.45-.1.898-.149 1.347-.149.533 0 1.041.095 1.523.286.491.19.919.48 1.286.868.375.38.67.865.886 1.452.224.579.336 1.257.336 2.035v5.608c0 .786-.162 1.39-.486 1.812-.316.422-.845.633-1.585.633-.699 0-1.194-.211-1.485-.633-.283-.422-.424-1.026-.424-1.812v-5.434a3.06 3.06 0 00-.15-.993 2.037 2.037 0 00-.424-.745 1.61 1.61 0 00-.625-.459 1.872 1.872 0 00-.773-.161c-.341 0-.665.054-.973.161a2.21 2.21 0 00-.811.497 2.543 2.543 0 00-.55.856c-.133.347-.199.765-.199 1.253v5.025c0 .786-.163 1.39-.487 1.812-.316.422-.844.633-1.586.633-.698 0-1.193-.211-1.484-.633-.283-.422-.425-1.026-.425-1.812v-5.199c0-.852-.179-1.497-.536-1.936-.35-.438-.828-.657-1.435-.657-.358 0-.691.058-.999.174a2.236 2.236 0 00-.799.508c-.224.224-.403.5-.536.832-.125.33-.187.711-.187 1.141v5.137c0 .786-.163 1.39-.487 1.812-.316.422-.844.633-1.585.633-.699 0-1.194-.211-1.485-.633-.283-.422-.425-1.026-.425-1.812v-7.594zM18.105 24.353c-3.53 0-6.39-2.844-6.39-6.353s2.86-6.353 6.39-6.353c3.528 0 6.39 2.844 6.39 6.353s-2.862 6.353-6.39 6.353z" fill="#9C9CAB"/><path d="M5.726 20.17c-1.852.325-3.121 2.103-2.41 3.834a15.89 15.89 0 004.628 6.251 16.032 16.032 0 0010.439 3.625 16.025 16.025 0 0010.306-3.985 15.881 15.881 0 004.406-6.408c.65-1.754-.682-3.487-2.543-3.748-1.862-.26-3.534 1.088-4.454 2.718a9.12 9.12 0 01-1.92 2.368 9.195 9.195 0 01-5.914 2.286 9.199 9.199 0 01-5.99-2.08 9.128 9.128 0 01-2.002-2.3c-.977-1.597-2.695-2.886-4.546-2.56z" fill="#9C9CAB"/><path d="M33.954 19.985c.082-.65.124-1.313.124-1.985 0-8.772-7.152-15.882-15.974-15.882S2.13 9.228 2.13 18c0 .863.07 1.71.202 2.535a4.989 4.989 0 013.116-1.929c1.338-.235 2.555.088 3.583.691A9.138 9.138 0 018.939 18c0-5.033 4.103-9.113 9.165-9.113 5.062 0 9.165 4.08 9.165 9.113 0 .332-.018.66-.052.982 1.006-.639 2.21-1.004 3.556-.815a4.99 4.99 0 013.181 1.818z" fill="#9C9CAB"/></svg>