<svg width="24" height="24" fill="none" xmlns="http://www.w3.org/2000/svg"><g clip-path="url(#clip0_631_10211)" stroke-width="1.5" stroke-linecap="round" stroke-linejoin="round"><path d="M6 4v2m0 5v9" stroke="#DAF727"/><path d="M7 6H5a1 1 0 00-1 1v3a1 1 0 001 1h2a1 1 0 001-1V7a1 1 0 00-1-1z" fill="#5235E8" stroke="#5235E8"/><path d="M12 4v10m0 5v1" stroke="#D6D1FA"/><path d="M13 14h-2a1 1 0 00-1 1v3a1 1 0 001 1h2a1 1 0 001-1v-3a1 1 0 00-1-1z" fill="#5235E8" stroke="#5235E8"/><path d="M18 4v1m0 6v9" stroke="#5235E8"/><path d="M19 5h-2a1 1 0 00-1 1v4a1 1 0 001 1h2a1 1 0 001-1V6a1 1 0 00-1-1z" fill="#DAF727" stroke="#DAF727"/></g><defs><clipPath id="clip0_631_10211"><path fill="#fff" d="M0 0h24v24H0z"/></clipPath></defs></svg>