<svg width="24" height="24" fill="none" xmlns="http://www.w3.org/2000/svg"><path d="M12.5 4c2.309 0 4.386.536 5.875 1.388 1.5.858 2.347 1.996 2.347 3.188 0 1.191-.847 2.33-2.347 3.187-1.49.853-3.566 1.388-5.876 1.388-2.309 0-4.386-.535-5.876-1.388-1.5-.857-2.347-1.996-2.347-3.187 0-1.192.848-2.33 2.347-3.188C8.113 4.536 10.19 4 12.5 4z" fill="#5235E8" stroke="#DAF727"/><path fill-rule="evenodd" clip-rule="evenodd" d="M4.002 10.5H4v1.589c0 .652.22 1.297.647 1.9.427.602 1.053 1.15 1.843 1.61.789.462 1.726.827 2.757 1.077 1.031.25 2.137.378 3.253.378s2.222-.129 3.253-.378c1.031-.25 1.968-.615 2.757-1.076.79-.462 1.416-1.009 1.843-1.611.427-.603.647-1.248.647-1.9V10.5h-.002c-.09 2.696-3.86 4.652-8.498 4.652S4.092 13.196 4.002 10.5z" fill="#D6D1FA"/><path fill-rule="evenodd" clip-rule="evenodd" d="M4.002 14.01H4v1.589c0 .652.22 1.297.647 1.9.427.602 1.053 1.15 1.843 1.61.789.461 1.726.827 2.757 1.077 1.031.25 2.137.378 3.253.378s2.222-.129 3.253-.378c1.031-.25 1.968-.616 2.757-1.076.79-.462 1.416-1.009 1.843-1.611.427-.603.647-1.248.647-1.9V14.01h-.002c-.09 2.696-3.86 4.652-8.498 4.652s-8.408-1.956-8.498-4.652z" fill="#5235E8"/><g opacity=".8" filter="url(#filter0_f_631_10180)"><path d="M11.908 10.983l.225.484c.024.053.09.088.147.077l.409-.078a.08.08 0 00.059-.042.086.086 0 00-.002-.074l-.225-.484.205-.039.224.483c.025.054.09.088.147.078l.41-.078a.08.08 0 00.058-.043.085.085 0 00-.002-.074l-.224-.483.034-.007c.815-.156 1.211-.667.89-1.358a1.318 1.318 0 00-1.331-.773l-.016-.034c.353-.17.513-.509.295-.98-.275-.592-.912-.862-1.63-.725l-.037.007-.225-.483a.14.14 0 00-.061-.063.133.133 0 00-.086-.014l-.409.078a.08.08 0 00-.059.042.085.085 0 00.002.074l.225.484-.235.044-.224-.483a.139.139 0 00-.062-.063.133.133 0 00-.085-.014l-.38.072a.08.08 0 00-.058.042.085.085 0 00.002.074l.224.484-.815.16a.08.08 0 00-.059.043.085.085 0 00.002.074l.177.382c.025.053.09.089.147.078l.307-.061a.4.4 0 01.256.044.422.422 0 01.184.188l.988 2.13a.256.256 0 01.005.222.242.242 0 01-.177.127l-.304.062a.08.08 0 00-.059.042.085.085 0 00.002.075l.18.386c.024.054.09.088.146.078l.815-.16zm-.945-3.405l.703-.135c.37-.07.677.08.823.396.157.337.01.572-.522.673l-.524.1-.48-1.034zm.728 1.567l.752-.144c.465-.088.822.088.991.453.171.369.005.61-.622.73l-.588.112-.533-1.15z" fill="#5235E8" fill-opacity=".64"/></g><path d="M10.046 7.322h0l.308-.061a.341.341 0 01.217.038c.07.037.127.094.157.16l.988 2.13a.22.22 0 01.005.189.206.206 0 01-.151.108h-.001l-.303.062s0 0 0 0a.116.116 0 00-.086.061.123.123 0 00.003.107l.18.387c.035.077.13.127.212.112h0l.77-.152.204.44c.036.078.13.128.212.112l.41-.078a.116.116 0 00.085-.061.123.123 0 00-.003-.107l-.204-.44.113-.022.204.44a.206.206 0 00.213.112l.409-.078a.118.118 0 00.085-.061.123.123 0 00-.003-.107l-.204-.441c.41-.08.718-.25.884-.49.168-.245.187-.56.02-.918a1.386 1.386 0 00-1.262-.814.662.662 0 00.28-.34c.06-.175.043-.388-.07-.632a1.329 1.329 0 00-.68-.666 1.712 1.712 0 00-1.007-.095l-.204-.44a.201.201 0 00-.09-.091.192.192 0 00-.123-.021l-.409.078a.116.116 0 00-.085.06.123.123 0 00.003.108l.204.44-.143.028-.205-.44a.2.2 0 00-.089-.091.192.192 0 00-.123-.021l-.38.072a.116.116 0 00-.085.061.123.123 0 00.003.107l.204.441-.769.151.02.043-.02-.042h0a.116.116 0 00-.085.06.123.123 0 00.002.107l.178.383c.035.076.13.127.211.112zm1.885.667l-.44-.949.657-.126a.73.73 0 01.46.048c.125.06.23.166.298.313.073.159.073.287-.001.388-.076.103-.235.184-.497.234l-.477.092zm.287.619l.706-.136a.927.927 0 01.572.051.73.73 0 01.354.368c.081.173.08.31-.008.419-.091.111-.278.2-.588.259l-.542.103-.494-1.064z" fill="#fff" stroke="#8D79F1" stroke-width=".25"/><defs><filter id="filter0_f_631_10180" x="5.231" y="2.278" width="13.144" height="13.268" filterUnits="userSpaceOnUse" color-interpolation-filters="sRGB"><feFlood flood-opacity="0" result="BackgroundImageFix"/><feBlend in="SourceGraphic" in2="BackgroundImageFix" result="shape"/><feGaussianBlur stdDeviation="2" result="effect1_foregroundBlur_631_10180"/></filter></defs></svg>