<svg width="264" height="164" fill="none" xmlns="http://www.w3.org/2000/svg"><g clip-path="url(#clip0_751_4749)"><path fill="#0E0637" d="M0 0h264v164H0z"/><circle cx="232" cy="25.999" r="60.161" fill="url(#paint0_linear_751_4749)" stroke="url(#paint1_linear_751_4749)" stroke-width="20"/><g clip-path="url(#clip1_751_4749)" fill="#0E0637"><path d="M224.449-35.832c3.169-6.129 11.933-6.129 15.102 0L259.73 3.195a8.492 8.492 0 003.647 3.647l39.026 20.178c6.129 3.17 6.129 11.934 0 15.103L263.377 62.3a8.49 8.49 0 00-3.647 3.647l-20.179 39.027c-3.169 6.129-11.933 6.129-15.102 0L204.27 65.949a8.5 8.5 0 00-3.647-3.648l-39.027-20.178c-6.128-3.17-6.128-11.934 0-15.103l39.027-20.178a8.503 8.503 0 003.647-3.647l20.179-39.027z"/><path d="M228.224-9.202c1.585-3.064 5.967-3.064 7.552 0l10.089 19.514a4.248 4.248 0 001.823 1.823l19.514 10.09c3.064 1.584 3.064 5.966 0 7.55l-19.514 10.09a4.246 4.246 0 00-1.823 1.823l-10.089 19.514c-1.585 3.064-5.967 3.064-7.552 0l-10.089-19.514a4.246 4.246 0 00-1.823-1.823l-19.514-10.09c-3.064-1.584-3.064-5.966 0-7.55l19.514-10.09a4.248 4.248 0 001.823-1.823l10.089-19.514z"/></g><g filter="url(#filter0_bii_751_4749)"><path d="M0 116h264v48H0v-48z" fill="#fff" fill-opacity=".15"/></g><g clip-path="url(#clip2_751_4749)" fill="#fff"><path d="M247.133 49.539v.087h.082a.087.087 0 00.044-.01.045.045 0 00.013-.016.059.059 0 00.004-.018.057.057 0 00-.004-.019.043.043 0 00-.013-.014.08.08 0 00-.044-.011h-.082zm.083-.062a.15.15 0 01.098.029.09.09 0 01.027.034.09.09 0 01.008.043.084.084 0 01-.028.068.134.134 0 01-.078.032l.11.125h-.085l-.101-.124h-.033v.124h-.071v-.33h.154-.001zm-.022.445a.277.277 0 00.108-.531.29.29 0 00-.218 0 .277.277 0 00-.09.059.286.286 0 00-.076.144.276.276 0 00.276.33v-.002zm0-.631a.368.368 0 01.336.218.346.346 0 01-.078.39.36.36 0 01-.258.105.363.363 0 01-.338-.499.353.353 0 01.195-.19.361.361 0 01.144-.028l-.001.004zm-33.686-1.277c0-.63.415-1.149 1.095-1.149.649 0 1.088.496 1.088 1.149 0 .652-.439 1.148-1.088 1.148-.68 0-1.095-.518-1.095-1.148zm2.923 0V46.22h-.785v.437c-.249-.323-.627-.526-1.141-.526-1.012 0-1.806.789-1.806 1.884 0 1.094.794 1.883 1.806 1.883.514 0 .892-.203 1.141-.526v.436h.784v-1.794h.001zm26.53 0c0-.63.416-1.149 1.096-1.149.65 0 1.087.496 1.087 1.149 0 .652-.437 1.148-1.087 1.148-.68 0-1.096-.518-1.096-1.148zm2.924 0V44.78h-.785v1.877c-.25-.323-.627-.526-1.141-.526-1.012 0-1.806.789-1.806 1.884 0 1.094.794 1.883 1.806 1.883.514 0 .891-.203 1.141-.526v.436h.785v-1.794zm-19.709-1.186c.506 0 .831.316.914.87h-1.874c.084-.517.401-.87.96-.87zm.016-.699c-1.058 0-1.799.765-1.799 1.884 0 1.14.77 1.883 1.851 1.883.544 0 1.042-.135 1.481-.503l-.385-.578a1.73 1.73 0 01-1.051.376c-.506 0-.966-.233-1.08-.879h2.681c.008-.097.016-.195.016-.3-.008-1.118-.704-1.883-1.715-1.883h.001zm9.479 1.883c0-.63.416-1.148 1.096-1.148.649 0 1.087.496 1.087 1.148 0 .653-.438 1.149-1.087 1.149-.68 0-1.096-.518-1.096-1.149zm2.923 0V46.22h-.784v.437c-.25-.323-.627-.526-1.141-.526-1.012 0-1.806.789-1.806 1.884 0 1.094.794 1.883 1.806 1.883.514 0 .891-.203 1.141-.526v.436h.785v-1.794l-.001-.002zm-7.357 0c0 1.088.763 1.884 1.926 1.884.544 0 .907-.12 1.298-.428l-.377-.63c-.294.21-.604.323-.946.323-.626-.008-1.087-.458-1.087-1.149 0-.69.461-1.14 1.087-1.148.341 0 .651.113.946.323l.377-.63c-.392-.308-.754-.428-1.298-.428-1.163 0-1.926.795-1.926 1.883zm10.122-1.883c-.453 0-.748.21-.952.526v-.435h-.778v3.586h.786v-2.01c0-.594.257-.924.77-.924a1.28 1.28 0 01.491.09l.242-.734a1.675 1.675 0 00-.559-.098zm-21.046.376c-.378-.247-.898-.375-1.473-.375-.914 0-1.503.435-1.503 1.148 0 .584.438.945 1.245 1.058l.371.052c.431.06.634.173.634.375 0 .278-.286.436-.823.436-.544 0-.936-.173-1.201-.375l-.369.608c.431.315.975.465 1.564.465 1.042 0 1.647-.487 1.647-1.17 0-.63-.476-.96-1.262-1.073l-.37-.053c-.34-.044-.612-.112-.612-.352 0-.263.257-.42.687-.42.461 0 .908.172 1.126.307l.34-.63-.001-.001zm10.131-.375c-.453 0-.748.21-.951.526v-.436h-.778v3.586h.785v-2.01c0-.594.257-.924.77-.924a1.28 1.28 0 01.491.09l.242-.734a1.68 1.68 0 00-.559-.098zm-6.7.09h-1.284v-1.088h-.794v1.088h-.732v.712h.732v1.636c0 .833.325 1.328 1.254 1.328.341 0 .733-.105.982-.277l-.227-.668a1.46 1.46 0 01-.695.203c-.392 0-.52-.24-.52-.6v-1.62h1.284v-.714zm-11.739 3.587v-2.25c0-.848-.544-1.419-1.421-1.426-.461-.008-.936.134-1.269.638-.249-.398-.642-.638-1.193-.638-.386 0-.763.112-1.058.532v-.443h-.786v3.586h.792v-1.988c0-.623.348-.954.885-.954.521 0 .785.338.785.946v1.995h.794v-1.988c0-.623.362-.953.883-.953.536 0 .792.337.792.945v1.996l.796.002z" fill-opacity=".7"/><path fill-rule="evenodd" clip-rule="evenodd" d="M225.574 36.234c2.807-2.05 4.623-5.316 4.623-8.993 0-3.678-1.816-6.943-4.623-8.994A11.722 11.722 0 01232.509 16c6.383 0 11.557 5.033 11.557 11.24 0 6.209-5.174 11.241-11.557 11.241-2.602 0-5.003-.836-6.935-2.247z" fill-opacity=".4"/><path fill-rule="evenodd" clip-rule="evenodd" d="M225.574 18.247c-2.807 2.051-4.623 5.316-4.623 8.994 0 3.677 1.816 6.942 4.623 8.993a11.722 11.722 0 01-6.935 2.247c-6.383 0-11.557-5.032-11.557-11.24S212.256 16 218.639 16c2.602 0 5.003.836 6.935 2.247z" fill-opacity=".3"/><path opacity=".7" fill-rule="evenodd" clip-rule="evenodd" d="M225.574 36.439c2.807-2.097 4.622-5.436 4.622-9.197 0-3.761-1.815-7.1-4.622-9.197-2.807 2.097-4.623 5.436-4.623 9.197 0 3.76 1.816 7.1 4.623 9.197z"/></g><rect x="20.537" y="20.5" width="30.963" height="23" rx="3.735" stroke="url(#paint2_linear_751_4749)"/><path d="M20 28.308h10.87c.687-2.219 2.622-6.79 4.857-7.328.83.306 2.769 1.405 3.886 3.359M20 36h10.87c0 3.81 3.238 6.594 4.857 7.51 2.72-.928 4.817-5.393 5.525-7.51H52m0-5.862H41.252c-.485-.956-1.166-3.163 0-4.335" stroke="url(#paint3_linear_751_4749)"/><g clip-path="url(#clip3_751_4749)"><path d="M63 30.104c.453.746 1.088 2.586 0 3.979m2.991-5.41c.68 1.182 1.632 4.204 0 6.84m2.652-8.332c.884 1.596 2.121 5.758 0 9.638M71.498 26c1.133 1.886 2.72 6.926 0 12" stroke="#fff" stroke-linecap="round" stroke-linejoin="round"/></g><path d="M20.132 145h1.08l.888-2.268h3.66l.888 2.268h1.116l-3.192-8.4h-1.236l-3.204 8.4zm2.28-3.216l1.512-4.044 1.524 4.044h-3.036zm11.006-2.304c-.456-.444-1.044-.672-1.788-.672-.888 0-1.56.3-2.016.9l-.132-.828h-.852V145h.984v-3.06c0-.684.156-1.224.492-1.632.324-.396.78-.6 1.356-.6.528 0 .936.168 1.224.504.288.336.432.816.432 1.44V145h.984v-3.408c0-.96-.228-1.656-.684-2.112zm7.807-2.88h-.984v3.216a2.132 2.132 0 00-.828-.732c-.36-.18-.78-.276-1.272-.276-.564 0-1.068.132-1.512.396a2.751 2.751 0 00-1.056 1.104c-.252.48-.372 1.02-.372 1.632 0 .648.12 1.212.372 1.68.252.48.6.84 1.044 1.08.444.252.948.372 1.524.372.888 0 1.584-.348 2.1-1.056l.132.984h.852v-8.4zm-1.944 7.32c-.312.192-.66.276-1.044.276-.612 0-1.104-.204-1.476-.624-.372-.42-.552-.96-.552-1.632 0-.66.18-1.2.552-1.62.372-.42.864-.636 1.476-.636.384 0 .732.096 1.044.288.312.192.552.468.72.816.168.348.252.744.252 1.176 0 .432-.084.828-.252 1.164-.168.336-.408.6-.72.792zm6.452-5.04h-.276c-.504 0-.888.084-1.164.252a1.932 1.932 0 00-.684.672l-.132-.924h-.852V145h.984v-3.12c0-.576.12-1.056.372-1.452.252-.384.672-.588 1.26-.588h.492v-.96zm.753 1.416c-.24.48-.36 1.02-.36 1.644 0 .624.12 1.164.372 1.644s.612.84 1.068 1.104c.456.264.984.384 1.596.384.696 0 1.284-.192 1.764-.588.48-.396.78-.912.9-1.536h-.996c-.108.396-.312.708-.624.924-.312.216-.684.324-1.116.324-.576 0-1.032-.18-1.38-.54-.36-.36-.54-.84-.552-1.44v-.084h4.752c.012-.192.024-.324.024-.42-.024-.588-.156-1.104-.396-1.548a2.655 2.655 0 00-1.02-1.008 3.166 3.166 0 00-1.488-.348c-.576 0-1.08.132-1.512.396a2.663 2.663 0 00-1.032 1.092zm4.428 1.02h-3.696c.048-.48.24-.876.6-1.188.348-.3.756-.456 1.224-.456.516 0 .948.144 1.284.432.336.288.54.696.588 1.212zm6.267.936H56.15c.024.552.168 1.044.432 1.476.264.432.648.756 1.14.996.48.24 1.056.348 1.716.348.576 0 1.092-.096 1.548-.312a2.384 2.384 0 001.056-.876c.252-.372.384-.804.384-1.284 0-.732-.252-1.26-.756-1.596-.504-.336-1.176-.576-2.016-.72-.528-.084-.948-.168-1.248-.264a1.846 1.846 0 01-.744-.408c-.192-.18-.288-.432-.288-.756 0-.432.156-.78.492-1.02.324-.24.768-.372 1.332-.372.552 0 1.02.156 1.404.444.372.3.588.696.66 1.176h1.032a2.631 2.631 0 00-.444-1.332 2.687 2.687 0 00-1.08-.912c-.456-.216-.984-.324-1.572-.324-.564 0-1.068.108-1.5.3a2.433 2.433 0 00-1.008.852c-.24.36-.36.78-.36 1.248 0 .744.24 1.272.744 1.596.492.336 1.164.564 2.004.708.528.096.936.18 1.248.276.312.096.564.228.756.42.192.192.3.456.3.78 0 .456-.18.804-.54 1.056-.36.252-.816.372-1.392.372-.648 0-1.176-.168-1.584-.504-.42-.336-.648-.792-.684-1.368zm12.21 1.848h-.3c-.277 0-.409-.144-.409-.444v-2.64c0-.708-.216-1.248-.648-1.632-.432-.384-1.032-.576-1.812-.576-.744 0-1.344.168-1.8.504-.456.336-.72.804-.792 1.404h.984c.06-.312.228-.552.504-.744.276-.192.624-.288 1.056-.288.48 0 .852.12 1.116.336.264.228.408.54.408.936v.42h-1.8c-.804 0-1.416.168-1.836.492-.42.336-.624.804-.624 1.416 0 .552.204.996.612 1.308.408.324.96.48 1.644.48.888 0 1.572-.336 2.052-1.02 0 .312.096.552.264.708.168.168.444.24.84.24h.54v-.9zm-1.693-1.896v.3c0 .528-.18.948-.516 1.26-.348.312-.816.468-1.416.468-.408 0-.732-.084-.972-.276a.862.862 0 01-.36-.732c0-.672.456-1.02 1.368-1.02h1.896zm11.005-2.748c-.432-.432-.984-.648-1.668-.648-.984 0-1.692.396-2.124 1.164a1.807 1.807 0 00-.768-.864 2.332 2.332 0 00-1.164-.3c-.756 0-1.356.312-1.788.912l-.132-.84h-.852V145h.984v-3.228c0-.612.144-1.104.432-1.488.288-.384.684-.576 1.188-.576.468 0 .828.156 1.092.468.252.312.384.768.384 1.356V145h.984v-3.276c0-.624.144-1.116.432-1.476.288-.36.696-.54 1.212-.54.456 0 .816.156 1.068.468.252.312.384.768.384 1.356V145h.984v-3.528c0-.912-.216-1.584-.648-2.016zm3.206 5.22c.456.264.984.396 1.584.396.588 0 1.116-.132 1.572-.396a2.812 2.812 0 001.08-1.104c.252-.468.384-1.008.384-1.632 0-.612-.132-1.152-.384-1.632a2.893 2.893 0 00-1.08-1.104c-.456-.264-.984-.396-1.572-.396-.6 0-1.128.132-1.584.396a2.78 2.78 0 00-1.068 1.104c-.264.48-.384 1.02-.384 1.632 0 .624.12 1.164.384 1.632.252.48.612.84 1.068 1.104zm2.64-.768c-.312.192-.66.288-1.056.288-.408 0-.756-.096-1.068-.288a1.85 1.85 0 01-.708-.804 2.594 2.594 0 01-.252-1.164c0-.432.084-.816.252-1.164a1.92 1.92 0 01.708-.804c.312-.192.66-.288 1.068-.288.396 0 .744.096 1.056.288.312.192.552.468.72.804.168.348.252.732.252 1.164 0 .432-.084.828-.252 1.164a1.876 1.876 0 01-.72.804zm3.913-.924h-.984c0 .66.252 1.176.732 1.536.48.372 1.128.552 1.932.552.444 0 .852-.072 1.224-.228.36-.144.66-.36.876-.648.216-.276.324-.6.324-.972 0-.42-.108-.756-.324-1.008a1.959 1.959 0 00-.84-.54c-.348-.108-.792-.192-1.32-.264-.384-.048-.672-.084-.864-.132a.826.826 0 01-.456-.228c-.12-.108-.18-.264-.18-.48 0-.276.12-.504.384-.672.252-.168.588-.264 1.008-.264.408 0 .744.108 1.02.312.264.216.42.48.468.792h.984c-.048-.624-.3-1.104-.756-1.44-.456-.336-1.032-.504-1.752-.504-.444 0-.84.084-1.188.24-.36.156-.636.372-.84.648a1.6 1.6 0 00-.3.96c0 .408.096.72.312.948.204.228.48.396.816.492a6.88 6.88 0 001.296.252c.372.048.66.096.864.144.204.048.372.144.504.264.12.132.192.312.192.552 0 .288-.144.516-.408.684-.264.168-.612.252-1.044.252-.492 0-.888-.108-1.2-.348a1.105 1.105 0 01-.48-.9zm11.004 1.116h-.3c-.276 0-.408-.144-.408-.444v-2.64c0-.708-.216-1.248-.648-1.632-.432-.384-1.032-.576-1.812-.576-.744 0-1.344.168-1.8.504-.456.336-.72.804-.792 1.404h.984c.06-.312.228-.552.504-.744.276-.192.624-.288 1.056-.288.48 0 .852.12 1.116.336.264.228.408.54.408.936v.42h-1.8c-.804 0-1.416.168-1.836.492-.42.336-.624.804-.624 1.416 0 .552.204.996.612 1.308.408.324.96.48 1.644.48.888 0 1.572-.336 2.052-1.02 0 .312.096.552.264.708.168.168.444.24.84.24h.54v-.9zm-1.692-1.896v.3c0 .528-.18.948-.516 1.26-.348.312-.816.468-1.416.468-.408 0-.732-.084-.972-.276a.862.862 0 01-.36-.732c0-.672.456-1.02 1.368-1.02h1.896zM21.022 74.482c-.392.756-.574 1.624-.574 2.618 0 1.008.182 1.876.574 2.632.392.756.938 1.33 1.666 1.736.728.42 1.582.616 2.562.616.756 0 1.442-.14 2.058-.448a3.77 3.77 0 001.47-1.26c.364-.532.588-1.162.672-1.876h-2.1c-.126.56-.378 1.008-.77 1.33-.392.322-.868.476-1.442.476-.784 0-1.414-.294-1.862-.882-.462-.588-.686-1.372-.686-2.324 0-.952.224-1.736.686-2.324.448-.588 1.078-.882 1.862-.882.574 0 1.05.168 1.442.49.392.322.644.756.77 1.316h2.1a4.253 4.253 0 00-.672-1.876 4.015 4.015 0 00-1.47-1.26 4.72 4.72 0 00-2.058-.448c-.98 0-1.834.21-2.562.616a4.186 4.186 0 00-1.666 1.75zm11.006 7.154c.574.308 1.246.448 2.002.448.756 0 1.414-.14 1.988-.448.574-.308 1.022-.728 1.33-1.288.308-.56.476-1.204.476-1.946a3.95 3.95 0 00-.476-1.932c-.308-.56-.756-.98-1.33-1.288-.574-.308-1.232-.462-1.988-.462s-1.428.154-2.002.462c-.574.308-1.022.728-1.33 1.288-.308.56-.462 1.204-.462 1.932s.154 1.372.462 1.932c.308.56.756.994 1.33 1.302zm3.304-1.736c-.322.392-.756.574-1.302.574s-.98-.182-1.302-.574c-.322-.378-.476-.882-.476-1.498s.154-1.106.476-1.498c.322-.378.756-.574 1.302-.574s.98.196 1.302.574c.322.392.49.882.49 1.498s-.168 1.12-.49 1.498zm5.385-7.77a1.143 1.143 0 00-.812-.322c-.336 0-.602.112-.826.322-.224.21-.322.476-.322.784 0 .322.098.588.322.798.224.224.49.322.826.322.322 0 .588-.098.812-.322.21-.21.322-.476.322-.798 0-.308-.112-.574-.322-.784zm-1.806 2.674V82h1.974v-7.196H38.91zm9.551.7c-.546-.518-1.232-.784-2.072-.784-.532 0-.966.098-1.316.266a2.521 2.521 0 00-.91.714l-.182-.896H42.26V82h1.974v-3.682c0-.616.14-1.106.42-1.456.28-.336.672-.518 1.19-.518.966 0 1.456.63 1.456 1.862V82h1.974v-3.906c0-1.204-.28-2.058-.812-2.59zm7.922-.336a3.358 3.358 0 00-1.722-.448c-.896 0-1.624.336-2.17.994V72.2h-1.974V82h1.722l.196-.98c.238.336.546.588.924.784.364.196.812.28 1.316.28.63 0 1.204-.154 1.708-.462a3.124 3.124 0 001.176-1.302c.28-.56.434-1.204.434-1.932 0-.742-.154-1.386-.434-1.946s-.672-.98-1.176-1.274zm-.882 4.732c-.336.392-.756.574-1.288.574s-.966-.182-1.274-.574c-.322-.378-.476-.882-.476-1.512 0-.616.154-1.106.476-1.484.308-.378.742-.574 1.274-.574s.952.196 1.288.574c.322.392.49.882.49 1.498s-.168 1.12-.49 1.498zm10.672.434h-.224c-.168 0-.28-.028-.35-.098-.084-.056-.112-.182-.112-.364v-2.534c0-.84-.28-1.498-.84-1.946-.56-.448-1.344-.672-2.352-.672-.98 0-1.75.21-2.338.616-.588.406-.924.98-.98 1.708h1.904c.042-.266.182-.476.42-.644.224-.154.532-.238.896-.238.406 0 .728.098.98.294a.95.95 0 01.364.77v.35h-1.428c-1.078 0-1.904.21-2.464.63-.56.42-.84 1.008-.84 1.764 0 .672.238 1.204.728 1.568.49.364 1.134.546 1.946.546.532 0 .994-.098 1.386-.322.378-.21.7-.518.966-.938-.028.784.42 1.176 1.33 1.176h1.008v-1.666zm-2.632-1.442v.14c-.014.504-.168.896-.462 1.19-.308.294-.714.434-1.218.434-.336 0-.588-.07-.784-.224-.196-.14-.28-.35-.28-.602 0-.294.112-.518.336-.686.224-.168.546-.252.966-.252h1.442zm9.598-3.388c-.546-.518-1.232-.784-2.072-.784-.532 0-.966.098-1.316.266a2.521 2.521 0 00-.91.714l-.182-.896h-1.722V82h1.974v-3.682c0-.616.14-1.106.42-1.456.28-.336.672-.518 1.19-.518.966 0 1.456.63 1.456 1.862V82h1.974v-3.906c0-1.204-.28-2.058-.812-2.59zm2.056-3.304V82h1.974v-1.75l1.078-1.162L80.068 82h2.282l-2.702-4.382 2.562-2.814h-2.212L77.17 77.87V72.2h-1.974zm24.46 2.08l-.36-.852-1.32.636.036-1.476h-.888l.036 1.464-1.308-.624-.36.84 1.416.528-.984 1.116.684.6.948-1.248.96 1.26.696-.6-.984-1.116 1.428-.528zm5.205 0l-.36-.852-1.32.636.036-1.476h-.888l.036 1.464-1.308-.624-.36.84 1.416.528-.984 1.116.684.6.948-1.248.96 1.26.696-.6-.984-1.116 1.428-.528zm5.204 0l-.36-.852-1.32.636.036-1.476h-.888l.036 1.464-1.308-.624-.36.84 1.416.528-.984 1.116.684.6.948-1.248.96 1.26.696-.6-.984-1.116 1.428-.528zm5.205 0l-.36-.852-1.32.636.036-1.476h-.888l.036 1.464-1.308-.624-.36.84 1.416.528-.984 1.116.684.6.948-1.248.96 1.26.696-.6-.984-1.116 1.428-.528zm9.018 1.416c-.42-.24-.888-.36-1.416-.36-.372 0-.72.072-1.056.192a2.11 2.11 0 00-.864.576l.156-2.34h4.008V72.6h-5.232l-.252 4.836 1.284.024c.132-.384.36-.648.696-.804a2.46 2.46 0 01.996-.228c.504 0 .912.168 1.224.492.312.336.468.756.468 1.26 0 .384-.084.696-.24.96a1.604 1.604 0 01-.636.6c-.264.144-.54.204-.828.204-.504 0-.912-.144-1.236-.456-.336-.3-.516-.684-.564-1.14h-1.32c.024.504.168.972.432 1.38.252.408.612.732 1.068.972.456.24.996.36 1.62.36.552 0 1.068-.108 1.536-.336a2.647 2.647 0 001.104-.984c.264-.432.408-.948.408-1.56 0-.552-.12-1.044-.36-1.476a2.594 2.594 0 00-.996-1.008zm2.086 2.232v1.128h4.296V81h1.308v-1.944h1.272v-1.152h-1.272V72.6h-1.608l-3.996 5.328zm1.332-.024l2.964-3.936v3.936h-2.964zm6.554.528c.12.492.288.924.528 1.284a2.9 2.9 0 001.08 1.008c.432.24.936.348 1.512.348s1.104-.12 1.56-.36c.456-.24.816-.576 1.068-1.008.252-.432.384-.912.384-1.464 0-.552-.12-1.044-.36-1.476a2.487 2.487 0 00-.996-.996 2.988 2.988 0 00-1.476-.36c-.504 0-.936.108-1.32.324-.384.216-.66.516-.852.888a.489.489 0 00-.072.132c-.012.036-.024.06-.024.072V76.5c0-.876.168-1.572.528-2.088.348-.516.84-.78 1.476-.78.432 0 .792.12 1.08.336.288.228.468.54.564.936h1.32c-.108-.732-.42-1.308-.936-1.74-.516-.42-1.164-.636-1.932-.636-.696 0-1.284.18-1.776.516-.504.348-.876.84-1.14 1.488-.264.648-.396 1.428-.396 2.328 0 .564.06 1.092.18 1.572zm4.356-1.44c.3.324.456.744.456 1.248 0 .516-.156.936-.468 1.26-.312.324-.732.48-1.236.48s-.912-.156-1.224-.48c-.312-.312-.468-.732-.468-1.248s.156-.936.48-1.26c.312-.324.732-.492 1.248-.492.504 0 .9.168 1.212.492zm5.644-4.392h-1.296v.924c0 .24-.06.42-.156.564a.542.542 0 01-.456.216h-1.32v1.128h1.38c.228 0 .408-.036.528-.108V81h1.32v-8.4zm26.864 67.948a7.355 7.355 0 00-1.404-.384c-.54-.096-.948-.18-1.236-.264-.288-.072-.528-.192-.696-.36-.168-.156-.252-.372-.252-.648 0-.384.144-.672.432-.888.288-.216.684-.324 1.176-.324.504 0 .912.132 1.248.396.324.264.516.612.564 1.044h1.356a2.526 2.526 0 00-.72-1.668c-.444-.456-1.032-.756-1.752-.876v-1.272h-1.164v1.236c-.768.096-1.38.36-1.836.804a2.21 2.21 0 00-.684 1.644c0 .528.12.948.36 1.26.24.324.564.564.948.72.384.156.852.276 1.404.372.528.096.948.192 1.248.276.288.096.528.216.696.384a.894.894 0 01.264.66c0 .396-.168.708-.48.924-.312.216-.732.324-1.236.324-.588 0-1.068-.144-1.428-.444-.36-.3-.564-.696-.6-1.2l-1.356-.024c.012.744.264 1.356.744 1.86s1.14.816 1.956.924v1.26h1.164v-1.236c.504-.048.96-.192 1.356-.432.396-.24.708-.54.924-.9a2.34 2.34 0 00.336-1.224c0-.504-.132-.924-.372-1.236a2.478 2.478 0 00-.96-.708zm1.983-3.948v1.164h4.572L173.767 145h1.44l3.936-7.512v-.888h-6.036zm7.358 7.248a.95.95 0 00-.78-.396.928.928 0 00-.66.24.755.755 0 00-.252.576c0 .252.06.444.192.576.132.132.3.192.516.192a.622.622 0 00.396-.12c0 .036.012.084.012.156 0 .24-.096.456-.264.624-.18.18-.444.276-.792.276v.696c.6 0 1.068-.168 1.416-.492.336-.312.516-.768.516-1.344 0-.384-.108-.72-.3-.984zm4.375-2.664l-3.228 2.748V145h5.952v-1.164h-4.056l2.232-1.86c.588-.492 1.032-.948 1.332-1.38a2.63 2.63 0 00.444-1.5c0-.78-.264-1.404-.78-1.872-.528-.468-1.248-.708-2.184-.708-.588 0-1.104.12-1.536.36-.444.24-.792.576-1.032.984-.24.42-.36.888-.36 1.416v.228h1.332v-.156c0-.504.144-.912.432-1.224.288-.312.684-.468 1.164-.468.492 0 .888.132 1.176.396.288.264.432.636.432 1.104 0 .372-.12.708-.336 1.02-.216.312-.552.648-.984 1.008zm8.596-1.488c-.42-.24-.888-.36-1.416-.36-.372 0-.72.072-1.056.192a2.11 2.11 0 00-.864.576l.156-2.34h4.008V136.6h-5.232l-.252 4.836 1.284.024c.132-.384.36-.648.696-.804a2.46 2.46 0 01.996-.228c.504 0 .912.168 1.224.492.312.336.468.756.468 1.26 0 .384-.084.696-.24.96a1.604 1.604 0 01-.636.6c-.264.144-.54.204-.828.204-.504 0-.912-.144-1.236-.456-.336-.3-.516-.684-.564-1.14h-1.32c.024.504.168.972.432 1.38.252.408.612.732 1.068.972.456.24.996.36 1.62.36.552 0 1.068-.108 1.536-.336a2.647 2.647 0 001.104-.984c.264-.432.408-.948.408-1.56 0-.552-.12-1.044-.36-1.476a2.594 2.594 0 00-.996-1.008zm2.085 2.232v1.128h4.296V145h1.308v-1.944h1.273v-1.152h-1.273V136.6h-1.608l-3.996 5.328zm1.332-.024l2.964-3.936v3.936h-2.964zm6.451 1.764a.787.787 0 00-.228.588c0 .24.072.444.228.588.156.156.36.228.6.228s.432-.072.6-.228a.777.777 0 00.24-.588.796.796 0 00-.24-.588.887.887 0 00-.6-.228.865.865 0 00-.6.228zm1.906-3.06v.384c0 .84.132 1.56.408 2.172.276.624.66 1.092 1.164 1.416.504.336 1.08.492 1.74.492.648 0 1.212-.156 1.716-.492.504-.324.888-.792 1.164-1.416.276-.612.42-1.332.42-2.172v-.384c0-.792-.144-1.5-.42-2.124-.288-.624-.672-1.104-1.176-1.44a3.003 3.003 0 00-1.704-.516c-.648 0-1.224.18-1.728.516s-.9.816-1.176 1.44c-.276.624-.408 1.332-.408 2.124zm4.74-2.124c.36.528.54 1.248.54 2.172v.288c0 .936-.18 1.656-.54 2.184-.36.528-.828.78-1.428.78s-1.08-.252-1.44-.78c-.36-.528-.54-1.248-.54-2.184v-.288c0-.924.18-1.644.54-2.172.36-.528.84-.792 1.44-.792s1.068.264 1.428.792zm2.937 2.124v.384c0 .84.132 1.56.408 2.172.276.624.66 1.092 1.164 1.416.504.336 1.08.492 1.74.492.648 0 1.212-.156 1.716-.492.504-.324.888-.792 1.164-1.416.276-.612.42-1.332.42-2.172v-.384c0-.792-.144-1.5-.42-2.124-.288-.624-.672-1.104-1.176-1.44a3.003 3.003 0 00-1.704-.516c-.648 0-1.224.18-1.728.516s-.9.816-1.176 1.44c-.276.624-.408 1.332-.408 2.124zm4.74-2.124c.36.528.54 1.248.54 2.172v.288c0 .936-.18 1.656-.54 2.184-.36.528-.828.78-1.428.78s-1.08-.252-1.44-.78c-.36-.528-.54-1.248-.54-2.184v-.288c0-.924.18-1.644.54-2.172.36-.528.84-.792 1.44-.792s1.068.264 1.428.792z" fill="#fff"/><path d="M229.21 140.357a.753.753 0 01-.121-.245.603.603 0 010-.224.753.753 0 01.121-.245c.563-.891 2.238-3.143 4.79-3.143 2.553 0 4.228 2.252 4.79 3.143a.78.78 0 01.122.245.603.603 0 010 .224.78.78 0 01-.122.245c-.562.891-2.237 3.143-4.79 3.143-2.552 0-4.227-2.252-4.79-3.143z" stroke="#fff" stroke-linecap="round" stroke-linejoin="round"/><path d="M234 141.5a1.5 1.5 0 100-3 1.5 1.5 0 000 3z" stroke="#fff" stroke-linecap="round" stroke-linejoin="round"/></g><defs><linearGradient id="paint0_linear_751_4749" x1="232" y1="-44.162" x2="232" y2="96.161" gradientUnits="userSpaceOnUse"><stop stop-color="#5B66FA"/><stop offset="1" stop-color="#EFD3EF"/></linearGradient><linearGradient id="paint1_linear_751_4749" x1="232" y1="-44.162" x2="232" y2="96.161" gradientUnits="userSpaceOnUse"><stop stop-color="#5B66FA"/><stop offset="1" stop-color="#EFD3EF"/></linearGradient><linearGradient id="paint2_linear_751_4749" x1="21.239" y1="20.391" x2="51.95" y2="40.06" gradientUnits="userSpaceOnUse"><stop stop-color="#B0A3F5"/><stop offset=".495" stop-color="#fff"/><stop offset="1" stop-color="#7259ED"/></linearGradient><linearGradient id="paint3_linear_751_4749" x1="21.203" y1="21.348" x2="50.769" y2="41.541" gradientUnits="userSpaceOnUse"><stop stop-color="#B0A3F5"/><stop offset=".495" stop-color="#fff"/><stop offset="1" stop-color="#7259ED"/></linearGradient><clipPath id="clip0_751_4749"><rect width="264" height="164" rx="12" fill="#fff"/></clipPath><clipPath id="clip1_751_4749"><path fill="#fff" transform="translate(157 -49)" d="M0 0h150v150H0z"/></clipPath><clipPath id="clip2_751_4749"><path fill="#fff" transform="translate(204 16)" d="M0 0h44v34H0z"/></clipPath><clipPath id="clip3_751_4749"><path fill="#fff" transform="rotate(90 26 50)" d="M0 0h16v16H0z"/></clipPath><filter id="filter0_bii_751_4749" x="-30.247" y="85.753" width="324.494" height="108.494" filterUnits="userSpaceOnUse" color-interpolation-filters="sRGB"><feFlood flood-opacity="0" result="BackgroundImageFix"/><feGaussianBlur in="BackgroundImageFix" stdDeviation="15.124"/><feComposite in2="SourceAlpha" operator="in" result="effect1_backgroundBlur_751_4749"/><feBlend in="SourceGraphic" in2="effect1_backgroundBlur_751_4749" result="shape"/><feColorMatrix in="SourceAlpha" values="0 0 0 0 0 0 0 0 0 0 0 0 0 0 0 0 0 0 127 0" result="hardAlpha"/><feOffset dx="-.242" dy="-.242"/><feGaussianBlur stdDeviation=".181"/><feComposite in2="hardAlpha" operator="arithmetic" k2="-1" k3="1"/><feColorMatrix values="0 0 0 0 0 0 0 0 0 0 0 0 0 0 0 0 0 0 0.36 0"/><feBlend in2="shape" result="effect2_innerShadow_751_4749"/><feColorMatrix in="SourceAlpha" values="0 0 0 0 0 0 0 0 0 0 0 0 0 0 0 0 0 0 127 0" result="hardAlpha"/><feOffset dx=".605" dy=".484"/><feGaussianBlur stdDeviation=".242"/><feComposite in2="hardAlpha" operator="arithmetic" k2="-1" k3="1"/><feColorMatrix values="0 0 0 0 1 0 0 0 0 1 0 0 0 0 1 0 0 0 0.25 0"/><feBlend in2="effect2_innerShadow_751_4749" result="effect3_innerShadow_751_4749"/></filter></defs></svg>