<svg width="544" height="250" fill="none" xmlns="http://www.w3.org/2000/svg"><g clip-path="url(#clip0_751_4710)"><rect x="-16.4" y="122.6" width="98.8" height="38.8" rx="15.4" stroke="url(#paint0_linear_751_4710)" stroke-width="1.2"/><rect x="-24.4" y="26.6" width="194.8" height="62.8" rx="23.4" stroke="url(#paint1_linear_751_4710)" stroke-width="1.2"/><rect x="31.6" y="146.6" width="178.8" height="46.8" rx="23.4" stroke="url(#paint2_linear_751_4710)" stroke-width="1.2"/><rect x="579.4" y="113.4" width="194.8" height="62.8" rx="23.4" transform="rotate(-180 579.4 113.4)" stroke="url(#paint3_linear_751_4710)" stroke-width="1.2"/><rect x="616.4" y="201.4" width="162.8" height="38.8" rx="15.4" transform="rotate(-180 616.4 201.4)" stroke="url(#paint4_linear_751_4710)" stroke-width="1.2"/><rect x="520.4" y="193.4" width="162.8" height="46.8" rx="15.4" transform="rotate(-180 520.4 193.4)" stroke="url(#paint5_linear_751_4710)" stroke-width="1.2"/><g clip-path="url(#clip1_751_4710)"><path fill="#DEDAFB" d="M173.723 19.63l255.004 68.328-42.446 158.412-255.004-68.328z"/><path d="M174.751 97.015c-.574.629-.975 1.42-1.232 2.38-.261.974-.31 1.859-.127 2.691a4.073 4.073 0 001.16 2.108c.595.594 1.369 1.005 2.315 1.258.731.196 1.429.238 2.104.1a3.76 3.76 0 001.746-.837c.489-.419.869-.97 1.135-1.638l-2.029-.543c-.266.508-.626.876-1.088 1.085-.462.21-.961.235-1.516.087-.757-.203-1.289-.65-1.57-1.334-.294-.688-.307-1.503-.061-2.422.246-.92.666-1.62 1.264-2.068.585-.452 1.27-.573 2.027-.37.554.149.971.434 1.266.847.295.412.426.897.403 1.47l2.028.544a4.245 4.245 0 00-.163-1.986 4.009 4.009 0 00-1.094-1.598 4.723 4.723 0 00-1.872-.965c-.946-.254-1.826-.272-2.634-.068a4.183 4.183 0 00-2.062 1.259zm8.779 9.759c.475.446 1.088.755 1.818.951.73.195 1.402.23 2.036.081.635-.149 1.176-.438 1.618-.899.443-.462.772-1.04.964-1.757a3.948 3.948 0 00.04-1.989c-.152-.621-.476-1.143-.951-1.589-.475-.446-1.071-.765-1.801-.96-.73-.196-1.419-.221-2.053-.072-.634.149-1.176.438-1.618.9-.443.461-.758 1.043-.947 1.746-.188.703-.206 1.365-.053 1.986.152.62.473 1.156.947 1.602zm3.641-.822c-.412.295-.879.359-1.406.217-.527-.141-.9-.429-1.109-.891-.213-.448-.232-.975-.072-1.57.159-.595.435-1.029.847-1.324.409-.282.879-.359 1.406-.217.528.141.896.443 1.11.891.209.462.245.979.085 1.574-.159.595-.452 1.038-.861 1.32zm7.212-6.112a1.143 1.143 0 00-.701-.52 1.152 1.152 0 00-.881.096c-.271.145-.434.377-.514.674-.083.311-.057.594.105.855.158.274.39.437.714.524.311.084.593.058.868-.101.257-.148.434-.376.517-.687.08-.297.041-.583-.108-.84zm-2.436 2.116l-1.863 6.951 1.907.511 1.862-6.951-1.906-.511zm9.045 3.148c-.394-.642-.987-1.076-1.799-1.293-.514-.138-.958-.156-1.34-.084a2.524 2.524 0 00-1.064.454l.056-.913-1.663-.445-1.862 6.951 1.906.51.953-3.556c.16-.595.422-1.032.783-1.298.357-.252.783-.326 1.283-.192.934.25 1.244.985.925 2.175l-.982 3.665 1.907.511 1.011-3.773c.311-1.163.262-2.06-.114-2.712zm7.738 1.726a3.352 3.352 0 00-1.547-.879c-.865-.231-1.656-.095-2.353.399l.909-3.394-1.906-.511-2.537 9.466 1.663.446.443-.896c.143.386.376.709.69.996.301.284.712.481 1.199.611a3.221 3.221 0 001.769-.004 3.122 3.122 0 001.473-.953 4.273 4.273 0 00.919-1.754c.192-.717.21-1.379.085-1.992a2.967 2.967 0 00-.807-1.535zm-2.076 4.342c-.426.292-.879.359-1.393.221-.514-.137-.886-.425-1.082-.884-.213-.448-.231-.975-.068-1.583.159-.595.435-1.029.844-1.311.395-.285.865-.362 1.379-.224.514.137.868.435 1.095.887.21.462.245.979.086 1.574-.16.595-.452 1.039-.861 1.32zm10.196 3.182l-.216-.058c-.163-.044-.264-.1-.313-.185-.067-.076-.061-.205-.014-.381l.656-2.448c.217-.811.117-1.519-.308-2.097-.425-.577-1.124-.997-2.098-1.258-.946-.253-1.744-.25-2.418-.01a2.195 2.195 0 00-1.388 1.396l1.839.493c.109-.246.299-.412.572-.513.257-.091.576-.092.927.002.393.105.678.283.871.537a.948.948 0 01.152.838l-.09.339-1.38-.37c-1.041-.279-1.893-.29-2.543-.029-.649.26-1.072.756-1.268 1.486-.174.649-.082 1.225.298 1.703.379.479.954.821 1.738 1.031.514.138.985.163 1.422.048a2.68 2.68 0 001.176-.656c-.23.75.101 1.245.98 1.48l.974.261.431-1.609zm-2.169-2.074l-.036.135c-.144.483-.394.822-.755 1.03-.373.204-.802.234-1.288.104-.325-.087-.55-.22-.7-.42-.153-.185-.18-.41-.114-.653a.805.805 0 01.502-.576c.26-.104.592-.102.998.006l1.393.374zm10.147-.789c-.393-.641-.987-1.076-1.798-1.293-.514-.138-.958-.156-1.34-.084a2.524 2.524 0 00-1.064.454l.056-.912-1.663-.446-1.862 6.951 1.906.511.953-3.557c.16-.595.422-1.032.783-1.298.357-.252.783-.326 1.283-.192.933.25 1.244.985.925 2.175l-.982 3.665 1.907.511 1.01-3.773c.312-1.163.263-2.06-.114-2.712zm2.841-2.659l-2.536 9.466 1.907.511.453-1.691 1.342-.843 1.004 3.284 2.204.591-1.476-4.932 3.203-2.056-2.136-.572-3.525 2.23 1.467-5.477-1.907-.511zm23.089 8.34l-.128-.916-1.439.272.417-1.416-.858-.23-.344 1.423-1.102-.941-.565.718 1.231.877-1.24.823.506.757 1.239-.96.601 1.465.827-.399-.661-1.333 1.516-.14zm5.027 1.347l-.127-.916-1.44.272.417-1.416-.858-.23-.344 1.423-1.102-.941-.565.718 1.231.877-1.239.823.505.757 1.239-.96.601 1.465.828-.399-.662-1.333 1.516-.14zm5.027 1.347l-.127-.916-1.44.272.417-1.416-.858-.23-.344 1.424-1.102-.942-.565.718 1.231.877-1.239.823.505.757 1.239-.96.601 1.465.828-.399-.662-1.333 1.516-.14zm5.027 1.347l-.127-.916-1.44.272.417-1.416-.858-.23-.344 1.424-1.102-.942-.565.718 1.231.877-1.239.823.505.757 1.239-.96.601 1.465.828-.399-.662-1.333 1.516-.14zm6.326 4.701l-3.829 1.819-.277 1.032 5.749 1.54.302-1.124-3.918-1.05 2.637-1.219c.696-.323 1.242-.648 1.644-.988.39-.343.668-.778.817-1.334.202-.753.108-1.425-.269-2.01-.389-.589-1.022-1.007-1.926-1.249-.568-.152-1.098-.17-1.577-.05a2.636 2.636 0 00-1.252.683c-.34.344-.577.765-.714 1.275l-.059.22 1.287.345.04-.151c.131-.487.375-.844.734-1.07.359-.227.782-.275 1.246-.151.475.127.823.357 1.033.687.21.329.253.726.132 1.178a1.759 1.759 0 01-.589.898c-.289.246-.701.483-1.211.719zm3.482 2.225c-.011.507.039.967.178 1.377.155.489.416.907.782 1.253.356.344.814.579 1.371.728.556.149 1.097.17 1.6.056a2.625 2.625 0 001.292-.697 2.83 2.83 0 00.75-1.315c.143-.533.154-1.04.034-1.519a2.491 2.491 0 00-.704-1.22 2.994 2.994 0 00-1.332-.73 2.632 2.632 0 00-1.359-.028 2.09 2.09 0 00-1.053.637.49.49 0 00-.104.109c-.021.032-.039.052-.042.063l.084-.313c.227-.846.569-1.475 1.051-1.88.469-.408 1.013-.536 1.627-.371.418.111.734.321.956.604.22.295.313.642.303 1.05l1.275.341c.085-.735-.067-1.372-.454-1.922-.389-.54-.959-.916-1.701-1.115-.673-.18-1.287-.158-1.849.039-.577.206-1.064.585-1.487 1.142-.422.558-.752 1.277-.985 2.146a6.537 6.537 0 00-.233 1.565zm4.581-.263c.206.39.248.836.117 1.323-.133.499-.393.864-.778 1.096-.385.232-.831.274-1.318.144-.487-.13-.841-.387-1.058-.78-.221-.383-.263-.829-.129-1.327.133-.498.393-.864.789-1.093.386-.232.835-.286 1.333-.152.487.13.826.395 1.044.789zm8.193 2.543c-.243-.438-.613-.773-1.095-1.014.465.025.88-.087 1.272-.342.377-.247.633-.601.757-1.065.112-.417.099-.83-.035-1.214-.145-.387-.404-.717-.772-1.014-.367-.298-.841-.524-1.397-.673-.568-.152-1.091-.193-1.558-.119-.467.073-.857.23-1.164.495-.319.263-.526.617-.638 1.035-.127.475-.093.906.109 1.308.192.399.495.704.911.915-.541-.021-1.018.088-1.435.349-.418.26-.702.669-.848 1.214-.118.44-.107.865.043 1.278.139.41.415.77.817 1.076.403.307.923.546 1.549.713.625.168 1.183.218 1.685.154s.921-.238 1.258-.52a2.17 2.17 0 00.676-1.086c.149-.557.096-1.055-.135-1.49zm-2.725-4.296c.34-.157.742-.173 1.194-.052.441.118.78.333.996.639.217.307.29.637.196.985-.096.359-.324.608-.665.766-.34.157-.739.162-1.179.044-.452-.121-.795-.325-1.011-.631a1.079 1.079 0 01-.193-.996c.093-.348.31-.6.662-.755zm.841 6.226c-.393.168-.844.184-1.343.05-.51-.136-.893-.376-1.149-.718a1.233 1.233 0 01-.223-1.115c.106-.394.355-.675.751-.855.396-.18.85-.207 1.36-.07.487.13.867.381 1.12.735.254.353.34.724.235 1.118a1.235 1.235 0 01-.751.855zm3.583-2.22l-.099.371c-.218.811-.276 1.541-.168 2.203.105.675.355 1.226.758 1.67.4.455.916.754 1.553.925.626.168 1.211.163 1.785-.031.571-.183 1.063-.535 1.491-1.066.425-.52.75-1.178.968-1.99l.099-.371c.205-.765.249-1.486.144-2.16-.117-.677-.363-1.24-.763-1.695a3.006 3.006 0 00-1.513-.94 3.057 3.057 0 00-1.802.051c-.574.195-1.081.556-1.509 1.087-.428.531-.739 1.181-.944 1.946zm5.128-.825c.212.603.199 1.345-.04 2.238l-.075.278c-.242.904-.602 1.553-1.086 1.97-.485.417-1.002.539-1.582.384-.579-.156-.978-.523-1.189-1.126-.211-.604-.198-1.346.044-2.25l.074-.278c.24-.892.6-1.541 1.084-1.958.485-.417 1.017-.548 1.596-.392.58.155.963.531 1.174 1.134z" fill="#0E0637"/><g filter="url(#filter0_bi_751_4710)"><path d="M143.699 131.677l255.005 68.328-12.424 46.365-255.004-68.328 12.423-46.365z" fill="#fff" fill-opacity=".5"/></g><path d="M162.7 162.754l-.29-.078c-.267-.071-.357-.245-.279-.534l.683-2.55c.183-.684.114-1.262-.204-1.745-.317-.482-.847-.823-1.601-1.025-.718-.192-1.341-.185-1.869.021-.527.207-.903.59-1.128 1.151l.95.255c.139-.286.363-.474.68-.588.316-.114.677-.117 1.094-.005.464.124.792.336.991.613.196.289.255.627.152 1.01l-.109.406-1.738-.466c-.777-.208-1.412-.204-1.901 0-.493.216-.811.615-.969 1.206-.143.533-.061 1.015.252 1.422.311.418.803.712 1.464.889.858.23 1.605.082 2.246-.454-.081.301-.05.558.072.752.119.206.367.347.749.449l.522.14.233-.869zm-1.144-2.27l-.078.29c-.136.51-.419.869-.824 1.084-.417.211-.909.241-1.489.085-.394-.105-.685-.27-.867-.518a.862.862 0 01-.159-.8c.174-.649.705-.867 1.586-.631l1.831.49zm2.963 1.602l-.95-.255c-.171.638-.061 1.201.309 1.673.367.484.947.825 1.723 1.034a3.14 3.14 0 001.242.096c.385-.046.73-.177 1.014-.399.28-.211.468-.496.564-.855.109-.406.091-.758-.052-1.058a1.97 1.97 0 00-.672-.739c-.308-.194-.715-.39-1.206-.596-.359-.146-.628-.255-.801-.351a.83.83 0 01-.381-.339c-.088-.135-.106-.301-.05-.51.072-.266.247-.456.545-.55.287-.097.636-.102 1.042.006.394.106.691.297.904.566.2.277.282.572.248.886l.95.254c.115-.615-.004-1.144-.358-1.586-.353-.443-.866-.754-1.561-.94a2.87 2.87 0 00-1.21-.076 2.005 2.005 0 00-.979.408 1.599 1.599 0 00-.538.85c-.106.394-.094.72.056.997.138.273.361.506.661.686.296.191.692.384 1.186.579.347.142.613.263.797.363.185.099.322.235.419.385.082.159.105.351.043.583-.075.278-.273.461-.572.555-.298.094-.656.085-1.073-.027-.475-.127-.83-.334-1.069-.647a1.102 1.102 0 01-.231-.993zm5.47-2.783l.326 6.435 1.046.268 2.661-3.995.248 4.775 1.044.279 3.554-5.383-.962-.258-2.83 4.397-.184-5.204-.881-.236-2.842 4.394-.183-5.205-.997-.267zm13.633 9.057l-.29-.078c-.266-.071-.357-.244-.279-.534l.683-2.55c.184-.684.115-1.262-.203-1.744-.318-.483-.848-.824-1.601-1.026-.719-.192-1.342-.185-1.869.021-.528.207-.904.59-1.129 1.151l.951.255c.138-.286.363-.474.679-.588.316-.114.677-.117 1.095-.005.463.124.792.336.991.613.196.289.254.628.151 1.01l-.108.406-1.739-.466c-.777-.208-1.411-.204-1.901 0-.492.216-.811.615-.969 1.206-.143.533-.061 1.015.253 1.422.31.419.803.712 1.463.889.858.23 1.606.082 2.247-.454-.081.301-.051.558.071.752.119.206.367.347.75.449l.521.14.233-.869zm-1.144-2.269l-.077.289c-.137.51-.419.869-.825 1.084-.417.211-.909.241-1.489.085-.394-.105-.685-.27-.867-.518a.861.861 0 01-.158-.8c.174-.649.704-.867 1.585-.631l1.831.491zm3.874-4.764l-2.174 8.114.95.254 2.174-8.114-.95-.254zm2.31.619l-2.174 8.114.951.254 2.174-8.113-.951-.255zm1.493 4.226c-.356.402-.611.892-.773 1.495-.161.603-.185 1.156-.066 1.684.119.529.374.97.746 1.343s.851.626 1.442.784c.672.18 1.29.147 1.856-.111.566-.259.99-.679 1.267-1.251l-.962-.258c-.207.355-.485.603-.842.731s-.744.136-1.162.024c-.556-.149-.95-.441-1.193-.878-.254-.441-.304-.952-.16-1.534l.021-.081 4.59 1.23c.062-.183.107-.307.132-.4.129-.574.135-1.107.018-1.598a2.648 2.648 0 00-.724-1.237 3.167 3.167 0 00-1.347-.722c-.557-.149-1.078-.152-1.563-.008-.497.14-.927.397-1.28.787zm4.014 2.132l-3.571-.957c.171-.451.459-.784.888-.992a1.82 1.82 0 011.3-.124c.498.134.878.385 1.128.75.25.365.342.812.255 1.323zm2.851-.827l-.938 3.501c-.143.533-.132.958.034 1.264.164.317.538.542 1.095.691l1.089.292.233-.87-1.031-.276c-.244-.065-.405-.158-.47-.287-.065-.13-.065-.316.004-.571l.935-3.489 1.495.401.233-.87-1.496-.4.445-1.658-.951-.254-.444 1.657-1.066-.286-.233.87 1.066.285zm2.42 4.935a.624.624 0 00-.31.414c-.052.197-.038.375.058.525.085.147.232.248.429.301.186.05.363.035.522-.046a.68.68 0 00.313-.426.672.672 0 00-.062-.513.721.721 0 00-.425-.313.677.677 0 00-.525.058zm3.069-2.93c-.356.402-.612.893-.773 1.495-.162.603-.186 1.156-.066 1.685.119.528.373.969.745 1.342.373.373.852.626 1.443.784.672.18 1.29.147 1.856-.111a2.562 2.562 0 001.267-1.251l-.962-.258c-.207.355-.485.604-.842.731-.358.128-.745.136-1.162.025-.556-.15-.95-.441-1.193-.879-.255-.441-.305-.951-.161-1.534l.022-.081 4.59 1.23c.061-.183.107-.307.132-.4.129-.574.135-1.107.018-1.598a2.656 2.656 0 00-.724-1.237 3.159 3.159 0 00-1.348-.721c-.556-.15-1.077-.152-1.563-.009-.497.14-.926.398-1.279.787zm4.013 2.132l-3.57-.957c.171-.451.459-.784.887-.992a1.82 1.82 0 011.3-.124c.499.134.879.385 1.129.75s.341.812.254 1.323zm2.852-.826l-.938 3.5c-.143.533-.133.958.034 1.264.163.317.538.542 1.094.691l1.09.292.233-.87-1.032-.276c-.243-.065-.405-.158-.47-.287-.064-.129-.064-.316.004-.571l.935-3.489 1.495.401.233-.869-1.495-.401.444-1.658-.95-.254-.444 1.657-1.067-.285-.233.869 1.067.286zm8.079 1.854c-.326-.547-.846-.923-1.565-1.115-.463-.124-.885-.126-1.26-.027-.377.11-.7.297-.967.548l.851-3.176-.95-.254-2.174 8.113.95.255.792-2.956c.177-.66.468-1.141.898-1.449.427-.295.909-.377 1.465-.228.51.136.872.407 1.064.807.191.399.206.9.044 1.502l-.866 3.234.95.255.882-3.292c.249-.927.208-1.659-.114-2.217z" fill="#0E0637"/></g><mask id="a" fill="#fff"><path d="M0 0h544v250H0V0z"/></mask><path d="M0 0h544v250H0V0z" fill="url(#paint6_radial_751_4710)"/><path d="M-2-2h548l-4 4H2l-4-4zm546 252H0h544zm-546 0V-2l4 4v248h-4zM546-2v252h-4V2l4-4z" fill="#E3E3E8" mask="url(#a)"/></g><defs><linearGradient id="paint0_linear_751_4710" x1="83" y1="142" x2="-6" y2="139.5" gradientUnits="userSpaceOnUse"><stop stop-color="#E3E3E8"/><stop offset="1" stop-color="#E3E3E8" stop-opacity="0"/></linearGradient><linearGradient id="paint1_linear_751_4710" x1="171" y1="58" x2="-3.371" y2="52" gradientUnits="userSpaceOnUse"><stop stop-color="#E3E3E8"/><stop offset="1" stop-color="#E3E3E8" stop-opacity="0"/></linearGradient><linearGradient id="paint2_linear_751_4710" x1="211" y1="170" x2="50.958" y2="163.257" gradientUnits="userSpaceOnUse"><stop stop-color="#E3E3E8"/><stop offset="1" stop-color="#E3E3E8" stop-opacity="0"/></linearGradient><linearGradient id="paint3_linear_751_4710" x1="776" y1="146" x2="601.629" y2="140" gradientUnits="userSpaceOnUse"><stop stop-color="#E3E3E8"/><stop offset="1" stop-color="#E3E3E8" stop-opacity="0"/></linearGradient><linearGradient id="paint4_linear_751_4710" x1="781" y1="222" x2="635.234" y2="215.285" gradientUnits="userSpaceOnUse"><stop stop-color="#E3E3E8"/><stop offset="1" stop-color="#E3E3E8" stop-opacity="0"/></linearGradient><linearGradient id="paint5_linear_751_4710" x1="685" y1="218" x2="488.562" y2="214.499" gradientUnits="userSpaceOnUse"><stop stop-color="#E3E3E8"/><stop offset="1" stop-color="#E3E3E8" stop-opacity="0"/></linearGradient><clipPath id="clip0_751_4710"><path fill="#fff" d="M0 0h544v250H0z"/></clipPath><clipPath id="clip1_751_4710"><rect x="173.723" y="19.63" width="264" height="164" rx="12" transform="rotate(15 173.723 19.63)" fill="#fff"/></clipPath><radialGradient id="paint6_radial_751_4710" cx="0" cy="0" r="1" gradientUnits="userSpaceOnUse" gradientTransform="matrix(0 219.828 -255 0 272 125)"><stop stop-color="#fff" stop-opacity="0"/><stop offset="1" stop-color="#fff" stop-opacity=".7"/></radialGradient><filter id="filter0_bi_751_4710" x="101.029" y="101.43" width="327.922" height="175.187" filterUnits="userSpaceOnUse" color-interpolation-filters="sRGB"><feFlood flood-opacity="0" result="BackgroundImageFix"/><feGaussianBlur in="BackgroundImageFix" stdDeviation="15.124"/><feComposite in2="SourceAlpha" operator="in" result="effect1_backgroundBlur_751_4710"/><feBlend in="SourceGraphic" in2="effect1_backgroundBlur_751_4710" result="shape"/><feColorMatrix in="SourceAlpha" values="0 0 0 0 0 0 0 0 0 0 0 0 0 0 0 0 0 0 127 0" result="hardAlpha"/><feOffset dx=".605" dy=".484"/><feGaussianBlur stdDeviation=".242"/><feComposite in2="hardAlpha" operator="arithmetic" k2="-1" k3="1"/><feColorMatrix values="0 0 0 0 1 0 0 0 0 1 0 0 0 0 1 0 0 0 0.25 0"/><feBlend in2="shape" result="effect2_innerShadow_751_4710"/></filter></defs></svg>