<svg width="544" height="250" fill="none" xmlns="http://www.w3.org/2000/svg"><g clip-path="url(#clip0_751_12441)"><path d="M91.65 217.528L90 214.695V250h406V142.589l-3.573-1.803-3.299 7.983-4.398-2.318h-8.247l-2.748 1.546-6.323-2.833-6.597 2.833-2.749-2.833-1.649 1.287-4.673-7.468-4.948 4.893h-7.971l-8.247-9.013-6.047 7.726-4.398-5.408-5.773-2.318-5.772 2.318-4.673 5.408-2.474-7.726-4.948 2.318L391.82 131l-3.024 7.983-2.749-4.12-3.848 11.588-5.498 3.606-5.497-3.606-5.498 3.606-2.199-2.06-5.772 8.755-2.474-1.802-2.749 10.043-2.749-2.833-1.099 5.151-7.697-9.271-5.223-10.043-1.649 21.374-3.024-2.06-5.498 16.739-3.573 4.12-1.374-3.09-4.124 12.619-4.947 2.575-3.299 17.254-5.773-4.893v7.726l-11.27-20.087-4.673-4.378-4.398 9.528-2.749-5.15-3.298 7.211h-5.773l-13.194-16.224-6.597 9.013-7.697-4.378-5.772 4.378-7.147-6.953-5.223 2.575-2.199-6.438-4.123 6.438-3.024-2.575-4.673 15.966-3.573-3.863-2.2 12.104-5.222-8.241-2.749-6.18-4.398 14.421-2.474-28.07-7.422-7.726-5.223-3.09-3.298 3.09-2.749-4.893-10.995 19.057-5.498 7.211-6.597-2.833v5.15l-4.673-5.15-5.498 12.361h-1.924l-6.597 4.893-3.024-4.893-7.696 11.331v11.331l-5.498-17.769-4.673-10.043-5.223 5.15-6.047-5.15-5.773 10.043z" fill="url(#paint0_linear_751_12441)" fill-opacity=".2"/><path d="M90 214.695l1.65 2.833 5.772-10.043 6.047 5.15 5.223-5.15 4.673 10.043 5.498 17.769v-11.331l7.696-11.331 3.024 4.893 6.597-4.893h1.924l5.498-12.361 4.673 5.151v-5.151l6.597 2.833 5.498-7.211 10.995-19.057 2.749 4.893 3.298-3.09 5.223 3.09 7.422 7.726 2.474 28.07 4.398-14.421 2.749 6.18 5.222 8.241 2.2-12.103 3.573 3.862 4.673-15.966 3.024 2.575 4.123-6.438 2.199 6.438 5.223-2.575 7.147 6.953 5.772-4.378 7.697 4.378 6.597-9.013 13.194 16.224h5.773l3.298-7.211 2.749 5.151 4.398-9.529 4.673 4.378 11.27 20.087v-7.726l5.773 4.893 3.298-17.254 4.948-2.575 4.124-12.619 1.374 3.09 3.573-4.12 5.498-16.739 3.024 2.06 1.649-21.374 5.223 10.043 7.697 9.271 1.099-5.151 2.749 2.833 2.749-10.043 2.474 1.802 5.772-8.755 2.199 2.06 5.498-3.606 5.497 3.606 5.498-3.606 3.848-11.588 2.749 4.12L391.82 131l4.673 6.181 4.948-2.318 2.474 7.726 4.673-5.408 5.772-2.318 5.773 2.318 4.398 5.408 6.047-7.726 8.247 9.013h7.971l4.948-4.893 4.673 7.468 1.649-1.287 2.749 2.833 6.597-2.833 6.323 2.833 2.748-1.546h8.247l4.398 2.318 3.299-7.983 3.573 1.803" stroke="#5235E8" stroke-width="2"/><path d="M54.444 75.8c.216-.36.336-.756.336-1.2 0-.732-.252-1.26-.756-1.596-.504-.336-1.176-.576-2.016-.72-.528-.084-.948-.168-1.248-.264a1.846 1.846 0 01-.744-.408c-.192-.18-.288-.432-.288-.756 0-.432.156-.78.492-1.02.324-.24.768-.372 1.332-.372.552 0 1.02.156 1.404.444.372.3.588.696.66 1.176h1.032c-.048-.672-.288-1.224-.732-1.68-.456-.456-1.032-.732-1.752-.84v-1.26h-.912v1.224c-.768.06-1.392.3-1.86.732-.48.432-.708.984-.708 1.656 0 .744.24 1.272.744 1.596.492.336 1.164.564 2.004.708.528.096.936.18 1.248.276.312.096.564.228.756.42.192.192.3.456.3.78 0 .456-.18.804-.54 1.056-.36.252-.816.372-1.392.372-.648 0-1.176-.168-1.584-.504-.42-.336-.648-.792-.684-1.368h-1.032c.024.768.288 1.392.768 1.896.48.504 1.14.804 1.98.9v1.236h.912V77.06c.504-.036.96-.168 1.356-.384.396-.216.708-.516.924-.876zm3.905-7.2h-.984v1.008a.89.89 0 01-.156.528c-.096.132-.24.192-.432.192H55.41v.9h1.356c.264 0 .456-.048.576-.156V77h1.008v-8.4zm1.515 4.008v.384c0 .828.132 1.548.396 2.16.264.624.648 1.092 1.128 1.428.48.336 1.032.492 1.668.492.624 0 1.176-.156 1.656-.492.48-.336.852-.804 1.116-1.428.264-.612.408-1.332.408-2.16v-.384c0-.792-.144-1.488-.408-2.112a3.41 3.41 0 00-1.128-1.44 2.743 2.743 0 00-1.644-.528 2.79 2.79 0 00-1.668.528 3.41 3.41 0 00-1.128 1.44c-.264.624-.396 1.32-.396 2.112zm5.076-1.668c.18.48.276 1.056.276 1.704v.312c0 .66-.096 1.224-.276 1.704-.18.48-.432.852-.756 1.104a1.715 1.715 0 01-1.128.384c-.432 0-.816-.12-1.14-.384-.336-.252-.588-.624-.768-1.104-.18-.48-.264-1.044-.264-1.704v-.312c0-.648.084-1.224.264-1.704s.432-.84.768-1.104a1.816 1.816 0 011.14-.384c.432 0 .804.132 1.128.384.324.264.576.624.756 1.104zm2.592-2.34V77h.984v-1.62l1.224-1.284L71.78 77h1.188l-2.52-3.612L72.8 70.88h-1.176l-3.108 3.288V68.6h-.984zm-13.088 55.2c.216-.36.336-.756.336-1.2 0-.732-.252-1.26-.756-1.596-.504-.336-1.176-.576-2.016-.72-.528-.084-.948-.168-1.248-.264a1.846 1.846 0 01-.744-.408c-.192-.18-.288-.432-.288-.756 0-.432.156-.78.492-1.02.324-.24.768-.372 1.332-.372.552 0 1.02.156 1.404.444.372.3.588.696.66 1.176h1.032c-.048-.672-.288-1.224-.732-1.68-.456-.456-1.032-.732-1.752-.84v-1.26h-.912v1.224c-.768.06-1.392.3-1.86.732-.48.432-.708.984-.708 1.656 0 .744.24 1.272.744 1.596.492.336 1.164.564 2.004.708.528.096.936.18 1.248.276.312.096.564.228.756.42.192.192.3.456.3.78 0 .456-.18.804-.54 1.056-.36.252-.816.372-1.392.372-.648 0-1.176-.168-1.584-.504-.42-.336-.648-.792-.684-1.368h-1.032c.024.768.288 1.392.768 1.896.48.504 1.14.804 1.98.9v1.236h.912v-1.224c.504-.036.96-.168 1.356-.384.396-.216.708-.516.924-.876zm7.025-2.436c-.348-.36-.792-.6-1.344-.72.468-.084.852-.3 1.164-.648.3-.348.456-.768.456-1.248 0-.432-.12-.828-.348-1.164-.228-.336-.552-.588-.972-.78-.432-.192-.924-.288-1.476-.288-.564 0-1.056.096-1.476.288-.432.192-.756.444-.984.78a2.037 2.037 0 00-.336 1.164c0 .492.144.912.456 1.248.3.336.684.552 1.164.648-.552.12-1.008.372-1.344.732-.348.36-.516.816-.516 1.368 0 .456.12.864.36 1.212.24.36.6.636 1.056.828.456.192.996.288 1.62.288.612 0 1.152-.096 1.608-.288.456-.192.816-.468 1.056-.828a2.1 2.1 0 00.372-1.212c0-.552-.18-1.02-.516-1.38zm-3.816-1.596a1.234 1.234 0 01-.504-1.02c0-.408.168-.732.504-.996.336-.264.768-.396 1.296-.396s.96.132 1.296.396c.336.264.504.588.504.996 0 .42-.168.756-.504 1.02-.336.264-.768.384-1.296.384s-.96-.12-1.296-.384zm2.748 4.044c-.384.288-.864.432-1.452.432s-1.068-.144-1.452-.432c-.384-.288-.576-.648-.576-1.104 0-.288.084-.564.264-.804.168-.24.408-.42.72-.564.312-.132.66-.204 1.044-.204s.72.072 1.032.204c.312.144.552.324.732.564a1.4 1.4 0 01.264.804c0 .456-.192.816-.576 1.104zm2.875-7.212v8.4h.984v-1.62l1.224-1.284 2.04 2.904h1.188l-2.52-3.612 2.352-2.508h-1.176l-3.108 3.288V116.6h-.984zm-8.832 55.2c.216-.36.336-.756.336-1.2 0-.732-.252-1.26-.756-1.596-.504-.336-1.176-.576-2.016-.72-.528-.084-.948-.168-1.248-.264a1.846 1.846 0 01-.744-.408c-.192-.18-.288-.432-.288-.756 0-.432.156-.78.492-1.02.324-.24.768-.372 1.332-.372.552 0 1.02.156 1.404.444.372.3.588.696.66 1.176h1.032c-.048-.672-.288-1.224-.732-1.68-.456-.456-1.032-.732-1.752-.84v-1.26h-.912v1.224c-.768.06-1.392.3-1.86.732-.48.432-.708.984-.708 1.656 0 .744.24 1.272.744 1.596.492.336 1.164.564 2.004.708.528.096.936.18 1.248.276.312.096.564.228.756.42.192.192.3.456.3.78 0 .456-.18.804-.54 1.056-.36.252-.816.372-1.392.372-.648 0-1.176-.168-1.584-.504-.42-.336-.648-.792-.684-1.368h-1.032c.024.768.288 1.392.768 1.896.48.504 1.14.804 1.98.9v1.236h.912v-1.224c.504-.036.96-.168 1.356-.384.396-.216.708-.516.924-.876zm1.637-1.404c.12.492.276.924.492 1.284.264.444.612.792 1.044 1.032.432.24.924.36 1.5.36.564 0 1.068-.12 1.512-.36.432-.24.78-.576 1.032-1.008.24-.432.372-.912.372-1.452 0-.552-.12-1.044-.36-1.476a2.615 2.615 0 00-.996-.984 3.068 3.068 0 00-1.464-.348c-.552 0-1.032.132-1.44.372a2.28 2.28 0 00-.9 1.008 1.294 1.294 0 00-.072.228l-.012-.408c0-.96.192-1.74.588-2.34.396-.588.96-.888 1.68-.888.492 0 .888.132 1.2.384.312.264.516.612.612 1.044h1.008c-.108-.696-.408-1.26-.9-1.68-.492-.42-1.116-.636-1.872-.636-.672 0-1.236.18-1.716.528-.48.348-.852.84-1.104 1.488-.252.648-.372 1.416-.372 2.292 0 .552.048 1.08.168 1.56zm4.428-1.524c.336.36.516.816.516 1.38 0 .576-.18 1.032-.528 1.392-.36.36-.816.54-1.392.54s-1.044-.168-1.392-.528c-.36-.348-.528-.804-.528-1.38 0-.576.18-1.044.54-1.404.36-.36.828-.54 1.416-.54.576 0 1.032.18 1.368.54zm2.814-4.272v8.4h.984v-1.62l1.224-1.284 2.04 2.904h1.188l-2.52-3.612 2.352-2.508h-1.176l-3.108 3.288V164.6h-.984zm-8.879 55.2c.216-.36.336-.756.336-1.2 0-.732-.252-1.26-.756-1.596-.504-.336-1.176-.576-2.016-.72-.528-.084-.948-.168-1.248-.264a1.846 1.846 0 01-.744-.408c-.192-.18-.288-.432-.288-.756 0-.432.156-.78.492-1.02.324-.24.768-.372 1.332-.372.552 0 1.02.156 1.404.444.372.3.588.696.66 1.176h1.032c-.048-.672-.288-1.224-.732-1.68-.456-.456-1.032-.732-1.752-.84v-1.26h-.912v1.224c-.768.06-1.392.3-1.86.732-.48.432-.708.984-.708 1.656 0 .744.24 1.272.744 1.596.492.336 1.164.564 2.004.708.528.096.936.18 1.248.276.312.096.564.228.756.42.192.192.3.456.3.78 0 .456-.18.804-.54 1.056-.36.252-.816.372-1.392.372-.648 0-1.176-.168-1.584-.504-.42-.336-.648-.792-.684-1.368h-1.032c.024.768.288 1.392.768 1.896.48.504 1.14.804 1.98.9v1.236h.912v-1.224c.504-.036.96-.168 1.356-.384.396-.216.708-.516.924-.876zm1.181-1.752v.9h4.404V221h1.008v-2.052h1.356v-.924h-1.356V212.6h-1.2l-4.212 5.448zm1.08-.024l3.324-4.296v4.296h-3.324zm6.7-5.424v8.4h.984v-1.62l1.224-1.284 2.04 2.904h1.188l-2.52-3.612 2.352-2.508h-1.176l-3.108 3.288V212.6h-.984z" fill="#717184"/></g><defs><linearGradient id="paint0_linear_751_12441" x1="293" y1="131" x2="293" y2="250" gradientUnits="userSpaceOnUse"><stop stop-color="#5235E8" stop-opacity=".7"/><stop offset="1" stop-color="#5235E8" stop-opacity="0"/></linearGradient><clipPath id="clip0_751_12441"><path fill="#fff" d="M0 0h544v250H0z"/></clipPath></defs></svg>