<svg width="40" height="40" fill="none" xmlns="http://www.w3.org/2000/svg"><g clip-path="url(#clip0_407_10352)"><path d="M39.964 19.993c0 10.991-8.91 19.9-19.9 19.9-10.991 0-19.9-8.909-19.9-19.9 0-10.99 8.909-19.9 19.9-19.9 10.99 0 19.9 8.91 19.9 19.9z" fill="#1BA27A"/><path d="M29.403 10.127H10.56v4.55h7.147v6.686h4.55v-6.686h7.146v-4.55z" fill="#fff"/><path d="M20.025 22.076c-5.912 0-10.706-.936-10.706-2.09 0-1.155 4.793-2.09 10.706-2.09 5.912 0 10.706.935 10.706 2.09 0 1.154-4.794 2.09-10.706 2.09zm12.02-1.742c0-1.488-5.381-2.695-12.02-2.695-6.639 0-12.021 1.207-12.021 2.695 0 1.31 4.173 2.403 9.703 2.645v9.599h4.55v-9.595c5.572-.235 9.789-1.331 9.789-2.649z" fill="#fff"/></g><defs><clipPath id="clip0_407_10352"><path fill="#fff" d="M0 0h40v40H0z"/></clipPath></defs></svg>