<?xml version="1.0" standalone="no"?>
<!DOCTYPE svg PUBLIC "-//W3C//DTD SVG 20010904//EN"
 "http://www.w3.org/TR/2001/REC-SVG-20010904/DTD/svg10.dtd">
<svg version="1.0" xmlns="http://www.w3.org/2000/svg"
 width="700.000000pt" height="700.000000pt" viewBox="0 0 700.000000 700.000000"
 preserveAspectRatio="xMidYMid meet">
<metadata>
Created by potrace 1.14, written by Peter Selinger 2001-2017
</metadata>
<g transform="translate(0.000000,700.000000) scale(0.100000,-0.100000)"
fill="#000000" stroke="none">
<path d="M1799 6996 c-2 -2 -31 -6 -64 -10 -33 -3 -73 -8 -90 -11 -42 -7 -88
-15 -100 -16 -26 -4 -159 -43 -240 -71 -358 -123 -695 -373 -927 -689 -199
-270 -323 -587 -367 -939 -10 -81 -10 -3510 1 -3545 3 -11 9 -42 12 -70 4 -27
20 -102 36 -165 149 -594 567 -1083 1131 -1323 172 -73 350 -120 545 -145 78
-9 3426 -9 3526 1 42 4 108 14 145 21 38 8 80 17 93 19 54 10 227 68 300 99
306 134 548 314 745 553 130 158 231 323 301 491 79 193 116 335 142 549 9 79
9 3431 0 3515 -41 358 -165 668 -387 967 -70 94 -226 256 -321 334 -226 184
-537 335 -815 395 -184 40 -115 38 -1931 41 -952 2 -1733 1 -1735 -1z m3372
-170 c63 -3 122 -7 130 -10 8 -3 32 -8 54 -11 220 -31 517 -156 715 -298 156
-112 278 -262 379 -464 135 -271 168 -535 106 -837 -24 -116 -130 -352 -199
-443 -83 -109 -216 -207 -326 -240 -104 -31 -116 -33 -215 -37 -118 -5 -217
14 -307 57 -87 42 -205 138 -233 190 l-20 37 102 101 c115 113 181 193 219
268 26 53 51 164 49 216 -19 367 -333 630 -845 708 -96 15 -416 16 -490 2
-221 -42 -337 -78 -475 -147 -230 -115 -366 -255 -432 -444 -25 -72 -27 -92
-27 -229 0 -82 3 -172 7 -198 18 -125 65 -252 128 -344 70 -103 221 -229 357
-297 138 -70 464 -189 1017 -374 966 -322 1255 -457 1512 -708 256 -250 417
-598 449 -969 12 -149 6 -565 -10 -645 -1 -8 -6 -37 -10 -65 -40 -254 -196
-608 -348 -787 -13 -14 -38 -45 -57 -68 -104 -127 -304 -294 -457 -381 -176
-100 -413 -187 -579 -213 -16 -2 -48 -7 -70 -10 -22 -4 -60 -9 -85 -11 -63 -6
-3351 -6 -3425 1 -648 54 -1244 500 -1487 1109 -54 136 -88 255 -103 360 -4
28 -9 58 -11 69 -2 10 -6 44 -10 75 -9 78 -9 3329 1 3416 4 39 9 81 10 95 1
14 8 52 14 85 7 33 14 71 17 85 11 54 84 259 120 335 232 492 674 851 1207
979 144 35 161 37 362 42 99 3 186 6 194 7 34 5 2967 -2 3072 -7z"/>
<path d="M1830 6469 c-99 -12 -154 -21 -177 -30 -13 -5 -23 -7 -23 -4 0 9
-237 -78 -309 -114 -129 -65 -258 -159 -366 -265 -100 -99 -127 -131 -197
-231 -118 -170 -208 -414 -238 -639 -7 -51 -10 -645 -9 -1700 0 -1796 -2
-1728 69 -1946 167 -507 598 -888 1120 -989 30 -5 73 -13 95 -17 53 -9 2090
-12 2045 -3 -19 4 -96 17 -170 29 -569 94 -1046 333 -1288 645 -243 313 -272
834 -63 1132 145 207 357 315 626 322 162 3 273 -32 407 -131 98 -72 150 -144
125 -170 -85 -89 -194 -223 -217 -268 -71 -140 -82 -377 -27 -541 43 -126 149
-257 281 -349 98 -67 259 -135 411 -173 57 -15 73 -18 170 -32 22 -3 45 -8 52
-10 51 -17 482 -25 626 -12 447 42 784 238 934 542 63 128 92 273 87 443 -3
124 -5 144 -30 231 -74 258 -341 485 -736 627 -131 47 -481 162 -585 193 -57
17 -149 45 -205 61 -176 52 -506 162 -573 189 -11 5 -74 30 -140 56 -238 94
-349 153 -505 269 -239 179 -426 414 -520 655 -26 67 -66 228 -74 296 -4 28
-9 63 -12 79 -4 16 -7 93 -9 171 -2 127 1 175 19 308 9 70 54 223 85 290 17
37 31 70 31 72 0 2 22 42 49 88 176 297 504 565 883 721 186 76 479 159 643
182 17 2 39 6 50 8 11 3 35 5 53 5 17 1 32 5 32 9 0 9 -2340 10 -2420 1z"/>
<path d="M4268 6473 c7 -3 16 -2 19 1 4 3 -2 6 -13 5 -11 0 -14 -3 -6 -6z"/>
</g>
</svg>
