<svg width="48" height="48" fill="none" xmlns="http://www.w3.org/2000/svg"><g clip-path="url(#clip0_1_947)"><path d="M45.238 9.603L26.615 8.087 2.764 9.603v37.222c0 .65.526 1.175 1.174 1.175h40.125c.649 0 1.175-.526 1.175-1.175V9.603z" fill="#F6F9F9"/><path d="M45.238 9.603L41.375 7.67v29.442a8.955 8.955 0 01-8.956 8.956H2.764v.756c0 .65.526 1.175 1.174 1.175h40.125c.649 0 1.175-.526 1.175-1.175V9.603z" fill="#E7ECF1"/><path d="M44.063 2.74H3.938c-.648 0-1.174.526-1.174 1.175v5.688h42.474V3.915c0-.65-.526-1.175-1.175-1.175z" fill="#61A2F9"/><path d="M44.063 2.74h-2.688v6.863h3.863V3.915c0-.65-.526-1.175-1.175-1.175z" fill="#5490F9"/><path d="M8.768 6.466h-.66a1.17 1.17 0 01-1.17-1.17V1.17c0-.646.524-1.17 1.17-1.17h.66c.646 0 1.17.524 1.17 1.17v4.125a1.17 1.17 0 01-1.17 1.17zm7.782 0h-.66a1.17 1.17 0 01-1.171-1.17V1.17c0-.646.524-1.17 1.17-1.17h.66c.647 0 1.17.524 1.17 1.17v4.125a1.17 1.17 0 01-1.17 1.17zm7.78 0h-.66a1.17 1.17 0 01-1.17-1.17V1.17c0-.646.524-1.17 1.17-1.17h.66c.647 0 1.17.524 1.17 1.17v4.125a1.17 1.17 0 01-1.17 1.17zm7.782 0h-.66a1.17 1.17 0 01-1.17-1.17V1.17c0-.646.523-1.17 1.17-1.17h.66c.646 0 1.17.524 1.17 1.17v4.125a1.17 1.17 0 01-1.17 1.17zm7.783 0h-.66a1.17 1.17 0 01-1.17-1.17V1.17c0-.646.523-1.17 1.17-1.17h.66c.646 0 1.17.524 1.17 1.17v4.125a1.17 1.17 0 01-1.17 1.17zM15.78 18.924v-1.698c0-.21.17-.38.379-.38h21.457c.21 0 .38.17.38.38v1.698c0 .21-.17.38-.38.38H16.16a.38.38 0 01-.38-.38zm0 4.916v-1.7c0-.209.17-.378.379-.378h21.457c.21 0 .38.17.38.379v1.699c0 .21-.17.38-.38.38H16.16a.38.38 0 01-.38-.38zm0 4.915v-1.699c0-.21.17-.379.379-.379h21.457c.21 0 .38.17.38.38v1.698c0 .21-.17.38-.38.38H16.16a.38.38 0 01-.38-.38zm0 4.915v-1.698c0-.21.17-.38.379-.38h21.457c.21 0 .38.17.38.38v1.698c0 .21-.17.38-.38.38H16.16a.38.38 0 01-.38-.38zm0 4.916v-1.699c0-.21.17-.38.379-.38h21.457c.21 0 .38.17.38.38v1.699c0 .21-.17.38-.38.38H16.16a.38.38 0 01-.38-.38zm-5.772-19.662v-1.698c0-.21.17-.38.38-.38h2.114c.21 0 .38.17.38.38v1.698c0 .21-.17.38-.38.38h-2.115a.38.38 0 01-.38-.38zm0 4.916v-1.7c0-.209.17-.378.38-.378h2.114c.21 0 .38.17.38.379v1.699c0 .21-.17.38-.38.38h-2.115a.38.38 0 01-.38-.38zm0 4.915v-1.699c0-.21.17-.379.38-.379h2.114c.21 0 .38.17.38.38v1.698c0 .21-.17.38-.38.38h-2.115a.38.38 0 01-.38-.38zm0 4.915v-1.698c0-.21.17-.38.38-.38h2.114c.21 0 .38.17.38.38v1.698c0 .21-.17.38-.38.38h-2.115a.38.38 0 01-.38-.38zm0 4.916v-1.699c0-.21.17-.38.38-.38h2.114c.21 0 .38.17.38.38v1.699c0 .21-.17.38-.38.38h-2.115a.38.38 0 01-.38-.38z" fill="#DAE4EA"/></g><defs><clipPath id="clip0_1_947"><path fill="#fff" d="M0 0h48v48H0z"/></clipPath></defs></svg>