<svg width="179" height="40" fill="none" xmlns="http://www.w3.org/2000/svg"><path d="M63.16 32.252c-1.752 0-3.336-.3-4.752-.9-1.392-.6-2.496-1.464-3.312-2.592-.816-1.128-1.236-2.46-1.26-3.996h5.4c.072 1.032.432 1.848 1.08 2.448.672.6 1.584.9 2.736.9 1.176 0 2.1-.276 2.772-.828.672-.576 1.008-1.32 1.008-2.232 0-.744-.228-1.356-.684-1.836-.456-.48-1.032-.852-1.728-1.116-.672-.288-1.608-.6-2.808-.936-1.632-.48-2.964-.948-3.996-1.404-1.008-.48-1.884-1.188-2.628-2.124-.72-.96-1.08-2.232-1.08-3.816 0-1.488.372-2.784 1.116-3.888.744-1.104 1.788-1.944 3.132-2.52 1.344-.6 2.88-.9 4.608-.9 2.592 0 4.692.636 6.3 1.908 1.632 1.248 2.532 3 2.7 5.256H66.22c-.048-.864-.42-1.572-1.116-2.124-.672-.576-1.572-.864-2.7-.864-.984 0-1.776.252-2.376.756-.576.504-.864 1.236-.864 2.196 0 .672.216 1.236.648 1.692a5.815 5.815 0 001.656 1.08c.672.264 1.608.576 2.808.936 1.632.48 2.964.96 3.996 1.44s1.92 1.2 2.664 2.16c.744.96 1.116 2.22 1.116 3.78a7.11 7.11 0 01-1.044 3.744c-.696 1.152-1.716 2.076-3.06 2.772-1.344.672-2.94 1.008-4.788 1.008zm11.606-10.296c0-2.016.395-3.804 1.188-5.364.816-1.56 1.908-2.76 3.276-3.6 1.391-.84 2.94-1.26 4.644-1.26 1.488 0 2.784.3 3.888.9 1.127.6 2.028 1.356 2.7 2.268v-2.844h5.075V32h-5.076v-2.916c-.647.936-1.547 1.716-2.7 2.34-1.127.6-2.435.9-3.923.9-1.68 0-3.216-.432-4.608-1.296-1.368-.864-2.46-2.076-3.276-3.636-.792-1.584-1.188-3.396-1.188-5.436zm15.695.072c0-1.224-.24-2.268-.72-3.132-.48-.888-1.127-1.56-1.944-2.016a5.096 5.096 0 00-2.627-.72c-.936 0-1.8.228-2.593.684-.791.456-1.44 1.128-1.944 2.016-.48.864-.72 1.896-.72 3.096 0 1.2.24 2.256.72 3.168.505.888 1.153 1.572 1.945 2.052.816.48 1.68.72 2.591.72.937 0 1.813-.228 2.629-.684a5.237 5.237 0 001.944-2.016c.48-.888.72-1.944.72-3.168zm8.343-.072c0-2.016.396-3.804 1.188-5.364.816-1.56 1.908-2.76 3.276-3.6 1.392-.84 2.94-1.26 4.644-1.26 1.488 0 2.784.3 3.888.9 1.128.6 2.028 1.356 2.7 2.268v-2.844h5.076V32H114.5v-2.916c-.648.936-1.548 1.716-2.7 2.34-1.128.6-2.436.9-3.924.9-1.68 0-3.216-.432-4.608-1.296-1.368-.864-2.46-2.076-3.276-3.636-.792-1.584-1.188-3.396-1.188-5.436zm15.696.072c0-1.224-.24-2.268-.72-3.132-.48-.888-1.128-1.56-1.944-2.016a5.096 5.096 0 00-2.628-.72c-.936 0-1.8.228-2.592.684-.792.456-1.44 1.128-1.944 2.016-.48.864-.72 1.896-.72 3.096 0 1.2.24 2.256.72 3.168.504.888 1.152 1.572 1.944 2.052.816.48 1.68.72 2.592.72.936 0 1.812-.228 2.628-.684a5.237 5.237 0 001.944-2.016c.48-.888.72-1.944.72-3.168zm18.314 10.224c-1.752 0-3.336-.3-4.752-.9-1.392-.6-2.496-1.464-3.312-2.592-.816-1.128-1.236-2.46-1.26-3.996h5.4c.072 1.032.432 1.848 1.08 2.448.672.6 1.584.9 2.736.9 1.176 0 2.1-.276 2.772-.828.672-.576 1.008-1.32 1.008-2.232 0-.744-.228-1.356-.684-1.836-.456-.48-1.032-.852-1.728-1.116-.672-.288-1.608-.6-2.808-.936-1.632-.48-2.964-.948-3.996-1.404-1.008-.48-1.884-1.188-2.628-2.124-.72-.96-1.08-2.232-1.08-3.816 0-1.488.372-2.784 1.116-3.888.744-1.104 1.788-1.944 3.132-2.52 1.344-.6 2.88-.9 4.608-.9 2.592 0 4.692.636 6.3 1.908 1.632 1.248 2.532 3 2.7 5.256h-5.544c-.048-.864-.42-1.572-1.116-2.124-.672-.576-1.572-.864-2.7-.864-.984 0-1.776.252-2.376.756-.576.504-.864 1.236-.864 2.196 0 .672.216 1.236.648 1.692a5.815 5.815 0 001.656 1.08c.672.264 1.608.576 2.808.936 1.632.48 2.964.96 3.996 1.44s1.92 1.2 2.664 2.16c.744.96 1.116 2.22 1.116 3.78a7.11 7.11 0 01-1.044 3.744c-.696 1.152-1.716 2.076-3.06 2.772-1.344.672-2.94 1.008-4.788 1.008zm18.77-16.056v9.648c0 .672.156 1.164.468 1.476.336.288.888.432 1.656.432h2.34V32h-3.168c-4.248 0-6.372-2.064-6.372-6.192v-9.612h-2.376v-4.14h2.376V7.124h5.076v4.932h4.464v4.14h-4.464zm16.585 16.128c-1.92 0-3.648-.42-5.184-1.26-1.536-.864-2.748-2.076-3.636-3.636-.864-1.56-1.296-3.36-1.296-5.4 0-2.04.444-3.84 1.332-5.4.912-1.56 2.148-2.76 3.708-3.6 1.56-.864 3.3-1.296 5.22-1.296s3.66.432 5.22 1.296a9.137 9.137 0 013.672 3.6c.912 1.56 1.368 3.36 1.368 5.4 0 2.04-.468 3.84-1.404 5.4a9.566 9.566 0 01-3.744 3.636c-1.56.84-3.312 1.26-5.256 1.26zm0-4.392c.912 0 1.764-.216 2.556-.648.816-.456 1.464-1.128 1.944-2.016.48-.888.72-1.968.72-3.24 0-1.896-.504-3.348-1.512-4.356-.984-1.032-2.196-1.548-3.636-1.548s-2.652.516-3.636 1.548c-.96 1.008-1.44 2.46-1.44 4.356s.468 3.36 1.404 4.392c.96 1.008 2.16 1.512 3.6 1.512z" fill="#18063C"/><path d="M22.393 37.008H11.305a8.398 8.398 0 01-8.399-8.399V11.391a8.398 8.398 0 018.399-8.398h13.511a18.092 18.092 0 00-4.364.972c-1.99.717-3.607 1.796-4.851 3.234-1.245 1.438-1.869 3.161-1.869 5.175 0 2.155.528 3.906 1.583 5.244 1.051 1.34 2.323 2.348 3.81 3.017 1.482.672 3.399 1.34 5.747 2.013 1.916.576 3.413 1.079 4.492 1.51 1.076.431 1.975 1.03 2.696 1.796.717.766 1.076 1.748 1.076 2.945 0 1.772-.635 3.15-1.904 4.13-1.268.982-3.03 1.472-5.281 1.472-2.493 0-4.396-.42-5.713-1.258-1.317-.838-1.976-1.976-1.976-3.414 0-1.051.276-1.868.828-2.444.551-.576.827-.886.827-.934 0-.238-.3-.576-.9-1.007a3.424 3.424 0 00-2.047-.648c-1.342 0-2.431.43-3.269 1.293-.838.862-1.258 1.989-1.258 3.378 0 2.445 1.196 4.338 3.592 5.675 1.738.983 3.861 1.597 6.358 1.865z" fill="#FA865F"/><path d="M28.84 0H11.157C5.006 0 0 5.006 0 11.157V28.84c0 6.154 5.006 11.157 11.157 11.157H28.84C34.994 39.997 40 34.99 40 28.84V11.157C40 5.006 34.994 0 28.84 0zm10.205 28.84c0 5.633-4.568 10.201-10.202 10.201H11.157C5.523 39.041.955 34.474.955 28.84V11.157C.955 5.523 5.523.955 11.157.955H28.84c2.403 0 4.61.838 6.354 2.234 1.986 1.917 3.296 5.13 1.813 8.347a4.694 4.694 0 01-.879 1.486c-.79.91-1.834 1.365-3.127 1.365a3.416 3.416 0 01-2.048-.648c-.6-.43-.9-.765-.9-1.007 0-.048.194-.238.576-.575a6.35 6.35 0 001.045-1.187c.31-.455.469-.992.469-1.616-.097-1.293-.745-2.3-1.941-3.017-1.2-.717-2.614-1.08-4.241-1.08-1.82 0-3.413.421-4.778 1.26-1.366.837-2.048 1.999-2.048 3.485 0 1.34.286 2.406.862 3.196.575.79 1.437 1.427 2.585 1.903 1.148.48 2.969 1.127 5.461 1.94 2.538.814 4.527 1.57 5.965 2.266 1.22.59 2.21 1.362 3 2.296l.03.038c1.338 1.61 2.007 3.668 2.007 5.761v1.438z" fill="#FA865F"/></svg>