<svg width="176" height="35" fill="none" xmlns="http://www.w3.org/2000/svg"><path d="M.729 19.306c1.461-3.851 6.942-6.82 9.5-7.822 11.692-4.814 30.51-7.22 38.365-6.017 7.856 1.203-.73 3.61-8.221 6.017-7.49 2.406-2.01 3.61 4.75 2.406 6.76-1.203 20.827-2.406 32.884-3.008 12.058-.602-.182-1.805-12.057-1.805s-11.693-2.407-7.49-3.61C62.66 4.264 72.16-.55 83.305.052c11.144.601 37.452 1.805 48.778 6.017 11.327 4.211 34.712 15.643 40.376 19.253 5.663 3.61 4.932 13.839-5.116 7.822s-30.875-16.847-76.548-18.652C45.122 12.687 10.41 22.916 6.756 27.127c-3.653 4.212-6.211 4.212-4.75.602 1.462-3.61 1.827-4.212.366-3.008-1.462 1.203-3.471-.602-1.644-5.415z" fill="#FF733B"/></svg>