<svg width="113" height="130" fill="none" xmlns="http://www.w3.org/2000/svg"><path opacity=".5" d="M106.043 1.019a1.5 1.5 0 10-2.66 1.387l2.66-1.387zM71.898 67.842l-.298-1.47.298 1.47zm-70.83 48.943a1.5 1.5 0 00-.232 2.109l8.442 10.534a1.5 1.5 0 002.341-1.876l-7.504-9.364 9.364-7.505a1.5 1.5 0 10-1.877-2.341l-10.534 8.443zM103.383 2.405c4.576 8.776 8.396 22.451 5.231 35.025-1.573 6.252-4.876 12.253-10.715 17.299-5.85 5.055-14.316 9.212-26.299 11.643l.596 2.94C84.556 66.805 93.533 62.467 99.861 57c6.339-5.478 9.95-12.031 11.663-18.836 3.407-13.54-.709-27.992-5.481-37.144l-2.66 1.387zM71.6 66.373c-14.956 3.034-25.438.881-32.21-3.51-6.765-4.387-10.013-11.122-10.332-17.685-.32-6.596 2.318-12.91 7.201-16.514 4.818-3.555 12.123-4.685 21.624-.337l1.249-2.728c-10.26-4.694-18.77-3.692-24.654.651-5.82 4.295-8.777 11.646-8.416 19.074.362 7.46 4.067 15.109 11.695 20.055 7.62 4.942 18.966 7.073 34.44 3.934l-.597-2.94zM57.883 28.326c9.374 4.289 14.655 12.24 16.319 21.769 1.671 9.572-.32 20.74-5.592 31.212-10.533 20.921-33.983 38.735-66.44 35.158l-.328 2.981c33.869 3.734 58.43-14.907 69.447-36.79 5.503-10.929 7.671-22.75 5.868-33.077-1.81-10.37-7.638-19.228-18.025-23.981l-1.249 2.728z" fill="#D26D60"/></svg>